<?xml version="1.0" encoding="UTF-8" standalone="no"?>
<!-- Created with Inkscape (http://www.inkscape.org/) -->

<svg
   width="38.084949mm"
   height="50.411587mm"
   viewBox="0 0 38.084949 50.411587"
   version="1.1"
   id="svg1"
   xml:space="preserve"
   inkscape:version="1.3 (0e150ed6c4, 2023-07-21)"
   sodipodi:docname="about us baru.svg"
   xmlns:inkscape="http://www.inkscape.org/namespaces/inkscape"
   xmlns:sodipodi="http://sodipodi.sourceforge.net/DTD/sodipodi-0.dtd"
   xmlns="http://www.w3.org/2000/svg"
   xmlns:svg="http://www.w3.org/2000/svg"><sodipodi:namedview
     id="namedview1"
     pagecolor="#ffffff"
     bordercolor="#000000"
     borderopacity="0.25"
     inkscape:showpageshadow="2"
     inkscape:pageopacity="0.0"
     inkscape:pagecheckerboard="0"
     inkscape:deskcolor="#d1d1d1"
     inkscape:document-units="mm"
     showguides="false"
     inkscape:zoom="0.48945419"
     inkscape:cx="1750.9299"
     inkscape:cy="1623.2367"
     inkscape:window-width="1920"
     inkscape:window-height="991"
     inkscape:window-x="-9"
     inkscape:window-y="-9"
     inkscape:window-maximized="1"
     inkscape:current-layer="layer1" /><defs
     id="defs1" /><g
     inkscape:label="Layer 1"
     inkscape:groupmode="layer"
     id="layer1"
     transform="translate(-775.7267,-467.98656)"><path
       style="fill:#000000;fill-opacity:1;stroke-width:1.16172"
       d="m 781.87254,518.17579 c -0.0298,-0.12185 -0.0419,-1.17412 -0.0265,-2.33838 l 0.0279,-2.11686 1.17776,-0.0279 c 0.72232,-0.0171 1.28251,0.0155 1.4487,0.0843 0.36852,0.15265 0.67188,0.6975 0.67188,1.20675 0,0.50924 -0.43696,1.09965 -0.88699,1.19849 -0.16198,0.0356 -0.29449,0.0877 -0.29449,0.11583 0,0.0787 0.69261,1.32814 0.89932,1.62219 0.24301,0.34571 0.23177,0.47709 -0.0409,0.47709 -0.17932,0 -0.33167,-0.18353 -0.75596,-0.91072 -0.71513,-1.22573 -0.74439,-1.25536 -1.23948,-1.25536 -0.51717,0 -0.5368,0.0453 -0.5368,1.23879 0,0.85869 -0.0143,0.92729 -0.19504,0.92729 -0.12051,0 -0.21578,-0.0847 -0.24936,-0.22153 z m 2.60333,-2.69627 c 0.24926,-0.31687 0.26393,-0.82851 0.0317,-1.10674 -0.14794,-0.17731 -0.30097,-0.2109 -1.08265,-0.23774 -0.52251,-0.0179 -0.95245,0.0104 -1.00918,0.0676 -0.10921,0.10919 -0.13762,1.3663 -0.0332,1.4707 0.0361,0.0361 0.47595,0.0656 0.97745,0.0656 0.86775,0 0.92164,-0.0125 1.11585,-0.25941 z m 3.84701,2.80248 c 0,-0.25923 1.726,-4.40946 1.82147,-4.37979 0.0541,0.0168 0.41885,0.82466 0.81046,1.79517 1.14422,2.83586 1.10455,2.70006 0.78886,2.69961 -0.18268,-2.7e-4 -0.26945,-0.12379 -0.50149,-0.71383 -0.15431,-0.39241 -0.31832,-0.80211 -0.36447,-0.9104 -0.0462,-0.10828 -0.21185,-0.50707 -0.36826,-0.88613 -0.1564,-0.37906 -0.32468,-0.68334 -0.37397,-0.67619 -0.0492,0.007 -0.18777,0.25084 -0.30778,0.54152 -0.12001,0.29068 -0.40828,0.99372 -0.6406,1.56231 -0.34296,0.83937 -0.46396,1.03972 -0.64332,1.06528 -0.13251,0.019 -0.2209,-0.0202 -0.2209,-0.0976 z m 6.89205,0.0392 c 0,-0.0419 0.36089,-0.69539 0.80197,-1.45225 0.44107,-0.75687 0.86898,-1.50904 0.95091,-1.67149 0.0819,-0.16246 0.23404,-0.41786 0.33802,-0.56756 0.10397,-0.14971 0.17334,-0.31945 0.1541,-0.37719 -0.022,-0.0661 -0.44155,-0.10455 -1.13201,-0.10363 -0.89243,0.002 -1.10775,-0.0266 -1.15455,-0.14861 -0.0316,-0.0825 -0.0326,-0.19023 -0.002,-0.2395 0.0532,-0.0861 3.19438,-0.13319 3.19438,-0.0478 0,0.0587 -1.36098,2.43185 -1.85447,3.23381 -0.22554,0.36647 -0.41006,0.72685 -0.41006,0.80085 0,0.10478 0.24437,0.13815 1.10443,0.15093 0.60743,0.009 1.12406,0.036 1.14807,0.06 0.024,0.024 -0.0368,0.13253 -0.1351,0.24117 -0.16312,0.18024 -0.30237,0.19753 -1.59113,0.19753 -0.77682,0 -1.41238,-0.0343 -1.41238,-0.0762 z m 6.5715,0.002 c -0.0202,-0.0407 -0.034,-0.14031 -0.0304,-0.22153 0.006,-0.1238 0.26522,-0.15206 1.60632,-0.17474 0.87996,-0.0148 1.59994,-6.8e-4 1.59994,0.0312 0,0.032 -0.0458,0.14383 -0.10188,0.24856 -0.0937,0.17522 -0.21932,0.19046 -1.56952,0.19046 -0.80717,0 -1.48416,-0.0332 -1.50441,-0.0739 z m 6.62187,-2.28915 v -2.36298 h 1.31898 1.31899 l 0.30557,0.34802 c 0.2678,0.305 0.30556,0.41971 0.30556,0.9278 0,0.47643 -0.0444,0.63247 -0.24879,0.87545 -0.13685,0.16264 -0.38053,0.32463 -0.54152,0.35998 -0.161,0.0353 -0.29272,0.1142 -0.29272,0.17526 0,0.061 0.24369,0.51931 0.54152,1.0184 0.29783,0.49909 0.54151,0.93301 0.54151,0.96425 0,0.0312 -0.12184,0.0565 -0.27074,0.0564 -0.24171,-4.3e-4 -0.33429,-0.11397 -0.86267,-1.05843 l -0.5919,-1.05794 h -0.49114 -0.49113 l -0.0279,1.05843 c -0.0278,1.05192 -0.0293,1.05843 -0.27077,1.05843 h -0.24281 z m 2.52674,-0.44075 c 0.11419,-0.0799 0.23676,-0.26166 0.27242,-0.40376 0.0835,-0.33294 -0.1049,-0.90413 -0.31919,-0.96744 -0.15411,-0.0455 -1.58645,-0.10048 -1.86461,-0.0715 -0.13144,0.0137 -0.1836,1.39632 -0.0574,1.5225 0.1356,0.1356 1.75498,0.07 1.9688,-0.0797 z m -9.12343,0.39153 v -0.24615 h 1.52029 c 1.53295,0 1.77252,0.0547 1.52834,0.34892 -0.0944,0.11373 -0.42145,0.14336 -1.5838,0.14336 h -1.46483 z m 0.0739,-1.87777 c -0.0407,-0.0412 -0.0739,-0.15622 -0.0739,-0.25549 0,-0.16752 0.11339,-0.1805 1.57533,-0.1805 0.86643,0 1.57465,0.0332 1.57383,0.0739 -0.007,0.31615 -0.20571,0.36633 -1.5938,0.40149 -0.77422,0.0196 -1.4409,0.002 -1.48151,-0.0394 z m 1.74761,-7.81791 c -0.10827,-0.0452 -0.29275,-0.0603 -0.4099,-0.0338 -0.26102,0.0593 -0.6239,-0.27361 -0.6239,-0.57239 0,-0.11548 0.094,-0.36202 0.20891,-0.54793 0.1776,-0.28737 0.19897,-0.42592 0.14256,-0.92454 -0.0365,-0.32258 -0.13051,-0.76833 -0.20892,-0.99055 -0.18146,-0.51432 -0.18302,-1.3718 -0.003,-1.802 l 0.13927,-0.33335 -0.5085,-0.0696 c -0.65063,-0.089 -0.86829,-0.17381 -1.17052,-0.45612 -0.61037,-0.57016 -0.73774,-1.40004 -0.32343,-2.10703 0.31847,-0.5434 0.71739,-0.78021 1.71631,-1.0188 1.19642,-0.28576 1.59519,-0.60925 1.35212,-1.09689 -0.2015,-0.40424 -0.59832,-0.52097 -1.73803,-0.51124 -1.02199,0.009 -1.33175,0.0625 -3.84021,0.6662 -2.52876,0.60863 -2.87603,0.66343 -4.28292,0.67593 -1.21742,0.0104 -1.44578,-0.014 -1.95521,-0.21191 -1.41464,-0.54972 -2.40034,-1.6968 -2.70929,-3.15288 -0.34356,-1.61917 0.13213,-3.12704 1.41618,-4.48918 0.60286,-0.63951 0.63919,-0.70479 0.63919,-1.14856 0,-0.5387 0.22361,-1.48403 0.50817,-2.14832 0.30745,-0.71773 0.81132,-1.41301 1.45776,-2.01149 l 0.59673,-0.55246 -0.0975,-0.42238 c -0.19767,-0.85691 -0.10421,-1.70298 0.39809,-3.60364 0.24071,-0.91086 0.18643,-1.13232 -0.22759,-0.92861 -0.12293,0.0605 -0.31527,0.13537 -0.42742,0.16643 -0.28853,0.0799 -0.83472,0.63656 -0.99215,1.01117 -0.17641,0.41981 -0.17014,1.22117 0.0116,1.46121 0.17081,0.22584 0.19101,0.57202 0.0489,0.83757 -0.14983,0.27997 -0.69643,0.25159 -1.06089,-0.055 -0.4626,-0.38925 -0.70789,-1.01987 -0.70789,-1.81995 0,-1.52804 0.92066,-2.76326 2.50001,-3.35416 0.3037,-0.11362 0.55218,-0.25171 0.55218,-0.30682 0,-0.14282 -0.38629,-0.45469 -0.77506,-0.6257 -0.95603,-0.42056 -1.85776,0.12951 -2.56177,1.56276 -0.41298,0.84071 -0.61111,1.41792 -1.35683,3.95252 -0.0797,0.27075 -0.18289,0.5809 -0.22941,0.6892 -0.0465,0.10827 -0.1373,0.37414 -0.20177,0.59074 -0.15431,0.51847 -0.93402,2.07959 -1.24387,2.4904 -0.42848,0.56815 -1.03148,1.08786 -1.59006,1.37048 -0.47477,0.24021 -0.65353,0.27436 -1.43617,0.27436 -0.77201,0 -0.96776,-0.0362 -1.43542,-0.26598 -1.00886,-0.49552 -1.65094,-1.39294 -1.7459,-2.44021 l -0.0537,-0.59215 h -0.5623 c -0.47359,0 -0.62935,-0.0486 -0.98724,-0.30781 -0.23371,-0.16931 -0.58373,-0.35116 -0.77782,-0.40412 -0.40501,-0.11048 -1.07597,-0.76191 -1.40891,-1.36782 -0.12315,-0.22411 -0.28516,-0.51961 -0.35998,-0.65665 -0.19469,-0.35645 -0.60499,-0.68461 -0.94053,-0.75221 -0.59572,-0.12003 -0.82698,-0.6073 -0.47335,-0.99727 0.0951,-0.10502 0.2513,-0.31271 0.34688,-0.46163 0.29786,-0.46408 1.00186,-0.28129 1.2044,0.31274 0.0761,0.22329 0.50533,0.51077 0.92031,0.61641 0.19706,0.0501 0.51337,0.13117 0.7029,0.18002 0.77437,0.19951 1.67378,0.7889 1.67378,1.09683 0,0.19005 0.19072,0.0607 0.37765,-0.25615 0.31145,-0.52786 0.91531,-0.8582 1.59148,-0.87062 0.67114,-0.0124 0.96292,0.14652 1.35401,0.73727 0.35059,0.52955 0.35718,1.19173 0.0236,2.36968 -0.22529,0.7956 -0.23266,0.88428 -0.0941,1.13225 0.20688,0.37025 0.60487,0.40326 1.02238,0.0848 0.57941,-0.44194 1.36464,-2.23855 2.0711,-4.73865 1.2807,-4.53242 2.48808,-6.17291 4.82883,-6.561 1.50812,-0.25003 3.27138,0.50516 4.26838,1.82812 0.39437,0.5233 0.83242,1.52139 0.943,2.14857 0.0524,0.29736 0.16511,0.4433 0.57753,0.748 0.80129,0.59198 1.76208,1.68825 2.11627,2.41467 0.32731,0.67129 0.61143,1.6017 0.61143,2.00222 0,0.14361 0.0588,0.22546 0.16198,0.22546 0.0891,0 0.48598,0.15585 0.88201,0.34634 0.56253,0.27056 0.96615,0.5829 1.84484,1.42764 0.61865,0.59471 1.17113,1.08129 1.22776,1.08129 0.19452,0 0.34588,-0.99288 0.2217,-1.45407 -0.20409,-0.75791 -0.94044,-1.4012 -1.6039,-1.4012 -0.711,0 -1.01296,-0.51903 -0.58235,-1.00097 0.23165,-0.25928 0.35059,-0.30496 0.91092,-0.34994 0.77711,-0.0623 1.27669,0.12688 1.97564,0.74842 0.86055,0.76526 1.22962,1.75629 1.13698,3.05311 -0.0293,0.41209 -0.0843,0.8268 -0.12212,0.92157 -0.0964,0.2422 0.19991,0.22593 0.69237,-0.038 0.84466,-0.45267 1.09971,-1.14583 0.78841,-2.14272 -0.26275,-0.84144 -0.93936,-1.73553 -2.80158,-3.70215 -2.42759,-2.5637 -3.27278,-4.03106 -3.2802,-5.69488 -0.003,-0.7039 0.0336,-0.87694 0.29661,-1.39771 0.34986,-0.69273 1.01681,-1.34653 1.67532,-1.6423 0.34172,-0.15347 0.67314,-0.21056 1.25236,-0.2157 0.67914,-0.006 0.85229,0.0293 1.25661,0.2565 l 0.46895,0.26349 0.13428,-0.31377 c 0.1705,-0.39837 0.59989,-0.803 1.053,-0.99228 0.19412,-0.0811 0.49232,-0.27763 0.66269,-0.43677 0.36584,-0.34174 1.18546,-0.5198 2.18425,-0.47451 0.75155,0.034 1.18698,-0.1113 1.57387,-0.52548 0.15256,-0.16332 0.34226,-0.29695 0.42152,-0.29695 0.22035,0 0.66298,0.38663 0.66298,0.57908 0,0.094 0.0651,0.25695 0.14455,0.36207 0.20573,0.27198 0.18442,0.46984 -0.077,0.71547 -0.14734,0.13842 -0.35385,0.21409 -0.58434,0.21409 -0.54337,0 -0.79178,0.13335 -1.46942,0.78888 -0.71788,0.69447 -1.48797,1.17801 -1.87821,1.17935 -0.32338,0.002 -0.32374,0.003 -0.0738,0.49321 0.58701,1.15063 -0.18159,2.55991 -1.39613,2.55991 -0.69586,0 -1.02359,-0.17741 -1.86301,-1.00861 -0.83764,-0.8294 -1.07156,-0.95019 -1.41034,-0.72823 -0.77358,0.50688 -0.022,1.98239 2.21521,4.34889 1.68863,1.78621 1.83281,1.94491 2.33431,2.5698 1.475,1.83789 1.95138,3.08798 1.71203,4.49254 -0.32808,1.92524 -1.73666,3.3793 -3.61045,3.727 -0.72834,0.13516 -1.96286,0.0517 -2.60418,-0.17609 -0.47893,-0.17011 -0.48193,-0.16985 -1.0057,0.0865 -0.91952,0.45017 -1.69449,0.60839 -2.9868,0.6097 -1.04696,0.002 -1.24926,-0.0274 -1.7766,-0.24993 l -0.59512,-0.25114 -0.41178,0.36544 c -0.35768,0.3174 -1.09831,0.74056 -1.74557,0.9973 -0.10828,0.043 -0.66213,0.1973 -1.23072,0.34296 -0.56859,0.14567 -1.065,0.31243 -1.10312,0.37058 -0.0381,0.058 0.0275,0.20887 0.14601,0.33492 0.91179,0.97058 2.36858,0.87784 3.04921,-0.19407 0.20352,-0.32052 0.45821,-0.41289 0.79028,-0.28663 0.59118,0.22477 0.40367,1.25811 -0.36837,2.03008 -0.63315,0.63307 -1.34822,0.87422 -2.43033,0.81959 -0.81479,-0.0412 -1.71558,-0.41516 -2.34005,-0.97159 -0.18506,-0.16488 -0.3833,-0.28417 -0.44053,-0.26509 -0.16354,0.0545 -0.25292,0.67071 -0.15886,1.09517 0.12515,0.56471 0.39482,0.86647 0.9942,1.11247 0.91191,0.37428 1.98038,0.30205 4.51993,-0.30552 2.49373,-0.59663 3.06639,-0.68564 4.4306,-0.6886 1.02494,-0.002 1.44186,0.037 1.82146,0.17107 0.64429,0.22764 1.2175,0.56875 1.53885,0.91575 0.28501,0.30776 0.80905,1.11643 0.72347,1.11643 -0.0297,0 -0.0104,0.0808 0.0422,0.17961 0.1636,0.30565 0.20699,1.02381 0.0994,1.64488 -0.13192,0.76168 -0.54882,1.42852 -1.17378,1.87751 l -0.49186,0.35338 0.19319,0.2713 c 0.257,0.36092 0.39458,1.0105 0.30147,1.42333 -0.0415,0.18391 -0.0374,0.39427 0.009,0.46746 0.23508,0.37097 -0.002,1.43695 -0.4756,2.14059 -0.12359,0.18355 -0.22473,0.37944 -0.22473,0.4353 0,0.0559 -0.0719,0.18109 -0.15989,0.27825 -0.17005,0.18792 -0.2145,0.82898 -0.0891,1.28522 0.058,0.21096 0.0215,0.31619 -0.17921,0.51689 -0.27155,0.27156 -0.3069,0.28067 -0.60558,0.15601 z m -0.003,-0.79489 c 0.14154,0.22902 0.20051,0.07 0.21321,-0.57505 0.0104,-0.51194 0.0642,-0.75253 0.22154,-0.98421 0.50426,-0.74273 0.57844,-0.87336 0.7449,-1.31159 0.13,-0.34232 0.15501,-0.56103 0.0957,-0.83691 -0.0442,-0.2054 -0.0673,-0.64634 -0.0515,-0.97986 0.0272,-0.57253 0.009,-0.62723 -0.31272,-0.97911 -0.31755,-0.34649 -0.38746,-0.37564 -0.99411,-0.41426 -0.72144,-0.0458 -0.8534,-0.17189 -0.28334,-0.27042 1.70746,-0.29509 2.48126,-0.90016 2.77607,-2.17075 0.097,-0.41804 0.0898,-0.60615 -0.0428,-1.11782 -0.28636,-1.10508 -0.95334,-1.79246 -2.06424,-2.12737 -0.92272,-0.27819 -3.15172,-0.16169 -4.77967,0.2498 -0.18952,0.0478 -0.65474,0.15889 -1.0338,0.24664 -0.37906,0.0877 -0.84428,0.19849 -1.03381,0.24609 -0.18953,0.0477 -0.85689,0.15911 -1.48303,0.24778 -1.03813,0.14703 -1.19679,0.14771 -1.80076,0.008 -0.83321,-0.19324 -1.13783,-0.35086 -1.52066,-0.7869 -0.32316,-0.36805 -0.51082,-0.88503 -0.51173,-1.40968 -5.9e-4,-0.34791 0.28502,-1.17497 0.54036,-1.56466 l 0.16084,-0.24547 0.27888,0.38496 c 0.35385,0.48848 1.01034,1.01227 1.57643,1.25779 0.68653,0.29776 1.86843,0.25925 2.52951,-0.0825 0.58674,-0.30327 0.90728,-0.7011 0.9888,-1.22718 l 0.0574,-0.37015 -0.40317,0.45267 c -0.74355,0.83489 -2.08021,1.0147 -3.06028,0.41166 -0.43029,-0.26476 -1.09395,-1.08716 -1.09395,-1.35563 0,-0.13715 0.76612,-0.49551 1.23072,-0.5757 1.71213,-0.2955 3.13339,-0.99418 3.71258,-1.82512 l 0.16295,-0.23375 0.32677,0.19914 c 0.62653,0.38182 1.25386,0.52532 2.2906,0.52395 1.13093,-0.002 1.88384,-0.16916 2.78482,-0.62016 0.60155,-0.30112 0.62061,-0.304 0.98459,-0.14895 1.27022,0.54114 2.80075,0.44213 3.99631,-0.2585 0.512,-0.30006 1.1657,-0.99148 1.42511,-1.50733 1.03093,-2.05011 0.42358,-3.72668 -2.45843,-6.78656 -1.95374,-2.07433 -2.46327,-2.65529 -2.88772,-3.29254 -0.49436,-0.74221 -0.83638,-1.55014 -0.83638,-1.97571 0,-0.85917 0.92619,-1.44449 1.64981,-1.04259 0.12217,0.0678 0.56814,0.45857 0.991,0.86826 0.8412,0.81498 1.22437,0.97646 1.83709,0.77426 0.7138,-0.23558 0.92689,-1.26758 0.41652,-2.01727 -0.48158,-0.70741 -0.30091,-1.03557 0.57008,-1.03557 0.52757,0 0.87356,-0.2173 1.71292,-1.07579 0.42229,-0.43191 0.66478,-0.58847 1.18013,-0.76189 0.44137,-0.14853 0.59598,-0.23848 0.4839,-0.28149 -0.091,-0.0348 -0.14072,-0.12573 -0.11118,-0.20275 0.0752,-0.19569 -0.005,-0.17558 -0.41993,0.10664 -0.1995,0.13539 -0.44254,0.24615 -0.5401,0.24615 -0.0976,0 -0.20482,0.0444 -0.23837,0.0987 -0.0361,0.0584 -0.1288,0.0647 -0.22735,0.0153 -0.18687,-0.0936 -1.56668,-0.0669 -1.91148,0.0371 -0.1232,0.0372 -0.35691,0.19142 -0.51938,0.34284 -0.16245,0.15145 -0.51088,0.37536 -0.77431,0.49757 -0.85556,0.39698 -1.04097,1.05167 -0.55945,1.97549 0.11582,0.2223 0.19195,0.4229 0.16906,0.44579 -0.0229,0.0229 -0.31896,-0.24725 -0.65795,-0.60028 -0.77339,-0.80541 -1.23808,-1.04031 -2.05802,-1.04031 -0.97366,0 -1.74033,0.43947 -2.29322,1.31447 -0.30706,0.48597 -0.32025,0.54788 -0.31761,1.49159 0.002,0.96279 0.0118,1.00201 0.41519,1.77224 0.56138,1.0721 1.21003,1.90961 2.78296,3.59327 1.51567,1.62236 2.26374,2.5634 2.61477,3.28924 0.26454,0.54698 0.39659,1.41721 0.29622,1.95218 -0.0854,0.4551 -0.6443,1.08747 -1.1864,1.34229 -0.7904,0.37152 -1.9547,0.36895 -1.66442,-0.003 0.19688,-0.25276 0.42713,-1.15797 0.42607,-1.67518 -0.003,-1.70434 -1.34688,-3.19617 -2.68191,-2.97821 -0.47948,0.0783 -0.4672,0.17936 0.0402,0.3314 0.54895,0.16448 1.0885,0.51573 1.31853,0.85837 0.42903,0.63913 0.47174,0.77913 0.47624,1.5608 0.003,0.70106 -0.0263,0.83638 -0.27622,1.23073 -0.15441,0.24368 -0.29554,0.46014 -0.31364,0.48101 -0.077,0.0889 -0.64231,-0.38278 -1.51932,-1.26756 -0.51632,-0.52086 -1.1366,-1.08315 -1.37841,-1.24951 -0.50342,-0.34632 -1.24658,-0.6223 -1.67572,-0.6223 -0.25703,0 -0.28672,-0.0282 -0.23722,-0.22546 0.0904,-0.35991 -0.1099,-1.352 -0.40199,-1.9915 -0.47812,-1.04688 -1.60996,-2.29175 -2.50405,-2.75409 -0.21873,-0.11316 -0.28064,-0.24235 -0.38344,-0.80026 -0.29927,-1.62417 -1.39265,-2.90889 -2.90989,-3.41905 -0.63863,-0.21474 -1.74337,-0.21108 -2.37006,0.008 -0.27077,0.0946 -0.51445,0.19683 -0.54153,0.22721 -0.027,0.0303 -0.21362,0.15512 -0.41454,0.27719 -0.72129,0.43823 -1.49772,1.67355 -2.08174,3.31214 -0.24408,0.6848 -0.47036,1.41655 -1.05037,3.39679 -0.35052,1.19676 -0.33442,1.1548 -0.88533,2.3079 -0.47386,0.9918 -1.15517,1.76297 -1.65443,1.87262 -0.37977,0.0834 -1.02558,-0.24449 -1.18933,-0.60386 -0.16179,-0.35511 -0.13165,-1.01702 0.0737,-1.61669 0.29709,-0.86795 0.33164,-1.21321 0.16318,-1.63104 -0.22022,-0.54625 -0.66729,-0.80448 -1.22256,-0.70611 -0.49232,0.0872 -0.79071,0.32949 -1.14017,0.9258 -0.13308,0.22709 -0.29853,0.4341 -0.36766,0.46003 -0.23914,0.0897 -0.51678,-0.0935 -0.71465,-0.47147 -0.13737,-0.26243 -0.33544,-0.44495 -0.64176,-0.59142 -0.56866,-0.27189 -1.37203,-0.53755 -1.62455,-0.53723 -0.10828,1.4e-4 -0.35199,-0.13245 -0.54152,-0.29464 -0.18953,-0.1622 -0.37266,-0.29502 -0.40697,-0.29515 -0.0343,-1.3e-4 -0.0943,-0.0999 -0.13351,-0.22177 -0.0565,-0.17622 -0.0802,-0.18836 -0.11523,-0.0593 -0.0243,0.0892 -0.14139,0.1885 -0.26034,0.22065 -0.21013,0.0569 -0.20851,0.0625 0.0573,0.2026 0.55271,0.29131 1.05155,0.69895 1.05359,0.861 0.002,0.0915 0.047,0.19425 0.10201,0.2282 0.0549,0.034 0.19393,0.24612 0.30891,0.47151 0.38677,0.75811 0.75212,1.12362 1.24797,1.24847 0.25161,0.0633 0.48022,0.14668 0.50802,0.18514 0.0278,0.0385 0.17836,0.16812 0.33457,0.28811 0.66415,0.51005 1.71269,0.0458 2.06509,-0.91415 0.0199,-0.0541 0.0671,-0.07 0.10466,-0.0351 0.0376,0.0348 -0.025,0.34492 -0.13945,0.6892 -0.44641,1.34336 -0.32693,2.16657 0.42855,2.9528 0.56154,0.5844 1.13253,0.81365 2.03232,0.81599 0.63412,0.002 0.81312,-0.039 1.26714,-0.28796 1.23097,-0.67495 2.10815,-2.18392 3.00461,-5.16865 0.98291,-3.27268 1.32287,-4.03623 2.17015,-4.87419 0.9636,-0.95301 1.72206,-1.03908 2.79413,-0.31712 0.4231,0.28494 1.00359,0.9807 1.00359,1.20286 0,0.0645 -0.25475,0.17094 -0.56613,0.23656 -1.1459,0.24149 -2.15714,0.94499 -2.59659,1.80637 -0.24475,0.47976 -0.34641,1.50519 -0.19477,1.96468 0.11048,0.3348 0.55175,0.85024 0.64663,0.75537 0.0257,-0.0257 -0.026,-0.27436 -0.11501,-0.55258 -0.39333,-1.22998 0.50101,-2.67201 1.8413,-2.96889 0.24369,-0.054 0.53168,-0.0816 0.63997,-0.0616 0.10828,0.0202 0.27447,0.04 0.36923,0.0442 0.28082,0.0124 0.20832,0.49191 -0.3807,2.51822 -0.25371,0.87281 -0.2444,2.24503 0.0188,2.77143 l 0.20423,0.40846 -0.3027,0.14593 c -0.85433,0.41187 -1.80403,1.64415 -2.21821,2.87825 -0.10886,0.32424 -0.22751,0.95748 -0.26376,1.40721 l -0.0659,0.81769 -0.58437,0.56072 c -0.9536,0.91502 -1.54969,2.17217 -1.54969,3.26831 0,1.45588 0.97605,3.0142 2.2226,3.54854 0.49902,0.21389 1.58407,0.3952 2.05819,0.34391 0.16246,-0.0175 0.64983,-0.0608 1.08304,-0.0963 0.6445,-0.0526 2.644,-0.47094 4.47983,-0.93711 1.0861,-0.27578 1.64023,-0.34828 2.65837,-0.34778 0.90273,4.5e-4 1.19819,0.0365 1.45749,0.17754 0.57585,0.31336 0.70858,0.51195 0.70858,1.0602 0,0.81575 -0.24478,0.98541 -2.18694,1.51592 -0.96307,0.26306 -1.4122,1.13144 -0.94344,1.82408 0.29823,0.44066 0.67956,0.6214 1.35815,0.64374 0.29783,0.009 0.59689,0.024 0.66459,0.0316 0.1876,0.0211 0.15128,0.70552 -0.0492,0.92747 -0.1263,0.13982 -0.16715,0.33452 -0.15303,0.72945 0.0232,0.64882 0.21059,1.60884 0.3468,1.77679 0.0982,0.121 -0.0129,1.01885 -0.1797,1.45377 -0.0656,0.17113 -0.055,0.18017 0.0818,0.0691 0.10571,-0.086 0.17826,-0.094 0.22115,-0.0246 z m -10.38436,-17.16409 c 0,-0.0512 0.27868,-0.74537 0.41985,-1.04584 0.48901,-1.04081 1.74907,-2.06761 2.5373,-2.06761 0.4309,0 0.78425,0.38266 0.78425,0.84929 0,0.30382 -0.0734,0.43625 -0.43212,0.78002 -0.41898,0.40144 -1.58346,1.03656 -2.17082,1.18398 -0.15864,0.0399 -0.40216,0.13173 -0.54114,0.20427 -0.23502,0.12264 -0.59732,0.1808 -0.59732,0.0958 z m 1.74494,-1.11444 c 1.125,-0.52512 1.5924,-0.96533 1.44177,-1.35787 -0.16817,-0.43825 -1.47079,0.31257 -1.98253,1.14272 -0.35862,0.58175 -0.29709,0.60624 0.54076,0.21515 z m 6.04025,-0.57623 c -0.86726,-0.15414 -1.48698,-0.45129 -1.8839,-0.90336 -0.39172,-0.44615 -0.38331,-0.81656 0.0264,-1.16126 0.27054,-0.22766 0.37577,-0.25727 0.73782,-0.20764 0.49733,0.0682 1.24057,0.42753 1.85637,0.8976 0.85824,0.65509 1.41689,1.16111 1.36845,1.23949 -0.0269,0.0437 -0.25852,0.10653 -0.51446,0.13971 -0.25596,0.0331 -0.55399,0.0749 -0.6623,0.0928 -0.10828,0.0179 -0.52607,-0.0259 -0.92835,-0.0974 z m 0.85496,-0.55988 c -0.0718,-0.21525 -1.47409,-1.09017 -1.86065,-1.16086 -0.45111,-0.0825 -0.74466,0.1352 -0.5445,0.40381 0.15834,0.21252 0.61276,0.50193 1.09315,0.69622 0.4921,0.19901 1.37166,0.2398 1.312,0.0608 z m -5.08539,-2.84022 c -0.1708,-0.10386 -0.36152,-0.31067 -0.42382,-0.45957 -0.24088,-0.57575 -0.0758,-3.3162 0.22728,-3.77274 0.20733,-0.31233 1.11436,1.11073 1.39643,2.19088 0.20531,0.78622 0.0443,1.7031 -0.35785,2.03678 -0.24163,0.20055 -0.51742,0.20208 -0.84204,0.005 z m 0.66314,-0.63645 c 0.0628,-0.13793 0.11083,-0.45915 0.10664,-0.71382 -0.0116,-0.67838 -0.44833,-1.78869 -0.65415,-1.66148 -0.14225,0.0879 -0.22061,1.42691 -0.1162,1.98577 0.12472,0.66761 0.45003,0.85853 0.66373,0.38953 z m 7.99089,23.13521 c 0,-0.0308 0.0665,-0.12271 0.14768,-0.20394 0.1603,-0.1603 0.18037,-0.13645 0.088,0.10444 -0.0561,0.14636 -0.23562,0.22212 -0.23562,0.0994 z"
       id="path8" /></g><style
     type="text/css"
     id="style2">&#10;	.st0{fill:#231F20;}&#10;</style></svg>
