<?xml version="1.0" encoding="UTF-8" standalone="no"?>
<!-- Created with Inkscape (http://www.inkscape.org/) -->

<svg
   width="100.44012mm"
   height="145.74574mm"
   viewBox="0 0 100.44012 145.74574"
   version="1.1"
   id="svg1"
   xml:space="preserve"
   inkscape:version="1.3 (0e150ed6c4, 2023-07-21)"
   sodipodi:docname="about us baru.svg"
   xmlns:inkscape="http://www.inkscape.org/namespaces/inkscape"
   xmlns:sodipodi="http://sodipodi.sourceforge.net/DTD/sodipodi-0.dtd"
   xmlns="http://www.w3.org/2000/svg"
   xmlns:svg="http://www.w3.org/2000/svg"><sodipodi:namedview
     id="namedview1"
     pagecolor="#ffffff"
     bordercolor="#000000"
     borderopacity="0.25"
     inkscape:showpageshadow="2"
     inkscape:pageopacity="0.0"
     inkscape:pagecheckerboard="0"
     inkscape:deskcolor="#d1d1d1"
     inkscape:document-units="mm"
     showguides="false"
     inkscape:zoom="0.48945419"
     inkscape:cx="1750.9299"
     inkscape:cy="1623.2367"
     inkscape:window-width="1920"
     inkscape:window-height="991"
     inkscape:window-x="-9"
     inkscape:window-y="-9"
     inkscape:window-maximized="1"
     inkscape:current-layer="layer1" /><defs
     id="defs1"><rect
       x="1814.2657"
       y="-247.21414"
       width="386.14441"
       height="175.70592"
       id="rect6" /></defs><g
     inkscape:label="Layer 1"
     inkscape:groupmode="layer"
     id="layer1"
     transform="translate(-624.03462,-25.440723)"><g
       id="g2"
       transform="matrix(3.1955703,0,0,3.1955703,575.87686,6.8440426)"
       inkscape:export-filename="logo skull samurai hitam putih.png"
       inkscape:export-xdpi="96"
       inkscape:export-ydpi="96"
       style="opacity:0.276081;fill:#951723;fill-opacity:1"><path
         id="path1"
         style="fill:#951723;fill-opacity:1;fill-rule:nonzero;stroke:none;stroke-width:0.00217012"
         d="m 38.294886,19.918009 c -0.01714,-0.109416 -0.0072,-0.224976 0.06966,-0.314494 0.20421,-0.238128 1.932925,-1.347056 1.932925,-1.347056 -1.793819,0.967439 -3.025362,1.994641 -3.338943,2.266796 -0.0191,-0.02746 -0.03841,-0.05475 -0.05795,-0.0819 4.177047,-3.555332 8.559388,-4.282971 9.272489,-4.380409 l 0.08681,0.607198 c -3.336562,0.270614 -6.350427,2.089175 -7.964993,3.249863 z m 4.637762,3.945235 -3.008871,2.780683 C 39.675301,26.194736 38.742365,24.5186 37.578744,22.552709 l 0.98068,1.504868 c 0,0 -0.789275,-1.432646 -0.782111,-1.514872 0.0035,-0.04021 0.04058,-0.08026 0.07726,-0.11074 l 1.939436,3.337861 2.579835,-2.184486 -0.04948,-0.07797 c -0.07617,-0.119248 -1.487398,-2.328148 -2.305101,-3.554505 0.03363,-0.02702 0.07009,-0.05343 0.09331,-0.0612 0.05295,-0.01763 0.955507,1.22868 0.955507,1.22868 l -1.289922,-1.931604 c 0.01737,-0.01064 0.03451,-0.02104 0.05208,-0.03168 0.774951,1.00789 2.771898,4.179651 3.102405,4.706187 z m 1.172949,3.394308 c -0.950509,1.431303 -3.318114,2.895199 -3.86715,3.222714 -0.224827,-0.754247 -0.536675,-1.777914 -0.877167,-2.828295 0.406465,-0.316297 2.795983,-2.170685 2.967857,-2.202847 0.187715,-0.03533 1.162533,1.473773 1.162533,1.473773 -0.307505,-0.739534 -1.027766,-1.880776 -1.212446,-2.168861 l 0.241752,-0.223155 c 0.468749,0.632136 1.132587,1.856668 1.584621,2.726671 z m 0.476777,0.937513 c -0.966355,1.778978 -3.466986,3.097565 -4.02427,3.374732 -0.04579,-0.159591 -0.135632,-0.469225 -0.257594,-0.880332 0.458114,-0.268507 2.860654,-1.720122 3.915549,-3.218765 0.180552,0.351015 0.314231,0.619094 0.366315,0.724365 z m -4.718924,3.602724 c -0.393445,-1.642758 -0.863711,-3.124711 -1.321386,-4.381254 0.326382,0.736647 0.607631,1.402309 0.760192,1.83147 0,0 -0.599607,-1.990453 -1.118483,-3.224689 0,0 -0.074,-0.113475 0.07487,-0.196614 0.242185,0.463908 0.497606,0.955875 0.766703,1.47757 0.636932,1.934033 1.204202,3.887795 1.335709,4.344407 z m -1.449209,-0.211303 -0.134329,0.951597 -0.824863,-0.658373 -0.0054,-0.342531 0.909714,-0.45618 0.39583,-1.354829 0.281249,-0.163539 c 0.126085,0.414297 0.249564,0.843766 0.368486,1.287337 z m 0.419052,1.393216 -0.361542,-0.28854 0.139322,-0.987728 0.427729,-0.317817 c -0.08355,0.618486 -0.170571,1.276879 -0.205509,1.594085 z m 0.149087,0.389407 -0.693137,1.065397 -0.331594,-0.08572 -1.612181,1.929781 -0.844613,-1.676899 0.324,-0.436886 0.565098,0.591489 1.259972,-1.758233 -0.526689,-0.583436 0.246528,-0.332527 z m -2.976105,3.315423 -0.88085,0.05672 c 0.051,-0.07781 0.100258,-0.159135 0.145616,-0.245593 l 0.01649,-0.03154 -0.0059,-0.0352 c -0.0013,-0.0083 -0.143879,-0.78823 -0.973085,-0.744091 v -0.346789 l 1.02495,-0.598909 0.86414,1.716174 z m -1.326594,0.01091 c -0.01975,0.01716 -0.0434,0.03429 -0.06944,0.03125 -0.02235,-0.0027 -0.03993,-0.01955 -0.05599,-0.03581 -0.05642,-0.05749 -0.112845,-0.114995 -0.169487,-0.17248 0.108073,0.14503 0.202039,0.300213 0.282332,0.462236 -0.05273,0.05614 -0.106769,0.109372 -0.162323,0.159439 -0.07834,-0.341471 -0.256423,-0.662169 -0.505682,-0.908543 0.130617,-0.145921 0.221201,-0.269574 0.264275,-0.33177 0.396136,-0.03973 0.60208,0.143206 0.707116,0.311437 -0.04275,0.186606 -0.145617,0.359241 -0.290799,0.484238 z m -0.783284,0.679162 c -0.02867,0.01443 -0.0622,0.0282 -0.09147,0.01503 -0.02337,-0.01047 -0.03641,-0.0352 -0.04763,-0.05824 -0.03612,-0.07402 -0.07237,-0.147915 -0.108464,-0.221784 0.05764,0.167619 0.09661,0.341619 0.118316,0.517595 -0.04566,0.02169 -0.09101,0.04173 -0.136067,0.06098 -0.0031,-0.316905 -0.103169,-0.630007 -0.283376,-0.890769 0.219661,-0.142622 0.406856,-0.309178 0.555358,-0.462995 0.202538,0.200997 0.353315,0.455399 0.435479,0.729074 -0.131771,0.123781 -0.280578,0.229815 -0.442144,0.311129 z m -1.022623,0.357853 c -0.05277,0.0097 -0.110437,0.01699 -0.157898,-0.0082 -0.08055,-0.04293 -0.09088,-0.152299 -0.09104,-0.243641 -0.0033,0.161567 -0.0067,0.32313 -0.01,0.484697 -0.0355,0.0045 -0.0666,0.0082 -0.09345,0.01091 v -0.581769 l 0.177649,-0.305681 c 0.189775,-0.04855 0.36664,-0.125 0.528206,-0.217686 0.13715,0.196005 0.224216,0.424757 0.252274,0.661865 -0.191904,0.09284 -0.395937,0.161111 -0.605743,0.199478 z m -1.486057,1.191765 h -0.602097 -0.6021 l -1.138965,-1.959662 -0.127581,-1.153527 0.147456,-0.469072 0.125608,1.400964 v -0.989228 l 0.199348,0.02564 0.05931,0.83769 0.873954,1.661422 h 0.462973 0.463146 l 0.873798,-1.661422 0.05931,-0.83769 0.199347,-0.02564 v 0.989228 l 0.125759,-1.400964 0.147289,0.469072 -0.127581,1.153527 z m 0.922348,-0.856806 -0.755768,1.643077 v -0.652012 l 0.755768,-1.300374 z m -0.967095,1.878511 h -0.55735 -0.557332 v -0.810236 h 0.557332 0.55735 z M 30.016961,39.71049 29.261348,38.067412 v -0.309157 l 0.755613,1.300222 z m -0.96694,-1.734092 c -0.027,-0.0027 -0.05809,-0.0062 -0.0936,-0.01078 -0.0033,-0.161718 -0.0067,-0.323433 -0.01,-0.485 0,0.09134 -0.01033,0.200714 -0.09103,0.24364 -0.04748,0.02516 -0.104972,0.0179 -0.157925,0.0082 -0.209805,-0.03836 -0.413689,-0.106639 -0.605742,-0.199478 0.02823,-0.236956 0.115145,-0.465728 0.252299,-0.661713 0.16154,0.09269 0.338428,0.168988 0.528207,0.217534 l 0.177795,0.305683 z m -1.24591,-0.348307 c 0.02154,-0.176429 0.06053,-0.350581 0.118314,-0.518504 -0.03611,0.07387 -0.0722,0.147762 -0.108458,0.221783 -0.01122,0.02303 -0.02426,0.04778 -0.04764,0.05825 -0.02916,0.01321 -0.06282,-6.76e-4 -0.09138,-0.01503 -0.161609,-0.08131 -0.31037,-0.187193 -0.44229,-0.31113 0.08222,-0.273522 0.233026,-0.528076 0.435564,-0.729074 0.148476,0.153819 0.335826,0.320375 0.555332,0.462997 -0.180379,0.261065 -0.280487,0.574471 -0.283222,0.891677 -0.0452,-0.01929 -0.09056,-0.03928 -0.13622,-0.06098 z m -0.900099,-0.647149 c 0.08041,-0.162175 0.174502,-0.317358 0.282616,-0.46254 -0.05658,0.05749 -0.113151,0.114992 -0.169727,0.17248 -0.01585,0.01625 -0.03353,0.03324 -0.05597,0.03581 -0.02596,0.0031 -0.04958,-0.01412 -0.06936,-0.03125 -0.144984,-0.124997 -0.247827,-0.297481 -0.290751,-0.483938 0.105272,-0.168227 0.311413,-0.351319 0.706982,-0.311737 0.04321,0.0622 0.133679,0.185849 0.264387,0.331771 -0.249457,0.246525 -0.427471,0.567354 -0.505661,0.908998 -0.05559,-0.05007 -0.109723,-0.103472 -0.162521,-0.159591 z m -0.603834,-0.485285 c 0.04549,0.08646 0.0946,0.167775 0.145699,0.245593 l -0.880851,-0.05672 -0.191427,-0.229231 0.864317,-1.716174 1.024795,0.598909 v 0.346785 c -0.828832,-0.04429 -0.971778,0.735738 -0.973188,0.744091 l -0.006,0.0352 z m -2.686544,-2.146876 -0.331637,0.08572 -0.693071,-1.065397 1.612701,-1.287033 0.246524,0.332375 -0.526775,0.583588 1.259997,1.758233 0.564965,-0.591488 0.324065,0.436886 -0.844501,1.676899 z m -1.081045,-2.963171 0.427622,0.317818 0.1393,0.987728 -0.361434,0.28854 c -0.03496,-0.317207 -0.121854,-0.975599 -0.205488,-1.594086 z m -0.36612,-0.535649 c 0.118856,-0.443571 0.242314,-0.873039 0.368399,-1.287336 l 0.281356,0.163539 0.395784,1.354829 0.909713,0.456179 -0.0053,0.342532 -0.825013,0.658373 -0.134178,-0.951598 z m -0.458785,0.947821 -0.497307,-0.14911 c 0.13138,-0.456612 0.698649,-2.410373 1.335512,-4.344406 0.26914,-0.521696 0.524539,-1.013662 0.766747,-1.47757 0.148742,0.08314 0.07485,0.196614 0.07485,0.196614 -0.518811,1.234236 -1.118501,3.224689 -1.118501,3.224689 0.15258,-0.429162 0.433999,-1.094823 0.760279,-1.83147 -0.457637,1.25639 -0.927942,2.738496 -1.321578,4.381253 z M 21.01309,31.569794 c -0.557199,-0.277016 -3.057373,-1.594998 -4.024206,-3.374733 0.05213,-0.10527 0.185742,-0.373349 0.366383,-0.724364 1.054853,1.498642 3.457586,2.950257 3.915459,3.218764 -0.121893,0.411261 -0.211672,0.720893 -0.257636,0.880333 z m -1.963045,-7.03846 0.241665,0.223304 c -0.185199,0.289148 -0.904897,1.429329 -1.21208,2.168256 0,0 0.974668,-1.509103 1.162556,-1.473773 0.171873,0.03216 2.561197,1.88655 2.96777,2.202847 -0.340341,1.05038 -0.652163,2.074047 -0.877033,2.828295 -0.549148,-0.327515 -2.916924,-1.791412 -3.867305,-3.222866 0.451969,-0.8697 1.115744,-2.093775 1.584427,-2.726063 z m -0.411564,-0.668093 c 0.330554,-0.526536 2.327561,-3.698299 3.102597,-4.706188 0.01745,0.01064 0.0347,0.02104 0.052,0.03168 l -1.289965,1.931605 c 0,0 0.90273,-1.246302 0.955592,-1.228681 0.02331,0.0077 0.05975,0.03418 0.0934,0.0612 -0.817922,1.226204 -2.228847,3.435256 -2.305037,3.554504 l -0.04972,0.07798 2.579989,2.184486 1.939308,-3.337861 c 0.03685,0.0305 0.0738,0.07053 0.07732,0.11074 0.0072,0.08223 -0.782243,1.514872 -0.782243,1.514872 L 23.992574,22.55271 C 22.828957,24.518601 21.896,26.194888 21.64754,26.643927 Z m -3.327076,-7.195098 0.08678,-0.607418 c 0.712667,0.09722 5.092905,0.822912 9.272339,4.380628 -0.0194,0.02716 -0.03856,0.05445 -0.05775,0.0819 -0.313585,-0.272155 -1.545257,-1.299357 -3.339035,-2.266795 0,0 1.728763,1.108928 1.933013,1.347056 0.07673,0.08952 0.08691,0.205098 0.06975,0.314517 -1.614636,-1.160712 -4.628521,-2.979272 -7.965099,-3.249886 z m 0.414622,-1.232629 c 5.020293,0.709629 8.825487,3.922926 9.393278,4.424592 -0.02361,0.02861 -0.04725,0.05758 -0.0709,0.08676 -0.371221,-0.322997 -1.850677,-1.560639 -3.774663,-2.512456 0,0 2.136418,1.338748 2.36582,1.573556 0.145269,0.14887 0.106532,0.301645 0.05859,0.394095 -3.761491,-2.766906 -7.420247,-3.427487 -8.218634,-3.543155 z m 1.794452,-3.08222 c 4.25504,0.538405 7.449936,3.087212 7.71966,3.308131 0.0595,0.154511 0.121721,0.310546 0.187195,0.468092 -0.550474,-0.438145 -1.931408,-1.46396 -3.660386,-2.211784 0,0 2.237069,1.294477 2.677428,2.025372 0.147741,0.245225 -0.798538,1.641696 -0.798538,1.641696 0,0 -2.400393,-0.995432 -3.17801,-1.312921 0,0 3.030179,1.42707 4.934006,3.258239 -0.0484,0.05458 -0.09724,0.110547 -0.146507,0.16814 -0.597564,-0.526878 -4.396402,-3.720428 -9.414631,-4.459571 z m 0.380377,-0.653421 c 0.499455,0.06836 3.677856,0.573998 6.909249,2.715254 0.02352,0.07726 0.04818,0.155382 0.0732,0.233504 -0.372069,-0.257157 -1.438183,-0.960494 -2.676,-1.476981 0,0 1.955235,1.1009 2.060942,1.206587 0.06799,0.06814 0.01376,0.211586 -0.03359,0.305553 -1.33758,-0.865011 -3.724755,-2.145164 -6.598773,-2.528842 z m 6.460948,-2.5611753 c 0.07888,-1.0878808 0.291057,-1.8945148 0.446155,-2.3615248 0.12096,1.533407 0.680528,2.3958128 1.15368,2.8591338 0.434283,0.4251253 0.864011,0.5935283 1.057781,0.6523373 -0.552666,2.466993 -0.05007,4.348702 0.473673,5.49865 0.378965,0.831809 0.813295,1.400595 1.07588,1.701808 -0.34056,-0.07682 -0.908328,-0.215059 -1.529265,-0.408632 -2.803314,-3.984558 -2.322288,-8.1127783 -2.322288,-8.1127783 -0.622476,2.8545773 1.118959,6.8779773 1.573079,7.8575723 -0.134028,-0.04991 -0.267252,-0.101998 -0.39811,-0.156682 -1.479804,-3.248455 -1.649769,-5.886669 -1.530585,-7.5298843 z m 2.949886,5.5518173 c -0.04926,-0.168617 -0.0947,-0.346349 -0.135154,-0.532545 -4.39e-4,-0.03819 4.38e-4,-0.0829 0.0023,-0.135634 0.0062,-0.170136 0.02241,-0.41536 0.0919,-0.69726 0.03437,-0.140625 0.08268,-0.289927 0.149651,-0.438362 0.01547,-0.03776 0.03595,-0.07335 0.05391,-0.110895 0.01992,-0.03603 0.03863,-0.0688 0.06118,-0.105684 l 0.03791,-0.05642 0.0095,-0.01432 0.0048,-0.0072 c 0,3.37e-4 0.0038,-0.0056 0,-2.13e-4 l 0.0024,-0.0031 0.01945,-0.02604 c 0.02591,-0.0345 0.05363,-0.06814 0.08249,-0.100911 0.115473,-0.130424 0.255185,-0.246961 0.41341,-0.308376 0.156853,-0.06336 0.331461,-0.05859 0.483609,0.01585 0.152928,0.07117 0.27808,0.20529 0.335565,0.360456 0.06083,0.157116 0.06189,0.336368 0.01791,0.491966 -0.04417,0.158203 -0.137761,0.295353 -0.253646,0.383027 -0.02851,0.02172 -0.06037,0.04058 -0.08949,0.05534 l -0.0214,0.0104 -0.02868,0.01152 c -0.01153,0.0039 -0.02988,0.01084 -0.04505,0.01432 -0.06357,0.01693 -0.129232,0.01932 -0.190234,0.01148 -0.06098,-0.0085 -0.116948,-0.02776 -0.164125,-0.05425 -0.02428,-0.0128 -0.04551,-0.02908 -0.0625,-0.0408 -0.01032,-0.0093 -0.02064,-0.01868 -0.0308,-0.028 -0.0079,-0.0089 -0.01745,-0.01628 -0.02413,-0.02604 -0.06159,-0.07335 -0.08995,-0.163844 -0.0995,-0.240233 -0.0038,-0.03863 -0.002,-0.07378 6.08e-4,-0.105468 0.0052,-0.0306 0.01094,-0.05837 0.01805,-0.07964 0.0135,-0.04296 0.0296,-0.06727 0.02776,-0.06727 6.42e-4,0.0017 -0.02365,0.0096 -0.06067,0.04579 -0.03624,0.03516 -0.08403,0.09939 -0.104665,0.197914 -0.0214,0.09657 -0.01593,0.228948 0.06204,0.358069 0.0089,0.01628 0.02155,0.03104 0.03292,0.04709 l 0.0021,0.0027 0.0012,0.0014 c 0.0017,0.002 -0.0023,-0.002 0.0039,0.0046 l 0.0039,0.0046 0.0081,0.0089 0.01669,0.01824 c 0.0067,0.0063 0.01319,0.01152 0.01971,0.01736 -0.04958,0.140406 -0.152755,0.467224 -0.208567,0.891917 -0.349345,-0.213539 -0.152626,-0.918827 -0.146008,-1.116961 -0.124412,0.444007 -0.246245,0.888449 -0.298479,1.342437 z m 3.470912,-3.891024 h 0.006 c 0.02322,-6.76e-4 2.374111,-0.04709 3.791201,1.713525 -0.0039,0.303601 -0.02387,0.592878 -0.05577,0.867832 -0.006,-0.03341 -0.01237,-0.06727 -0.01954,-0.101778 -0.0319,-0.151907 -0.07682,-0.31597 -0.147349,-0.48285 -0.0165,-0.0421 -0.03863,-0.0829 -0.05816,-0.125217 -0.02173,-0.04167 -0.04692,-0.08681 -0.07103,-0.127169 l -0.03687,-0.0573 -0.0092,-0.01452 -0.012,-0.0178 -0.02137,-0.02952 c -0.02867,-0.03972 -0.05946,-0.07856 -0.09193,-0.116752 -0.1291,-0.152126 -0.293702,-0.294704 -0.50349,-0.378686 -0.05234,-0.02104 -0.106963,-0.03646 -0.164296,-0.04796 l -0.04612,-0.0067 c -0.01593,-0.0027 -0.0308,-0.0044 -0.04217,-0.0046 l -0.03718,-0.0023 -0.0094,-6.75e-4 h -0.01638 l -0.022,3.37e-4 c -0.11788,0.0023 -0.233916,0.03188 -0.338148,0.08203 -0.209199,0.09982 -0.375757,0.280379 -0.454945,0.495438 -0.07904,0.212671 -0.0801,0.440967 -0.01851,0.644524 0.06144,0.202038 0.18446,0.378902 0.345419,0.495655 0.04067,0.02972 0.08222,0.05382 0.128189,0.07573 l 0.03535,0.01564 0.02897,0.01108 c 0.02731,0.0093 0.04748,0.01608 0.07192,0.02148 0.0936,0.0228 0.187039,0.02452 0.274561,0.01128 0.04581,-0.0074 0.09013,-0.01909 0.13214,-0.0345 0.09891,0.302297 0.345114,1.206154 0.12667,2.137567 0.01593,-0.136066 0.0273,-0.278424 0.03322,-0.427946 l 0.01273,-0.316622 -0.200237,0.245657 c -0.0038,0.0046 -0.210412,0.254557 -0.563275,0.536456 -0.03368,-0.800775 -0.589339,-1.544473 -0.615144,-1.578764 l -0.189925,-0.250865 v 0.314666 c 0,0.49327 -0.202212,1.08159 -0.325996,1.395824 -0.03914,-0.06705 -0.08542,-0.129341 -0.137911,-0.185981 v -2.638866 l -0.67658,-1.73219 -0.09846,-0.22808 -0.09844,0.22808 -0.676597,1.73219 v 2.638866 c -0.05232,0.05664 -0.09876,0.118924 -0.137739,0.185981 -0.123928,-0.31425 -0.326139,-0.90257 -0.326139,-1.39584 v -0.314666 l -0.18993,0.250865 c -0.0258,0.03429 -0.581331,0.777989 -0.61501,1.578764 -0.352993,-0.281899 -0.559611,-0.531896 -0.563258,-0.536456 l -0.200388,-0.245657 0.01273,0.316622 c 0.006,0.149522 0.0173,0.292315 0.03337,0.428381 -0.218595,-0.931632 0.0276,-1.835705 0.12652,-2.138003 0.04201,0.0154 0.08645,0.02712 0.132269,0.0345 0.08754,0.01324 0.180986,0.01152 0.274432,-0.01128 0.02444,-0.0054 0.04475,-0.01216 0.07205,-0.02148 l 0.02899,-0.01108 0.03517,-0.01564 c 0.04599,-0.02192 0.0877,-0.046 0.128192,-0.07573 0.160956,-0.116753 0.284134,-0.293617 0.345415,-0.495655 0.06161,-0.203558 0.0607,-0.431854 -0.01849,-0.644524 C 29.069553,12.22975 28.90297,12.049194 28.693792,11.94937 28.58956,11.89924 28.473503,11.86973 28.355644,11.86734 l -0.02201,-3.37e-4 h -0.01638 l -0.0094,6.75e-4 -0.03717,0.0023 c -0.01137,2.13e-4 -0.02623,0.002 -0.04217,0.0046 l -0.04612,0.0067 c -0.05736,0.01152 -0.111959,0.02692 -0.1643,0.04796 -0.209785,0.08398 -0.374369,0.226559 -0.503511,0.378686 -0.03246,0.03819 -0.06324,0.07704 -0.09184,0.116752 l -0.0214,0.02952 -0.01194,0.0178 -0.0093,0.01452 -0.03689,0.05729 c -0.02411,0.04036 -0.04924,0.0855 -0.07103,0.127169 -0.01955,0.04231 -0.04167,0.08311 -0.05816,0.125217 -0.07059,0.166879 -0.11543,0.330942 -0.147418,0.482849 -0.0072,0.0345 -0.01343,0.06836 -0.01931,0.101563 -0.03212,-0.274738 -0.05195,-0.564015 -0.05592,-0.867616 1.415219,-1.758013 3.767326,-1.713961 3.791153,-1.713525 z m 2.876387,2.720027 0.001,-0.0014 0.0022,-0.0027 c 0.01137,-0.01608 0.02396,-0.0308 0.03291,-0.04709 0.07798,-0.129124 0.08342,-0.261501 0.06219,-0.358072 -0.02079,-0.09852 -0.06858,-0.162759 -0.104838,-0.197914 -0.03685,-0.03624 -0.06114,-0.04405 -0.06068,-0.04579 -0.0018,0 0.01441,0.02431 0.02776,0.06727 0.0073,0.02128 0.01304,0.04904 0.01805,0.07964 0.0026,0.03168 0.0046,0.06684 6.08e-4,0.105467 -0.0095,0.07639 -0.03791,0.166883 -0.09935,0.240232 -0.0069,0.0098 -0.01638,0.01716 -0.02428,0.02604 -0.01016,0.0093 -0.02033,0.01868 -0.0308,0.028 -0.01684,0.01172 -0.03809,0.028 -0.06235,0.0408 -0.04733,0.02648 -0.103321,0.04579 -0.164301,0.05426 -0.06083,0.0078 -0.12667,0.0054 -0.190231,-0.01152 -0.01518,-0.0035 -0.03338,-0.0104 -0.0449,-0.01432 l -0.02882,-0.01149 -0.0214,-0.01041 c -0.02912,-0.01476 -0.06098,-0.03364 -0.08934,-0.05534 -0.116062,-0.08767 -0.209658,-0.224823 -0.253796,-0.383026 -0.04399,-0.155599 -0.04292,-0.334848 0.0179,-0.491966 0.05749,-0.155163 0.182637,-0.289276 0.335568,-0.360457 0.152144,-0.07444 0.326904,-0.07921 0.48361,-0.01584 0.158225,0.06141 0.298088,0.177948 0.413384,0.308373 0.02897,0.03276 0.05658,0.0664 0.08253,0.100911 l 0.01941,0.02604 0.0024,0.0031 c -0.0036,-0.0054 4.39e-4,6.76e-4 0,2.16e-4 l 0.0048,0.0072 0.0096,0.01432 0.03776,0.05642 c 0.02261,0.03689 0.04125,0.06966 0.06128,0.105687 0.01791,0.03754 0.03839,0.07313 0.05386,0.110892 0.06705,0.148434 0.115276,0.297741 0.149827,0.438363 0.06944,0.281898 0.08572,0.527123 0.09158,0.697259 0.0022,0.05273 0.0027,0.09766 0.0023,0.135633 -0.04058,0.186197 -0.08593,0.36393 -0.135176,0.532765 -0.05219,-0.454207 -0.173998,-0.898646 -0.298389,-1.342652 0.0065,0.19813 0.203273,0.903421 -0.145943,1.11696 -0.05599,-0.424692 -0.159132,-0.751295 -0.208744,-0.89192 0.0065,-0.0058 0.01319,-0.01108 0.01973,-0.01736 l 0.01669,-0.01824 0.0081,-0.0089 0.0039,-0.0046 c 0.0062,-0.0067 0.0025,-0.0027 0.0041,-0.0046 z m 0.892874,-3.230874 c 0.193792,-0.05881 0.623473,-0.227212 1.057932,-0.6523373 0.472653,-0.462888 1.031675,-1.3242078 1.153202,-2.8554448 0.4069,1.240658 1.203764,4.8654111 -1.083973,9.8877201 -0.130859,0.05447 -0.264104,0.106767 -0.398217,0.156682 0.454205,-0.979595 2.195507,-5.002995 1.573118,-7.8575723 0,0 0.480901,4.1282203 -2.322462,8.1127783 -0.620656,0.193573 -1.188467,0.331811 -1.529045,0.408632 0.262456,-0.301213 0.696911,-0.869999 1.07573,-1.701808 0.523843,-1.149948 1.026442,-3.031657 0.473715,-5.49865 z m 9.118626,1.411229 0.264972,0.455075 c -2.874109,0.383678 -5.26124,1.663831 -6.598903,2.529058 -0.04731,-0.09418 -0.101561,-0.237629 -0.03363,-0.305769 0.105685,-0.105687 2.060964,-1.206587 2.060964,-1.206587 -1.237838,0.516487 -2.303799,1.219824 -2.675974,1.476981 0.02517,-0.07812 0.04969,-0.156247 0.07335,-0.233504 3.231311,-2.141256 6.40967,-2.646894 6.909229,-2.715254 z m 2.060314,3.538815 c -5.018405,0.739143 -8.817416,3.932693 -9.414851,4.459598 -0.04926,-0.05759 -0.09809,-0.113564 -0.146481,-0.168164 1.903844,-1.831169 4.933984,-3.258239 4.933984,-3.258239 -0.777771,0.317489 -3.178143,1.312922 -3.178143,1.312922 0,0 -0.946171,-1.396472 -0.798387,-1.641697 0.44032,-0.730895 2.677496,-2.025371 2.677496,-2.025371 -1.729154,0.747823 -3.109998,1.773854 -3.660342,2.211785 0.06532,-0.157548 0.127388,-0.313582 0.187065,-0.468093 0.269097,-0.220704 3.461775,-2.769506 7.719552,-3.308132 z m -8.331527,9.892319 c -0.361106,0.651252 -0.970694,0.958758 -1.236535,1.066765 -0.02257,-0.360889 -0.097,-0.744698 -0.246958,-1.138814 l 0.343531,-0.246981 0.295788,-1.452528 c 0.14366,0.273067 0.454639,0.885173 0.844174,1.771558 z m -0.775819,1.579064 c -0.02777,0.01594 -0.0549,0.03125 -0.08181,0.04581 l -0.112196,-0.332527 c 0,0 0.06598,0.270487 0,0.293988 -0.05013,0.0179 -0.205075,0.07995 -0.276041,0.108615 0.01172,-0.129992 0.01779,-0.264865 0.01693,-0.403667 0.06597,-0.02382 0.167749,-0.06448 0.290145,-0.126669 0.07183,0.130621 0.1263,0.269422 0.162972,0.41445 z m 0.672521,-0.510779 c -0.01323,0.01321 -0.02647,0.02655 -0.03971,0.03943 l -0.129341,-0.243616 c 0,0 0.06446,0.211454 0,0.252429 -0.05447,0.03474 -0.374996,0.242573 -0.47482,0.307177 -0.03407,-0.100866 -0.07726,-0.198413 -0.128687,-0.29216 0.177516,-0.09588 0.388667,-0.234072 0.592009,-0.426429 0.07704,0.111652 0.138018,0.234372 0.180551,0.363169 z m 0.222219,-0.380314 c -0.03906,0.03611 -0.155378,0.166251 -0.206812,0.224368 -0.03971,-0.09012 -0.0881,-0.176428 -0.144529,-0.256986 0.118921,-0.118792 0.233723,-0.257138 0.336153,-0.416725 0.05078,0.117424 0.10243,0.239385 0.155163,0.365141 -0.0115,0.01959 -0.02322,0.039 -0.03537,0.05812 L 37.5182,25.631028 c 0,0 0.05056,0.140927 0,0.187954 z m -0.736971,2.606055 c -0.02647,-0.17218 -0.05707,-0.32949 -0.09244,-0.46102 l -0.0074,-0.02699 -0.575732,-0.5845 c -0.0052,-0.02716 -0.01085,-0.05432 -0.01628,-0.08116 0.0056,-0.02837 0.01085,-0.05688 0.01605,-0.086 0.24935,-0.08694 1.125208,-0.436455 1.651896,-1.211492 0.177082,0.431138 0.363059,0.906415 0.551863,1.420518 -0.443575,0.718461 -1.2437,0.964054 -1.527984,1.030655 z m 1.75606,-0.160047 c -0.04036,-0.108159 -0.08116,-0.213735 -0.142357,-0.313866 0.02951,0.09482 0.0434,0.200715 0.0033,0.29158 -0.05122,0.115601 -0.17361,0.177189 -0.291448,0.226645 -0.02908,-0.131834 -0.07508,-0.260023 -0.138019,-0.379551 0.153211,-0.12244 0.300995,-0.270183 0.430116,-0.448587 0.06598,0.182789 0.131727,0.370286 0.1977,0.56219 -0.01975,0.02094 -0.0395,0.04158 -0.05925,0.06159 z m -1.240655,1.471341 -0.394527,-0.069 c -0.0054,-0.08876 -0.01129,-0.178561 -0.01758,-0.268663 0.27734,-0.04521 1.053809,-0.233004 1.788398,-0.970434 0.0523,0.154882 0.104382,0.312801 0.156032,0.473 z m 0.04297,-0.684151 c -0.03234,0.01229 -0.06402,0.02365 -0.09418,0.03413 -0.0081,-0.125172 -0.04383,-0.253057 -0.10178,-0.341943 0.01194,0.03717 0.02387,0.07478 0.02496,0.113627 8.06e-4,0.03898 -0.01042,0.07995 -0.03906,0.106335 -0.02691,0.02459 -0.06423,0.03307 -0.09983,0.04067 -0.05816,0.0126 -0.116319,0.02503 -0.174479,0.03745 -0.01302,-0.139102 -0.02778,-0.275626 -0.04449,-0.406548 0.09309,-0.02033 0.241532,-0.05916 0.41731,-0.126672 0.07964,0.168683 0.118706,0.356508 0.111546,0.542945 z M 37.73695,28.73421 c -0.09679,0.07053 -0.217662,0.09633 -0.336587,0.116492 -0.01628,-0.127104 -0.05252,-0.251517 -0.106769,-0.367577 0.19119,-0.07871 0.408417,-0.190817 0.618484,-0.349041 0.08485,0.164885 0.13737,0.346481 0.153861,0.531246 -0.02821,0.01989 -0.05642,0.03915 -0.0842,0.05749 -0.02474,-0.115736 -0.0714,-0.231944 -0.12999,-0.332354 0.03254,0.125736 -0.0087,0.266381 -0.114802,0.343746 z m -4.782313,5.123372 0.305833,0.177188 0.116667,0.775037 c -0.113933,0.08314 -0.323282,0.234068 -0.364233,0.250909 -0.05675,0.02351 -0.251216,-0.258329 -0.251216,-0.258329 l 0.214041,0.64244 -0.164606,0.160351 -0.285045,-0.907479 z m -4.194519,1.747444 -0.16458,-0.160199 0.214037,-0.64244 c 0,0 -0.194333,0.281855 -0.251211,0.258329 -0.04095,-0.01685 -0.250305,-0.167771 -0.364233,-0.250909 l 0.116663,-0.775037 0.305815,-0.177188 0.428554,0.840117 z m -4.073206,-6.20637 c -0.0065,0.0901 -0.01237,0.179904 -0.01767,0.268662 l -0.394571,0.069 -1.532236,-0.835105 c 0.05178,-0.160198 0.103776,-0.318117 0.155924,-0.472848 0.734671,0.737278 1.510968,0.92508 1.788548,0.970283 z m -1.084279,-1.308862 c -0.06287,0.119528 -0.108984,0.247717 -0.138019,0.379551 -0.117927,-0.04945 -0.24034,-0.111044 -0.291426,-0.226645 -0.04019,-0.09087 -0.02632,-0.196765 0.0033,-0.29158 -0.06128,0.100131 -0.10221,0.205707 -0.142426,0.313866 -0.01976,-0.02 -0.03947,-0.04064 -0.05913,-0.06159 0.06586,-0.191753 0.131813,-0.37925 0.197545,-0.562039 0.129148,0.178405 0.276931,0.325995 0.430207,0.448435 z m -0.01309,0.633023 c -0.02789,-0.01834 -0.05597,-0.03761 -0.08414,-0.05749 0.01641,-0.184765 0.06893,-0.366361 0.153843,-0.531245 0.210133,0.158223 0.427231,0.270331 0.618481,0.34904 -0.05427,0.11606 -0.09039,0.240473 -0.106877,0.367577 -0.118835,-0.02016 -0.239558,-0.04596 -0.336389,-0.116492 -0.106162,-0.07736 -0.147504,-0.218011 -0.114887,-0.343747 -0.05853,0.10041 -0.105295,0.216619 -0.130033,0.332355 z m 0.736387,0.363493 c -0.03032,-0.01047 -0.06191,-0.02186 -0.09425,-0.03413 -0.0071,-0.186436 0.03194,-0.374261 0.111542,-0.542945 0.175605,0.06751 0.324215,0.106339 0.417271,0.126672 -0.01669,0.130922 -0.03141,0.267447 -0.04436,0.406549 -0.05821,-0.01243 -0.116427,-0.02486 -0.174651,-0.03745 -0.03551,-0.0076 -0.07283,-0.01608 -0.09961,-0.04067 -0.02867,-0.02638 -0.04014,-0.06736 -0.03914,-0.106336 9.67e-4,-0.03885 0.013,-0.07645 0.02489,-0.113627 -0.05781,0.08889 -0.0936,0.216771 -0.10169,0.341943 z m 1.139897,-1.900958 c 0.0051,0.02898 0.01053,0.05749 0.0161,0.0857 -0.0056,0.02699 -0.01109,0.05417 -0.01647,0.08162 l -0.575732,0.584348 -0.0073,0.02698 c -0.03544,0.131681 -0.06595,0.288992 -0.09247,0.461172 -0.28407,-0.06599 -1.083257,-0.310374 -1.527872,-1.030655 0.188691,-0.514103 0.374802,-0.98938 0.551948,-1.42067 0.526667,0.775037 1.402397,1.124554 1.651721,1.211491 z m -1.517345,-1.392631 c -0.01206,-0.01895 -0.02365,-0.03836 -0.0352,-0.0578 0.05264,-0.125757 0.104404,-0.247717 0.155012,-0.365141 0.102452,0.159435 0.217227,0.29778 0.336127,0.416573 -0.05645,0.08055 -0.104795,0.166863 -0.144485,0.256986 -0.05163,-0.05812 -0.167793,-0.188258 -0.20677,-0.224368 -0.05067,-0.04703 0,-0.187954 0,-0.187954 z m 0.366529,0.446002 c -0.01336,-0.0129 -0.02649,-0.02624 -0.03967,-0.03943 0.04263,-0.128798 0.103583,-0.251518 0.180491,-0.36317 0.203429,0.192358 0.414493,0.330551 0.592138,0.426429 -0.05143,0.09375 -0.09466,0.191142 -0.128928,0.292313 -0.09976,-0.06476 -0.420243,-0.272587 -0.47467,-0.307329 -0.0646,-0.04097 0,-0.252429 0,-0.252429 z m 0.714512,0.51716 c -0.02682,-0.01456 -0.05406,-0.02989 -0.08181,-0.04596 0.03682,-0.144875 0.09123,-0.283677 0.163083,-0.414297 0.122418,0.06219 0.224371,0.102995 0.290275,0.126669 -8.86e-4,0.138801 0.005,0.273675 0.01684,0.403667 -0.07098,-0.02867 -0.225888,-0.09071 -0.276079,-0.108616 -0.06585,-0.02351 0,-0.293987 0,-0.293987 z m 0.282465,-1.943906 0.343618,0.246981 c -0.149955,0.394116 -0.224413,0.778077 -0.24707,1.138966 -0.265729,-0.108159 -0.875253,-0.415665 -1.236402,-1.066765 0.389406,-0.886385 0.700403,-1.49849 0.844003,-1.77171 z m 1.815368,-1.258343 c -0.03448,0.08268 -0.09336,0.253338 -0.122283,0.497434 -0.05567,0.0042 -0.111134,0.0071 -0.166426,0.0088 l -1.432846,-0.810692 c 0.05204,-0.103755 0.162804,-0.314625 0.20701,-0.319029 0.05872,-0.0057 0.910084,0.463907 0.910084,0.463907 l -1.413117,-0.948885 c 0.03819,-0.0704 0.07585,-0.139561 0.112866,-0.207682 z m 8.831176,-0.623498 c 0.04427,0.0044 0.154949,0.215275 0.207028,0.31903 l -1.432928,0.810691 c -0.05534,-0.0017 -0.110893,-0.0046 -0.166451,-0.0088 -0.02886,-0.244249 -0.08767,-0.414754 -0.122392,-0.497435 l 1.904932,-1.316158 c 0.03689,0.06812 0.07465,0.137282 0.112845,0.207682 l -1.413182,0.948885 c 0,0 0.851339,-0.469657 0.910148,-0.463908 z m -0.26931,2.031276 -0.107423,0.835865 -0.268227,0.308265 -10e-4,-0.473909 -0.574649,-0.131685 -0.228081,-0.533068 c 0.05795,-0.25349 0.07574,-0.478618 0.07227,-0.673107 l 0.217661,0.02351 0.986752,-0.0528 c 0,0 -0.03363,0.413992 -0.03363,0.421264 0,0.0062 0.176866,-0.842225 0.228516,-1.089358 l 0.350257,-0.198261 -0.26302,1.290504 z m 0.09592,2.643836 c -0.07335,-0.06022 -0.147788,-0.108311 -0.222224,-0.146245 0.09028,-0.384415 0.140624,-0.767745 0.143445,-1.138359 -0.148434,0.128645 -0.284284,0.271395 -0.407114,0.424606 -0.01237,0.201322 -0.0484,0.402015 -0.100474,0.598781 -0.2181,-0.03037 -0.41254,0.0039 -0.543834,0.04141 l 0.178604,-0.405336 0.94964,-1.092395 0.05056,-0.393379 c 0.213324,0.809628 0.109156,1.561771 -0.04861,2.110921 z m 0.390838,2.113653 c -0.468964,-0.04006 -0.789055,0.01594 -0.971563,0.06871 0.165797,-0.343595 0.293615,-0.705245 0.378686,-1.077226 0.05186,-0.03293 0.123479,-0.0364 0.180551,-0.01061 0.07617,0.03414 0.105251,0.116364 0.130209,0.195853 0.02517,0.07947 0.03971,0.141233 0.05208,0.240277 0.0031,-0.378643 -0.01932,-0.757285 -0.0638,-1.133195 0.02799,-0.07432 0.05555,-0.154727 0.08246,-0.240296 0.109376,0.672194 0.174046,1.400204 0.211371,1.956494 z m -0.811192,1.61878 c -0.0065,-0.112999 -0.02387,-0.228904 -0.05317,-0.347848 l 0.698996,-0.165951 c 0.03841,0.153515 0.07682,0.307029 0.115232,0.460564 -0.114582,-0.0014 -0.22938,-0.0023 -0.343747,-0.0036 0.196612,0.02607 0.387148,0.09542 0.555767,0.199781 0.0069,0.08876 0.01,0.182809 0.0076,0.281248 -0.275391,-0.2324 -0.623477,-0.383026 -0.980679,-0.42415 z m -2.347961,1.9219 c 0.163083,-0.169899 0.986058,-1.01427 1.507041,-1.300377 l 0.06098,-0.03337 -0.0067,-0.06918 c -6.42e-4,-0.0062 -0.0065,-0.06144 -0.02582,-0.14427 0.100474,-0.07673 0.295568,-0.248633 0.433591,-0.512735 l 0.168833,0.187041 c 0.04709,1.356521 -1.604501,2.242754 -1.910032,2.394752 l -0.22786,-0.131996 z m 0.0569,-0.935233 c 0.09208,-0.104058 0.197201,-0.197677 0.304926,-0.286111 0.126518,-0.103751 0.257721,-0.20145 0.388799,-0.2993 0.06872,-0.05128 0.141987,-0.104363 0.227101,-0.113932 0.08524,-0.0096 0.160633,0.05857 0.192036,0.128189 -0.02548,-0.141234 -0.07448,-0.277907 -0.141969,-0.404577 0.01198,-0.01094 0.02426,-0.02155 0.03609,-0.03245 0.01547,-0.01443 0.03034,-0.02959 0.04566,-0.04414 0.150802,0.205554 0.210002,0.430966 0.230837,0.539273 -0.52604,0.316014 -1.256479,1.056308 -1.465829,1.273535 l -0.01818,-0.0103 c -0.02596,-0.235893 0.04504,-0.498502 0.200538,-0.750168 z m -0.635018,0.50592 c 0.01745,-0.376974 0.173696,-0.738927 0.3891,-1.056893 -0.110587,-0.09527 -0.23982,-0.169139 -0.378337,-0.214211 -0.166559,0.228012 -0.309002,0.469677 -0.405945,0.736819 -0.01517,0.04171 -0.05143,0.144725 -0.08906,0.262281 l -0.436583,-0.245288 h -0.04399 c -0.0029,-0.355748 0.137739,-0.742267 0.402753,-1.09984 6.09e-4,-6.75e-4 0.0012,-0.0014 0.0018,-0.002 0.226192,-0.01787 0.902768,-0.0057 1.233627,0.713601 -0.01895,0.02155 -0.03898,0.04204 -0.05734,0.06417 -0.252123,0.305836 -0.390619,0.646696 -0.397757,0.964358 z m -2.329975,-0.30599 h 0.676886 0.676903 l 1.106958,0.622131 -1.32935,2.825434 -0.454511,0.06916 -0.454489,-0.06916 -1.32935,-2.825434 z m -1.59223,-0.535496 c -0.01836,-0.02212 -0.03823,-0.04263 -0.05721,-0.06402 0.330704,-0.719502 1.007306,-0.731635 1.233473,-0.71375 6.08e-4,6.75e-4 0.0012,0.0014 0.0018,0.002 0.265015,0.357569 0.40566,0.74409 0.402775,1.099839 h -0.04399 l -0.43661,0.245289 c -0.03745,-0.117556 -0.07387,-0.220571 -0.08904,-0.262282 -0.09694,-0.267142 -0.239386,-0.508807 -0.405966,-0.736823 -0.138496,0.04508 -0.267746,0.118945 -0.378338,0.214215 0.21543,0.317965 0.371828,0.679919 0.389278,1.057044 l -0.218445,0.122721 c -0.007,-0.317817 -0.145638,-0.658525 -0.397761,-0.964358 z m -1.302482,-0.177497 c 0.02103,-0.108459 0.08007,-0.333718 0.230875,-0.539273 0.01531,0.01452 0.03008,0.02972 0.04558,0.04399 0.01187,0.01108 0.02419,0.02168 0.03618,0.03262 -0.06751,0.126669 -0.116405,0.263343 -0.141905,0.404576 0.03131,-0.06962 0.106812,-0.137738 0.19199,-0.128189 0.0852,0.0096 0.15831,0.06265 0.227083,0.113932 0.131052,0.09785 0.262281,0.195549 0.3888,0.299301 0.107702,0.08843 0.212845,0.182053 0.305075,0.286111 0.155336,0.251666 0.226494,0.514276 0.200388,0.750168 l -0.01821,0.0103 c -0.209336,-0.217223 -0.93969,-0.957518 -1.465855,-1.273531 z m -0.79748,-0.424605 0.168816,-0.187041 c 0.138104,0.264103 0.333069,0.435999 0.433504,0.512735 -0.01927,0.08283 -0.02518,0.138062 -0.02576,0.14427 l -0.0066,0.06918 0.06094,0.03337 c 0.520914,0.286109 1.343911,1.13033 1.506994,1.300226 v 0.390015 l -0.227853,0.131994 c -0.305377,-0.151997 -1.957081,-1.03823 -1.910033,-2.394751 z m -1.182017,0.09314 c 0.168441,-0.103903 0.358522,-0.172936 0.55479,-0.199022 -0.114603,0.0014 -0.229229,0.0023 -0.343834,0.0036 0.03836,-0.153538 0.07676,-0.307052 0.115147,-0.460567 l 0.699039,0.165951 c -0.02919,0.118944 -0.04646,0.234849 -0.05317,0.347848 -0.356656,0.04097 -0.704526,0.191297 -0.979591,0.423261 -0.0025,-0.09831 5.74e-4,-0.192361 0.0077,-0.281119 z m 0.454553,-3.477271 c -0.04438,0.376062 -0.06663,0.754704 -0.06369,1.133346 0.01239,-0.09904 0.02691,-0.160807 0.05202,-0.240277 0.02513,-0.07949 0.05413,-0.161715 0.130145,-0.195853 0.05721,-0.02577 0.128794,-0.02229 0.180529,0.01061 0.08514,0.371981 0.212937,0.733631 0.378712,1.077226 -0.182271,-0.05277 -0.502448,-0.108767 -0.971455,-0.06871 0.03731,-0.55629 0.102017,-1.284452 0.211392,-1.956494 0.02682,0.08557 0.05455,0.165971 0.08236,0.240145 z m 0.09898,-2.114845 0.949881,1.092395 0.178385,0.405335 c -0.131268,-0.03748 -0.325777,-0.07177 -0.543701,-0.04126 -0.05219,-0.196917 -0.08821,-0.397611 -0.100585,-0.598932 -0.122809,-0.153211 -0.258698,-0.295961 -0.407028,-0.424606 0.0027,0.370614 0.05323,0.753944 0.143251,1.138359 -0.0745,0.03793 -0.14913,0.08633 -0.222676,0.146853 -0.157876,-0.548846 -0.262065,-1.300989 -0.04816,-2.111681 z m 8.78291,0.04429 0.123695,-0.297349 0.477211,0.109244 0.0013,0.523344 -0.381725,0.439038 z m 0.767787,2.271856 c 0.05469,-0.150931 0.105685,-0.302493 0.149087,-0.45464 -0.109156,-0.076 -0.239364,-0.122416 -0.371956,-0.132444 -0.0191,0.05554 -0.03928,0.110895 -0.06054,0.165515 -0.03038,0.07858 -0.06272,0.156402 -0.0957,0.23392 -0.05512,-0.01443 -0.111107,-0.02425 -0.166666,-0.02837 -0.237627,-0.01759 -0.476123,0.05551 -0.666595,0.19555 -4.39e-4,-0.05264 -0.0031,-0.104688 -0.0086,-0.15627 l 0.318246,-0.143943 0.182289,-0.4143 c 0.209633,-0.07328 0.697694,-0.177189 1.145174,0.21009 -0.09223,0.301581 -0.196832,0.534457 -0.266275,0.673106 -0.04731,-0.05431 -0.100693,-0.104079 -0.158419,-0.148218 z m -8.20342,-0.320679 0.318248,0.143943 c -0.0056,0.05158 -0.0084,0.103623 -0.0087,0.15627 -0.190494,-0.139885 -0.428861,-0.212846 -0.666467,-0.195549 -0.05575,0.0041 -0.111585,0.01395 -0.166752,0.02837 -0.03296,-0.07752 -0.06523,-0.155339 -0.09583,-0.23392 -0.02125,-0.05462 -0.04128,-0.10998 -0.06044,-0.165516 -0.132595,0.01003 -0.262757,0.05645 -0.372024,0.132445 0.04342,0.152147 0.09436,0.303709 0.149194,0.45464 -0.0579,0.04429 -0.111392,0.0939 -0.158504,0.148522 -0.06959,-0.138498 -0.174608,-0.371222 -0.266839,-0.672803 0.447786,-0.388038 0.935975,-0.283979 1.145802,-0.210698 z m -0.355357,-1.1769 -0.381812,-0.439038 0.0013,-0.523344 0.477143,-0.109244 0.123634,0.297349 z m 0.908149,1.786727 c -0.02595,-0.124089 -0.0364,-0.246657 -0.03053,-0.365906 l 0.407287,0.445851 -0.06539,0.451603 c -7.77e-4,-0.0014 -0.0014,-0.0031 -0.0019,-0.0045 -0.04417,-0.08845 -0.111804,-0.162779 -0.161111,-0.248196 -0.08025,-0.138954 -0.10879,-0.306725 -0.07918,-0.464188 -0.03086,0.05854 -0.05343,0.121048 -0.06912,0.185372 z m 1.186842,-0.153667 -0.588754,-0.63882 -0.438411,0.08648 -0.686061,-1.650202 0.07431,-0.261087 0.74691,1.739092 0.343768,-0.152755 0.584655,0.666726 z m 0.243183,1.461337 v 0.378034 c -0.02715,-0.03006 -0.06174,-0.05401 -0.09542,-0.07708 -0.229534,-0.157767 -0.441012,-0.341771 -0.628813,-0.547477 -0.03791,-0.04141 -0.07554,-0.08481 -0.09709,-0.136673 -0.03731,-0.08967 -0.02244,-0.191298 -0.0069,-0.287024 -0.03095,0.106944 -0.06189,0.214042 -0.09284,0.320986 -0.03428,-0.03973 -0.06736,-0.08041 -0.09937,-0.12166 l 0.08995,-0.62228 0.555831,0.608478 z m 2.797501,0.517899 c -0.347699,0.17476 -0.73999,0.276083 -1.128962,0.263647 -4.39e-4,0.0035 -0.0017,0.0035 -0.0022,0 -0.388796,0.01243 -0.781242,-0.08889 -1.128936,-0.263647 -0.120616,-0.06068 -0.14078,-0.17704 -0.134269,-0.230599 -0.0085,0.08329 -0.01699,0.16673 -0.02532,0.25002 -0.05872,-0.02884 -0.11469,-0.05978 -0.16658,-0.09316 v -0.335999 l 1.424315,0.449779 h 0.06372 l 1.424337,-0.449779 v 0.335999 c -0.05189,0.03337 -0.107725,0.06432 -0.16658,0.09316 -0.0083,-0.08344 -0.01685,-0.166731 -0.02519,-0.25002 0.0064,0.05356 -0.0138,0.169923 -0.134394,0.230599 z m 0.368486,-0.644744 -0.007,0.0023 -0.102843,-1.14487 c 0,0 -0.06751,0.886997 -0.168854,0.892897 -0.101325,0.0059 -1.219825,0.199651 -1.219825,0.199651 0,0 -1.118483,-0.193726 -1.219825,-0.199651 -0.101325,-0.0059 -0.168837,-0.892897 -0.168837,-0.892897 l -0.102843,1.144719 -0.007,-0.002 -0.35058,-0.453579 0.179162,-1.032174 0.977252,-0.174457 0.117425,-0.38743 0.575233,-0.102712 0.575256,0.102712 0.117424,0.38743 0.977399,0.174457 0.179016,1.032174 z m 0.543528,-0.357853 0.555986,-0.608478 0.08995,0.622127 c -0.03199,0.04128 -0.06521,0.08192 -0.0995,0.121813 -0.03094,-0.106945 -0.06189,-0.214043 -0.09284,-0.320987 0.01562,0.09573 0.03064,0.197354 -0.0067,0.287024 -0.02168,0.05186 -0.05931,0.09527 -0.09724,0.136673 -0.187806,0.205706 -0.399129,0.389711 -0.628642,0.547478 -0.03368,0.02307 -0.06842,0.04703 -0.09557,0.07708 v -0.378034 z m 0.895803,-1.52898 -0.438277,-0.08648 -0.588883,0.63882 -0.03641,-0.210567 0.584651,-0.666726 0.343897,0.152755 0.746849,-1.739092 0.07422,0.260935 z m 0.01152,0.984823 c -0.04931,0.08542 -0.117124,0.159743 -0.16111,0.248197 -7.77e-4,0.0014 -0.0014,0.0031 -0.0022,0.0045 l -0.06521,-0.451603 0.407162,-0.44585 c 0.0059,0.119248 -0.0046,0.241816 -0.0305,0.365904 -0.01578,-0.06432 -0.03823,-0.126824 -0.06918,-0.185372 0.02958,0.157463 10e-4,0.325234 -0.07904,0.464188 z m 0.726166,-2.136699 c 0.02105,-0.0083 0.0957,0.22224 0.136935,0.35514 l -0.322892,0.733783 -0.476192,0.215255 -0.984992,1.078286 -0.102542,-0.590728 0.59876,-0.649429 0.456158,0.0898 0.674149,-1.621511 0.03126,0.109523 -0.421567,0.984543 c 0,0 0.381636,-0.692964 0.410933,-0.70466 z m -7.361567,-0.279883 0.03114,-0.109372 0.674146,1.62136 0.456313,-0.0898 0.598605,0.649276 -0.102538,0.590881 -0.984846,-1.078286 -0.47621,-0.215255 -0.32287,-0.733783 c 0.0411,-0.1329 0.115774,-0.363473 0.136738,-0.35514 0.02934,0.01169 0.411001,0.70466 0.411001,0.70466 z m -1.728045,3.75763 c 0.0052,-0.0977 0.01154,-0.205859 0.0191,-0.322675 0.523911,-0.04596 0.8603,0.03216 1.019045,0.08587 0.03316,0.06554 0.06764,0.130468 0.103535,0.194465 -0.01841,0.05705 -0.03413,0.112716 -0.04607,0.166883 -0.20892,-0.05992 -0.645026,-0.161567 -1.095606,-0.124544 z m 1.08178,0.705852 -1.101965,-0.261825 c 0.0028,-0.07827 0.008,-0.207375 0.01645,-0.372738 0.447674,-0.03852 0.883431,0.06417 1.085883,0.122568 -0.03327,0.188713 -0.02891,0.359393 -4.39e-4,0.511995 z m 0.394768,0.251822 c -0.07209,-0.143206 -0.06536,-0.321742 0.01335,-0.461172 0.132655,0.180076 0.277146,0.351189 0.432309,0.512299 -0.09746,0.126213 -0.16376,0.258506 -0.208743,0.37591 -0.188542,-0.158075 -0.540429,-0.547022 -0.419529,-1.174165 0.01555,0.02428 0.03067,0.049 0.04663,0.07313 -0.02518,0.231637 0.02209,0.470721 0.135979,0.673995 z m 0.718722,-0.578272 c 0.310412,0.358916 0.681482,0.663081 0.984257,1.027618 -0.07129,0.08207 -0.136827,0.179164 -0.194161,0.292769 -0.139102,-0.142446 -0.289298,-0.272435 -0.436299,-0.398976 -0.09527,-0.08175 -0.193684,-0.166403 -0.286263,-0.252581 -0.738231,-0.685519 -1.256066,-1.604066 -1.461249,-2.59043 0.134785,-0.206614 0.379336,-0.35438 0.620695,-0.371978 0.252278,-0.01895 0.517508,0.098 0.674778,0.296741 l 0.004,-0.0031 c 0.04676,0.255314 0.151646,0.514708 0.312106,0.763665 0.250907,0.388799 0.595566,0.701165 0.956178,1.013054 l 0.06341,0.0549 c 0.269268,0.232572 0.545808,0.472265 0.775493,0.745155 -0.179016,0.0031 -0.44585,0.03732 -0.702381,0.183573 -0.2444,-0.28778 -0.513669,-0.560695 -0.76245,-0.842854 -0.500561,-0.568115 -0.926209,-1.201619 -1.265463,-1.878501 -0.05983,0.002 -0.119424,0.01047 -0.176865,0.0276 -0.08937,0.02655 -0.172742,0.07175 -0.245115,0.130466 0.295504,0.660193 0.689468,1.283216 1.139313,1.802959 z m 4.083213,0.414904 c -0.283377,0.06931 -0.573281,0.134397 -0.864403,0.113304 v 0 0 0 0 c -0.291099,0.02108 -0.580854,-0.04399 -0.864381,-0.113304 -0.05673,-0.01381 -0.115602,-0.02898 -0.159893,-0.0669 -0.0443,-0.03794 -0.0384,-0.098 -0.03915,-0.156247 -0.0232,0.05521 -0.03822,0.113452 -0.04657,0.172784 -0.109224,-0.123044 -0.226022,-0.23878 -0.346182,-0.350127 v -0.09724 c 0.55538,0.315837 1.410211,0.399279 1.449665,0.403055 h 0.01304 c 0.03943,-0.0038 0.894435,-0.08722 1.44966,-0.403055 v 0.09709 c -0.12016,0.111348 -0.236824,0.227236 -0.346198,0.35028 -0.0082,-0.05933 -0.02335,-0.117728 -0.04658,-0.172784 -6.07e-4,0.05825 0.0052,0.118313 -0.03913,0.156247 -0.04431,0.03791 -0.10317,0.05308 -0.159893,0.0669 z m -0.257593,0.43127 c -0.03748,0.02672 -0.0842,0.03626 -0.12956,0.04431 -0.15321,0.02699 -0.314927,0.06627 -0.469505,0.04792 0,-3.38e-4 0,-0.001 0,-0.0014 -0.0026,3e-4 -0.0052,3e-4 -0.0077,6.75e-4 -0.0026,-3e-4 -0.0052,-3e-4 -0.0077,-6.75e-4 0,3.38e-4 0,0.001 0,0.0014 -0.154578,0.01834 -0.316295,-0.02091 -0.469506,-0.04792 -0.04537,-0.0081 -0.0921,-0.0176 -0.129404,-0.04431 -0.03748,-0.02669 -0.04991,-0.06962 -0.04946,-0.119228 -0.01381,0.05414 -0.01653,0.112259 -0.02049,0.1699 -0.01988,-0.0039 -0.03944,-0.0081 -0.0587,-0.0126 -0.05417,-0.09785 -0.115907,-0.194637 -0.186,-0.289297 -0.0071,-0.0096 -0.01485,-0.01868 -0.02214,-0.0282 0.425364,0.113172 0.91308,0.14731 0.938731,0.149111 h 0.0094 c 0.02563,-0.0017 0.513363,-0.03594 0.938727,-0.149111 -0.0073,0.0096 -0.01501,0.01868 -0.02216,0.0282 -0.07008,0.09466 -0.131813,0.191446 -0.185982,0.289297 -0.01927,0.0046 -0.03885,0.0086 -0.0587,0.0126 -0.0039,-0.05764 -0.0067,-0.115756 -0.02049,-0.1699 4.73e-4,0.04961 -0.01182,0.09253 -0.0493,0.119228 z m -0.101652,0.66323 c -0.01955,0.104991 -0.02882,0.20905 -0.02806,0.311305 h -0.09192 c 0.002,-0.06569 0,-0.131533 -0.0091,-0.196614 -0.0012,0.02641 -0.0023,0.05326 -0.01033,0.07858 -0.0079,0.02519 -0.0235,0.04915 -0.04687,0.06144 -0.0217,0.01125 -0.04703,0.01155 -0.07129,0.01155 -0.08253,0 -0.165058,0 -0.247586,0 -0.08251,0 -0.164886,0 -0.247415,0 -0.02442,0 -0.04976,-3e-4 -0.07129,-0.01155 -0.02353,-0.0123 -0.03914,-0.03624 -0.04703,-0.06144 -0.0079,-0.02533 -0.0091,-0.05217 -0.01033,-0.07858 -0.0092,0.06508 -0.01091,0.130925 -0.0091,0.196614 h -0.09177 c 6.09e-4,-0.102255 -0.0087,-0.206314 -0.02823,-0.311305 h 0.505162 z m -0.03867,-0.140926 c -0.0041,-0.06159 -0.0081,-0.123177 -0.01213,-0.184765 -0.0012,0.04824 -0.007,0.104816 -0.04854,0.129557 -0.02231,0.01321 -0.04976,0.01334 -0.07569,0.01321 -0.101192,-0.001 -0.202383,-0.0017 -0.303708,-0.0023 0,-1.72e-4 0,-3.01e-4 0,-3.38e-4 -0.009,1.72e-4 -0.01775,1.72e-4 -0.02656,3e-4 -0.0088,-1.71e-4 -0.0176,-1.71e-4 -0.02639,-3e-4 0,1.72e-4 0,3e-4 0,3.38e-4 -0.101192,6.76e-4 -0.202517,0.0014 -0.303708,0.0023 -0.02593,1.72e-4 -0.05341,0 -0.07569,-0.01321 -0.04155,-0.02476 -0.04733,-0.08131 -0.04854,-0.129557 -0.0039,0.06159 -0.0081,0.123177 -0.01213,0.184765 h -0.07071 c -0.02897,-0.108008 -0.06827,-0.216319 -0.117402,-0.32387 0.308394,0.0549 0.637125,0.05658 0.654421,0.05673 v -0.06387 0 0.06387 c 0.0173,-1.72e-4 0.346026,-0.0017 0.654442,-0.05673 -0.049,0.107551 -0.08843,0.215862 -0.117424,0.32387 z m 3.607042,-1.464201 c 0.01606,-0.02399 0.03104,-0.0487 0.04644,-0.07298 0.119356,0.624102 -0.231332,1.014421 -0.419481,1.173404 -0.04492,-0.117252 -0.111328,-0.249389 -0.208485,-0.375454 0.155098,-0.160958 0.299627,-0.332071 0.432222,-0.512147 0.07877,0.13943 0.08551,0.317966 0.01323,0.461172 0.113933,-0.203274 0.161244,-0.442358 0.136066,-0.673995 z m -0.922258,0.764729 c -0.09269,0.086 -0.191142,0.170656 -0.286412,0.252577 -0.146981,0.126369 -0.297177,0.256358 -0.435977,0.398804 -0.0575,-0.113605 -0.123024,-0.210695 -0.194334,-0.292769 0.302796,-0.364537 0.673867,-0.668702 0.98439,-1.027618 0.449867,-0.519744 0.843741,-1.142763 1.139313,-1.80296 -0.07249,-0.05872 -0.155816,-0.103923 -0.245225,-0.130465 -0.0575,-0.01716 -0.116969,-0.02564 -0.176862,-0.0276 -0.339193,0.676882 -0.764863,1.310385 -1.265462,1.878501 -0.248653,0.282159 -0.518076,0.555074 -0.76245,0.842853 -0.256532,-0.146246 -0.52352,-0.180684 -0.702381,-0.183572 0.22953,-0.272891 0.506224,-0.512583 0.775643,-0.745151 l 0.06326,-0.05476 c 0.360737,-0.312214 0.705418,-0.624559 0.956178,-1.013205 0.160499,-0.248782 0.265316,-0.508352 0.312192,-0.763666 l 0.0039,0.0031 c 0.157314,-0.198738 0.422028,-0.315534 0.674843,-0.29674 0.241317,0.01759 0.48589,0.165363 0.620657,0.371981 -0.205295,0.986512 -0.723087,1.904907 -1.461318,2.590602 z m 1.167268,-0.923864 c -0.01194,-0.05417 -0.02778,-0.109832 -0.046,-0.166883 0.03581,-0.064 0.07009,-0.128797 0.103514,-0.194313 0.158637,-0.05386 0.49522,-0.131986 1.019088,-0.08602 0.0076,0.116816 0.01367,0.224976 0.01909,0.322675 -0.450949,-0.03687 -0.886927,0.06463 -1.095692,0.124544 z m 0.01345,0.06931 c 0.202475,-0.0584 0.638236,-0.161088 1.085932,-0.122569 0.0085,0.165363 0.01367,0.294465 0.01649,0.372738 l -1.102202,0.261826 c 0.02864,-0.152603 0.03299,-0.323283 -4.39e-4,-0.511995 z m -0.487406,-4.700591 -0.09006,0.216795 -0.0727,-0.25501 0.0041,-0.0094 -0.287689,-0.608763 v -0.699343 l 0.256006,0.0279 c 0.0052,0.194033 -0.01194,0.421873 -0.0727,0.679011 l -0.0052,0.02263 z m -1.944386,-0.96375 0.06372,0.08299 0.05371,0.676122 -0.120744,0.211326 -0.121372,-0.141533 -0.0026,-0.03111 -0.0042,3.38e-4 -0.03794,-0.524279 c 0.04368,-0.01152 0.09132,-0.02547 0.112105,-0.03687 0.04308,-0.02351 0.086,0.208441 0.086,0.208441 z m -0.311431,1.129721 0.03504,0.414148 -0.07722,0.123477 -0.01699,-0.293984 c 0,0 -0.02943,0.287604 -0.06751,0.293528 -0.02745,0.0043 -0.14898,0.0099 -0.214953,0.0129 l 0.02791,-0.512603 0.176737,0.131073 z m -0.149435,-0.990464 0.07784,0.113476 0.04201,0.578448 -0.143814,0.176884 -0.134415,-0.09967 -0.05642,-0.599517 c 0.05037,-0.0082 0.107702,-0.01608 0.131835,-0.01321 0.04703,0.0056 0.105727,0.334803 0.105727,0.334803 z m -0.548388,1.297038 0.167638,-0.182486 -0.02839,0.522913 -0.08783,0.06174 v -0.335108 c 0,0 -0.02927,0.221331 -0.05569,0.227711 -0.01985,0.0047 -0.186584,-0.01534 -0.268812,-0.02564 l -0.0015,-0.0017 0.04612,-0.455551 z m 0.04097,-1.286101 0.07539,0.104819 0.06326,0.67341 -0.199954,0.217379 -0.183547,-0.151258 v -0.642889 c 0.05764,-0.0074 0.13318,-0.01699 0.156246,-0.02047 0.039,-0.0059 0.107857,0.416881 0.107857,0.416881 z m -0.826162,0.933868 v -0.609542 c 0.04566,-0.01381 0.110437,-0.03063 0.1526,-0.02898 0.07055,0.0031 0.111654,0.361194 0.111654,0.361194 v -0.630616 l 0.105578,0.145334 v 0.673691 3.37e-4 l -0.200844,0.170356 z m 0.200844,0.332224 0.138344,-0.117425 -0.04035,0.39852 -0.03459,0.04126 v -0.253776 c 0,0 -0.0089,0.193705 -0.07934,0.187953 -0.04612,-0.0039 -0.106945,0.0123 -0.143665,0.02394 l -0.04125,-0.0725 v -0.305381 z m -0.412322,-0.0974 v 0.305381 l -0.04126,0.0725 c -0.03672,-0.01169 -0.09755,-0.0279 -0.14366,-0.02395 -0.0704,0.0057 -0.07918,-0.187953 -0.07918,-0.187953 v 0.253925 l -0.03474,-0.04141 -0.04021,-0.39852 0.138367,0.117424 z m -0.152605,-0.87334 c 0.04217,-0.0017 0.107096,0.01517 0.152605,0.02898 v 0.609542 l -0.168988,0.0819 -0.200866,-0.170355 v -3.37e-4 -0.673692 l 0.10575,-0.145333 v 0.630616 c 0,0 0.0411,-0.358158 0.111499,-0.361198 z m -0.404143,0.80266 0.04612,0.455551 -0.0015,0.0017 c -0.0822,0.0103 -0.248932,0.03034 -0.268662,0.02564 -0.02639,-0.0064 -0.05582,-0.227708 -0.05582,-0.227708 v 0.335107 l -0.08769,-0.06173 -0.02852,-0.523064 0.167792,0.182637 z m -0.180813,-0.917048 c 0.0232,0.0035 0.09874,0.01304 0.156401,0.02047 v 0.642897 l -0.18372,0.151258 -0.199936,-0.217379 0.06341,-0.673411 0.07524,-0.104818 -0.01927,0.597848 c 0,0 0.06903,-0.422784 0.107875,-0.416881 z m -0.608478,0.967091 0.176732,-0.131073 0.02805,0.512603 c -0.06614,-0.0031 -0.187496,-0.0086 -0.214948,-0.0129 -0.03823,-0.0059 -0.06751,-0.293529 -0.06751,-0.293529 l -0.01714,0.293985 -0.07722,-0.123477 0.03505,-0.414148 z m 0.09542,-1.002593 c 0.02413,-0.0027 0.08147,0.0048 0.131834,0.01321 l -0.05644,0.599518 -0.134397,0.09967 -0.143661,-0.176735 0.04186,-0.578596 0.07798,-0.113477 -0.02274,0.491206 c 0,0 0.05871,-0.329182 0.105578,-0.334803 z M 28.94293,24.87948 c 0.02064,0.01138 0.06826,0.02533 0.112109,0.03687 l -0.03794,0.524128 -0.0043,-3.01e-4 -0.0027,0.03111 -0.121222,0.141533 -0.1209,-0.211326 0.05371,-0.676122 0.06385,-0.08299 -0.02882,0.445547 c 0,0 0.04293,-0.231941 0.08618,-0.208439 z m -0.06311,1.548098 c 0.03563,-0.04581 0.06552,-0.0957 0.09132,-0.147589 l 0.312803,0.500298 0.328727,-0.203275 0.383656,0.270031 0.279295,-0.304165 0.291707,0.348912 0.218294,-0.383506 0.218311,0.383506 0.291861,-0.348912 0.279141,0.304165 0.383636,-0.270031 0.328751,0.203275 0.3128,-0.500298 c 0.02578,0.05189 0.05567,0.101778 0.09132,0.147589 0.152755,0.196462 0.391079,0.322222 0.63897,0.341187 -0.174909,-0.02607 -0.314166,-0.199933 -0.317812,-0.379553 -0.0021,-0.102104 0.03442,-0.200238 0.09436,-0.283071 l 0.0074,0.0035 0.623804,-0.229228 0.336781,-0.66627 0.164735,0.348609 -0.761087,1.772009 -0.290339,-0.129101 -0.681288,0.777014 -0.863942,-0.154408 -0.109986,-0.363017 c 0.03246,-0.208443 0.106795,-0.4105 0.220268,-0.588452 -0.164731,0.141385 -0.284284,0.334199 -0.339645,0.544005 l -0.609389,-0.108788 h -0.03715 l -0.609545,0.108788 c -0.05538,-0.209806 -0.174909,-0.40262 -0.339644,-0.544005 0.113455,0.177952 0.187779,0.380009 0.220268,0.588452 l -0.109982,0.363017 -0.863947,0.154426 -0.681289,-0.777013 -0.29036,0.129101 -0.760975,-1.77201 0.164714,-0.348608 0.336716,0.66627 0.623929,0.229228 0.0074,-0.0035 c 0.05977,0.08283 0.09633,0.180968 0.0942,0.283071 -0.0036,0.179621 -0.142749,0.353469 -0.317813,0.379554 0.247871,-0.01895 0.486345,-0.144725 0.638971,-0.341187 z m -1.675788,-1.470277 c -0.06079,-0.257137 -0.0779,-0.484977 -0.07272,-0.67901 l 0.256205,-0.0279 v 0.699344 l -0.287674,0.608761 0.0039,0.0093 -0.07257,0.255162 -0.0901,-0.216795 0.268227,-0.626208 z m -1.419172,-0.692811 0.986755,0.0528 0.217554,-0.02351 c -0.0033,0.194489 0.01445,0.419617 0.07241,0.673107 l -0.228252,0.533068 -0.574517,0.131685 -0.0011,0.473909 -0.268136,-0.308266 -0.107423,-0.835865 -0.37949,-0.272763 -0.262865,-1.290504 0.350408,0.198262 c 0.05144,0.247132 0.228188,1.095586 0.228188,1.089358 0,-0.0073 -0.03346,-0.421264 -0.03346,-0.421264 z m -0.918762,5.693027 c 0.03212,-0.660822 0.0941,-1.447536 0.213517,-1.911896 l 0.319941,-0.324934 c -0.116797,0.715577 -0.183549,1.492871 -0.220397,2.065238 z m 0.2868,0.292771 c -0.0079,0.16278 -0.01226,0.281856 -0.01423,0.341924 l -0.303295,0.279599 c 0.0023,-0.12424 0.0064,-0.289148 0.01278,-0.478621 z m -0.301971,0.06448 c 0.0031,-0.08769 0.0069,-0.179925 0.01131,-0.275192 l 0.311827,-0.172784 c -0.0069,0.1115 -0.01256,0.213908 -0.01725,0.305378 z m 0.827576,2.279756 c -0.134505,-0.26289 -0.196767,-0.561758 -0.18114,-0.856655 0.213151,-0.136369 0.456699,-0.226191 0.706285,-0.257897 0.005,0.273522 0.07099,0.528076 0.176909,0.761844 -0.290209,0.273671 -0.509088,0.621218 -0.628963,1.001529 -0.03412,-0.04703 -0.06784,-0.09481 -0.100762,-0.144118 -0.0334,-0.05007 -0.06358,-0.100279 -0.09232,-0.150323 0.119248,-0.229076 0.282486,-0.435086 0.478467,-0.603313 -0.119485,0.08296 -0.238973,0.165947 -0.35848,0.248933 z m 0.94335,1.196302 c -0.03383,-0.01868 -0.06686,-0.03806 -0.09529,-0.06417 -0.215409,-0.197807 -0.400368,-0.428382 -0.547782,-0.680811 0.112519,-0.250322 0.270915,-0.479378 0.466878,-0.671891 0.208679,0.391383 0.524256,0.71935 0.835734,0.976035 -0.19887,0.305529 -0.32567,0.651253 -0.371156,1.012142 -0.06731,-0.04627 -0.135718,-0.09587 -0.204705,-0.148502 0.06962,-0.228164 0.139256,-0.456311 0.20885,-0.684476 -0.02403,0.06872 -0.18305,0.322067 -0.292532,0.261674 z m 1.199253,0.514576 c -0.0217,0.07858 -0.07316,0.16035 -0.153839,0.172331 -0.05096,0.0076 -0.101152,-0.01472 -0.147655,-0.03687 -0.124696,-0.05946 -0.302125,-0.168227 -0.438755,-0.247569 0.05675,-0.267902 0.162366,-0.523368 0.311153,-0.755004 0.28578,0.221631 0.556351,0.381071 0.723842,0.471477 l -0.151843,1.009565 c -0.03627,-0.01351 -0.07995,-0.0305 -0.130622,-0.05158 0.0176,-0.265777 0.0352,-0.531551 0.05278,-0.797326 -0.03913,0.07144 -0.04323,0.156251 -0.06506,0.23498 z m 5.916764,0.562349 c -0.05052,0.02111 -0.09435,0.03808 -0.130617,0.05158 L 33.455411,33.90977 c 0.167465,-0.09041 0.438101,-0.249846 0.723908,-0.471477 0.148802,0.231636 0.254487,0.487102 0.31113,0.755004 -0.13672,0.07934 -0.314017,0.188105 -0.438712,0.247569 -0.04657,0.02215 -0.09679,0.04446 -0.147763,0.03687 -0.08068,-0.01199 -0.131968,-0.09375 -0.153821,-0.172332 -0.02168,-0.07873 -0.02593,-0.163539 -0.06508,-0.23498 0.0176,0.265775 0.03519,0.531549 0.0528,0.797326 z m 1.127788,-0.654121 c -0.06901,0.05263 -0.137364,0.102235 -0.204641,0.148503 -0.04558,-0.361042 -0.172307,-0.706765 -0.371091,-1.012142 0.311414,-0.256686 0.626948,-0.584652 0.835716,-0.976035 0.195959,0.192513 0.354378,0.421569 0.467008,0.671891 -0.147569,0.252429 -0.332459,0.483004 -0.547954,0.68081 -0.02842,0.02611 -0.06141,0.0455 -0.09527,0.06417 -0.109375,0.06039 -0.268443,-0.192949 -0.292532,-0.261675 0.06967,0.228165 0.139322,0.456312 0.208764,0.684476 z m 1.147127,-1.26457 c -0.02864,0.05004 -0.05881,0.100106 -0.09244,0.15017 -0.03277,0.04931 -0.06662,0.0971 -0.100693,0.144118 -0.119794,-0.380311 -0.338539,-0.727706 -0.628904,-1.001529 0.105905,-0.233768 0.171873,-0.488321 0.176866,-0.761844 0.249779,0.03171 0.493053,0.121528 0.706376,0.257898 0.01562,0.294896 -0.04666,0.593764 -0.181205,0.856654 -0.119575,-0.08299 -0.23893,-0.165971 -0.358505,-0.248933 0.195962,0.168227 0.359154,0.374386 0.47851,0.603466 z m 0.37934,-3.165534 c -0.03689,-0.572215 -0.103734,-1.348316 -0.220488,-2.062829 l 0.320097,0.324782 c 0.119135,0.46436 0.181204,1.250466 0.213322,1.911287 z m 0.33094,0.609674 c 0.0065,0.189473 0.01042,0.354381 0.01281,0.478621 l -0.303166,-0.279727 c -0.0019,-0.06009 -0.0063,-0.179016 -0.01432,-0.341796 z m -0.308588,-0.222695 c -0.0048,-0.09102 -0.01042,-0.192817 -0.01737,-0.303557 l 0.312062,0.172632 c 0.0041,0.09511 0.0081,0.187041 0.01107,0.274583 z M 26.069668,20.705611 c 0.02249,0.06463 0.05861,0.12576 0.0972,0.182789 0.164323,0.242424 0.38036,0.44965 0.629447,0.603773 -0.134398,-0.112868 -0.237977,-0.26213 -0.296742,-0.427494 0.284589,0.267447 0.649884,0.447979 1.035231,0.51154 0.385351,0.06372 0.789339,0.01016 1.144761,-0.151691 -0.215709,0.221787 -0.523976,0.35056 -0.833282,0.348456 0.515792,0.06035 1.055829,-0.15323 1.390635,-0.550233 -0.01304,0.314625 -0.173241,0.620002 -0.424758,0.809475 0.216622,-0.148802 0.409282,-0.336323 0.544007,-0.561886 0.107245,-0.179469 0.175494,-0.384111 0.188713,-0.592249 h 0.0074 l 0.123335,-0.123325 h 0.528684 l 0.386844,-0.515643 0.04475,-0.679835 -0.0704,-0.0046 -0.04338,0.658957 -0.353014,0.47072 h -0.422935 l 0.660803,-0.660801 v -0.628443 l -0.17005,-0.15191 c 0.17825,0.01 0.359369,0.01824 0.545958,0.023 h 0.0055 c 0.186585,-0.0048 0.367725,-0.013 0.546131,-0.023 l -0.170072,0.15191 v 0.628443 l 0.660824,0.660801 h -0.42309 l -0.353013,-0.47072 -0.04338,-0.658957 -0.07025,0.0046 0.04459,0.679835 0.386848,0.515643 h 0.528663 l 0.123329,0.123325 h 0.0074 c 0.01334,0.208138 0.08147,0.41278 0.188712,0.592249 0.13472,0.225563 0.327514,0.413084 0.544006,0.561886 -0.251517,-0.189473 -0.411715,-0.49485 -0.424629,-0.809475 0.334808,0.397003 0.874861,0.610586 1.390658,0.550233 -0.309483,0.002 -0.617573,-0.126669 -0.833459,-0.348456 0.355599,0.161848 0.759436,0.215408 1.14474,0.151691 0.385458,-0.06357 0.750688,-0.244093 1.035407,-0.51154 -0.05881,0.165364 -0.162542,0.314626 -0.296871,0.427494 0.249131,-0.154123 0.465274,-0.361349 0.629549,-0.603773 0.03841,-0.05703 0.07465,-0.118161 0.09722,-0.182789 0.222439,0.395483 0.480901,0.861647 0.779075,1.407476 L 34.35912,23.44107 c -0.01215,-0.0093 -0.02387,-0.01821 -0.03624,-0.02716 -0.02735,-0.01989 -0.05532,-0.03885 -0.08368,-0.05673 -0.05673,-0.03612 -0.11528,-0.06843 -0.17522,-0.09787 -0.119682,-0.0587 -0.245135,-0.104363 -0.373628,-0.135761 -0.128339,-0.03185 -0.259718,-0.0484 -0.390619,-0.05159 -0.130928,-0.002 -0.261395,0.0097 -0.388671,0.03429 0.1291,-0.01304 0.25881,-0.01273 0.386392,0.001 0.127581,0.01472 0.252884,0.04231 0.373018,0.0839 0.120314,0.04125 0.235288,0.09557 0.34284,0.161108 0.05386,0.03262 0.1059,0.06795 0.155356,0.106031 0.02472,0.01912 0.04885,0.03885 0.0722,0.05916 0.01958,0.01713 0.0396,0.03581 0.0564,0.0531 0.01779,0.03808 0.08919,0.202819 0.124348,0.468442 -0.09114,-0.009 -0.18333,-0.01939 -0.27617,-0.02959 -0.04125,-0.07873 -0.08556,-0.157463 -0.137889,-0.233764 -0.06082,-0.09132 -0.133503,-0.178863 -0.218595,-0.257289 -0.02094,-0.01925 -0.04401,-0.03822 -0.06918,-0.05734 -0.01289,-0.01016 -0.02186,-0.01577 -0.03292,-0.02382 l -0.01882,-0.01304 -0.01881,-0.01182 c -0.04989,-0.03246 -0.102993,-0.0587 -0.157617,-0.08101 -0.109677,-0.04338 -0.225713,-0.06645 -0.342075,-0.07129 -0.0584,-0.001 -0.116642,0.0023 -0.174303,0.01047 -0.05824,0.0096 -0.112414,0.02064 -0.171873,0.04095 -0.05067,0.01699 -0.107401,0.04127 -0.156096,0.0707 -0.04991,0.02898 -0.09801,0.06068 -0.140018,0.09937 -0.08633,0.07432 -0.156269,0.16519 -0.206314,0.263801 -0.05006,0.0983 -0.07934,0.207375 -0.08177,0.313255 0.02457,-0.04794 0.05021,-0.09253 0.07827,-0.135003 0.02942,-0.04173 0.05854,-0.08222 0.09223,-0.118791 0.03368,-0.03626 0.06675,-0.0719 0.104817,-0.102235 0.03702,-0.03094 0.07465,-0.06055 0.115296,-0.08496 0.04037,-0.02456 0.08116,-0.04763 0.123935,-0.06584 0.04323,-0.01929 0.08435,-0.03154 0.132901,-0.0452 0.03973,-0.01047 0.08843,-0.01747 0.133202,-0.02141 0.04566,-0.0034 0.09162,-0.002 0.137128,0.0014 0.09117,0.0077 0.180814,0.02942 0.263192,0.06614 0.01335,0.0058 0.02626,0.0123 0.0393,0.01868 -0.166576,0.04141 -0.306744,0.121203 -0.417942,0.240147 -0.165037,0.176885 -0.2327,0.403512 -0.259718,0.583284 l -0.168988,-0.219811 -0.206769,0.467985 -0.248176,-0.361649 -0.24787,0.389275 -0.283854,-0.395351 -0.251668,0.457547 -0.279274,-0.38411 -0.2896,0.498325 -0.289581,-0.498325 -0.279297,0.38411 -0.251517,-0.457547 -0.283978,0.395351 -0.24772,-0.389275 -0.248348,0.361801 -0.206769,-0.468137 -0.168988,0.219811 c -0.027,-0.179772 -0.09466,-0.406551 -0.2597,-0.583284 -0.111193,-0.118944 -0.251689,-0.198589 -0.418247,-0.239996 0.01319,-0.0064 0.02624,-0.0129 0.03958,-0.01881 0.08238,-0.03672 0.1722,-0.0584 0.263212,-0.06614 0.04551,-0.0035 0.09147,-0.0047 0.137133,-0.0014 0.04475,0.0039 0.09344,0.01091 0.133202,0.02141 0.0487,0.01364 0.08965,0.02594 0.132875,0.0452 0.0428,0.01821 0.0836,0.04127 0.123958,0.06584 0.0408,0.02442 0.07827,0.05401 0.115429,0.08496 0.03793,0.03033 0.071,0.06597 0.104838,0.102234 0.03353,0.03656 0.06281,0.07706 0.09208,0.118792 0.02805,0.04246 0.05368,0.08707 0.07827,0.135002 -0.0023,-0.105879 -0.03155,-0.214951 -0.08177,-0.313255 -0.05007,-0.09861 -0.119982,-0.189476 -0.206158,-0.263801 -0.04217,-0.03869 -0.09026,-0.0704 -0.140018,-0.09937 -0.04869,-0.02942 -0.105578,-0.05371 -0.156247,-0.0707 -0.05949,-0.0203 -0.113627,-0.03142 -0.171873,-0.04095 -0.05766,-0.0082 -0.115907,-0.01138 -0.174153,-0.01047 -0.116513,0.0048 -0.232574,0.0279 -0.34225,0.07129 -0.05445,0.02232 -0.107702,0.04855 -0.157614,0.08101 l -0.01879,0.01182 -0.01881,0.01304 c -0.01109,0.0081 -0.02003,0.01368 -0.03292,0.02382 -0.02505,0.01912 -0.04824,0.03809 -0.06903,0.05733 -0.08529,0.07843 -0.157812,0.165971 -0.218707,0.257289 -0.05227,0.0763 -0.09661,0.155032 -0.137954,0.233765 -0.09273,0.01017 -0.184829,0.02064 -0.276105,0.02959 0.03511,-0.265622 0.106554,-0.430358 0.124327,-0.468441 0.01686,-0.0173 0.03681,-0.03596 0.05642,-0.0531 0.02333,-0.0203 0.04744,-0.04004 0.07218,-0.05916 0.04948,-0.03808 0.101519,-0.07341 0.155297,-0.106031 0.107573,-0.06554 0.222719,-0.119856 0.342878,-0.161108 0.120138,-0.04158 0.245592,-0.06918 0.373023,-0.0839 0.127582,-0.01365 0.257287,-0.01395 0.386387,-0.001 -0.127277,-0.02456 -0.257743,-0.03624 -0.388666,-0.03429 -0.130773,0.0031 -0.262281,0.01972 -0.390623,0.05159 -0.128339,0.03142 -0.253882,0.07706 -0.373629,0.135761 -0.0599,0.02945 -0.118487,0.06176 -0.175193,0.09787 -0.02839,0.01787 -0.05627,0.03685 -0.08377,0.05673 -0.01232,0.009 -0.02415,0.0179 -0.03604,0.02715 l -1.921749,-1.327983 c 0.298045,-0.54583 0.556614,-1.011993 0.779182,-1.407477 z m 3.61492,-0.258657 -0.219812,0.219811 h -0.765185 l -1.972402,-1.107976 c 0.06586,-0.112237 0.12474,-0.211412 0.176652,-0.298217 l 2.123874,1.139206 z m -0.63016,-0.112868 -2.114329,-1.134062 c 0.106661,-0.177297 0.180947,-0.297088 0.226628,-0.369569 0.687885,0.142141 2.651042,0.549257 2.738128,0.585715 0.105729,0.04384 0.140925,0.432786 0.140925,0.432786 l 0.04445,-0.453187 0.105294,0.09397 v 0.446243 l -0.445395,0.445439 z m 2.766707,0.04733 -0.445394,-0.445438 v -0.446243 l 0.105273,-0.09397 0.04446,0.453187 c 0,0 0.03518,-0.388951 0.140929,-0.432786 0.08706,-0.03646 2.050372,-0.443575 2.738102,-0.585716 0.04579,0.07248 0.12001,0.192273 0.226779,0.369569 l -2.114454,1.134063 z m 0.71573,0.02202 2.130664,-1.142851 c 0.05186,0.08681 0.110678,0.18598 0.176647,0.298217 l -1.972354,1.107976 h -0.765336 l -0.219205,-0.219203 z m -0.172201,-4.707272 c -0.0018,0.11914 -0.03122,0.241317 -0.10436,0.335283 -0.09922,0.127602 -0.258634,0.183157 -0.418682,0.221567 -0.0015,-0.07964 -0.01215,-0.157114 -0.03034,-0.231551 0.06567,-0.147351 0.324172,-0.754548 0.402293,-1.353501 0.179017,0.304901 0.432658,0.835929 0.403231,1.352633 -0.04504,0.03168 -0.09164,0.06337 -0.140013,0.09462 -0.0041,-0.264538 -0.05766,-0.528208 -0.158074,-0.772781 0.02381,0.116536 0.04762,0.234592 0.04594,0.353732 z M 30.78562,15.426421 c 0.466337,0 0.845586,0.379338 0.845586,0.845479 0,0.46614 -0.379249,0.845478 -0.845586,0.845478 -0.466164,0 -0.845413,-0.379338 -0.845413,-0.845478 0,-0.466141 0.379249,-0.845479 0.845413,-0.845479 z m 0.152622,-0.539925 c -0.06858,0.0228 -0.118792,0.03429 -0.152622,0.04036 -0.03383,-0.006 -0.08403,-0.01756 -0.152604,-0.04036 -0.140929,-0.04666 -0.20692,-1.538401 -0.20692,-1.538401 v 1.931192 c -0.07205,0.02624 -0.140319,0.05967 -0.204189,0.100043 v -2.422506 l 0.563713,-1.443131 0.563731,1.443131 v 2.422506 c -0.06386,-0.04037 -0.13214,-0.07378 -0.204034,-0.100043 v -1.931192 c 0,0 -0.06614,1.491742 -0.207075,1.538401 z m -1.115159,1.819425 c 0.166125,0.366754 0.53461,0.622827 0.962537,0.622827 0.427945,0 0.796585,-0.256073 0.962555,-0.622827 0.748779,-0.252381 1.315224,-0.737622 1.601486,-1.023426 -0.0816,0.872823 -0.35755,1.468521 -0.69993,1.875201 -0.01775,0.01756 -0.02808,0.02736 -0.02885,0.028 l 0.0024,0.0027 c -0.740291,0.850255 -1.770341,0.844178 -1.835419,0.844178 h -0.0046 c -0.06537,0.0014 -1.095563,0.0072 -1.835725,-0.843958 l 0.0027,-0.0031 c -7.77e-4,-6.75e-4 -0.01228,-0.01152 -0.03262,-0.03188 -0.340707,-0.4069 -0.614837,-1.001513 -0.695999,-1.871297 0.286107,0.285808 0.852556,0.771046 1.601353,1.023431 z m -0.728616,-0.590704 c -0.0484,-0.03125 -0.09497,-0.06294 -0.140018,-0.09462 -0.02942,-0.516704 0.22422,-1.047733 0.40321,-1.352634 0.07814,0.598733 0.33663,1.206151 0.402319,1.353502 -0.01821,0.07444 -0.02882,0.15191 -0.03018,0.231551 -0.160199,-0.03841 -0.319636,-0.09397 -0.418833,-0.221567 -0.07313,-0.09397 -0.102563,-0.216143 -0.104382,-0.335283 -0.0017,-0.11914 0.02216,-0.237196 0.04596,-0.353732 -0.100431,0.244572 -0.153968,0.508243 -0.15807,0.772781 z m -3.860602,1.806408 c -0.185935,-0.08463 -0.316359,-0.152778 -0.389883,-0.193142 l 0.362586,-1.144302 c 1.368108,0.706589 3.364986,1.124989 3.624096,1.177505 0.791425,0.862407 1.865462,0.882372 1.952093,0.882372 0.0015,0 0.0019,0 0.0029,0 8.87e-4,0 0.0014,0 0.0031,0 0.08679,0 1.160667,-0.01996 1.951937,-0.882372 0.258634,-0.0523 2.255709,-0.470697 3.624187,-1.177505 l 0.362409,1.144302 c -0.07335,0.04036 -0.203557,0.108724 -0.389535,0.193358 -0.0701,-0.256074 -0.16428,-0.505639 -0.284288,-0.742615 0.05816,0.1875 0.104816,0.394311 0.03017,0.575735 -0.09548,0.23242 -0.353512,0.345264 -0.587885,0.435759 -0.278642,0.107638 -0.557284,0.215274 -0.836146,0.322914 -0.971541,0.263453 -2.266606,0.498477 -3.873881,0.541229 -1.609079,-0.04276 -2.90642,-0.27908 -3.879157,-0.543398 -0.276947,-0.106987 -0.553878,-0.213975 -0.830831,-0.320745 -0.234329,-0.0905 -0.492377,-0.203339 -0.587928,-0.435759 -0.07463,-0.181424 -0.02795,-0.388235 0.0301,-0.575735 -0.119923,0.23676 -0.214105,0.486109 -0.28394,0.742399 z m -0.742528,4.738501 c 0.0589,0.08481 -1.347298,2.789015 -1.347298,2.789015 l 1.234062,-2.091799 c -0.55399,1.034907 -1.207479,2.276109 -1.972964,3.75869 l -0.58782,-0.342227 c 0.229014,-0.414449 1.222494,-2.202239 2.455271,-4.279022 0.07841,0.04642 0.183398,0.114388 0.218749,0.165343 z M 22.533196,20.86051 c 0.598889,0.343444 0.836687,1.109689 -0.0088,2.492448 l 1.640024,-2.48455 c 0.06185,0.05156 0.110115,0.09269 0.144899,0.122872 l -2.587975,4.454217 -2.246379,-1.902002 c 0.330597,-0.517012 2.204844,-3.443461 2.695548,-4.119931 0.08796,0.05621 0.173611,0.111676 0.257117,0.166599 l -1.682322,2.732292 c 0,0 1.18901,-1.805388 1.787899,-1.461945 z m 1.604892,9.63375 -0.01268,0.808411 -0.736365,-0.369245 -0.307569,-1.053096 z m -0.93478,-0.787646 c 0.01547,-0.04991 0.03432,-0.10892 0.03806,-0.11226 0.0065,-0.0057 0.84485,0.381678 0.84485,0.381678 L 22.65919,29.161717 c 0.0059,-0.01851 0.01173,-0.03702 0.01758,-0.05553 l 1.561576,0.851186 0.418918,-0.07326 c -0.0063,0.12348 -0.0115,0.24288 -0.01582,0.3559 l -0.37903,0.08207 z m 2.415255,4.285858 -0.41393,0.433393 -1.012295,-1.412488 0.384242,-0.425669 z m 0.647562,0.5182 -1.93861,-2.613495 0.0216,-1.377595 0.284762,-0.06173 c -0.01144,0.366966 -0.01319,0.627423 -0.01335,0.657761 l -0.0013,0.243033 0.0031,-0.0031 0.38813,0.256226 c -0.01339,0.462084 0.08249,1.032326 0.464491,1.604846 0.924927,1.385927 2.30812,1.87032 2.518837,1.937505 l 0.714796,0.695848 0.111065,1.004573 c -0.728161,-0.23802 -1.247514,-0.944785 -1.345648,-1.086342 v -0.551426 z m 5.703229,1.278072 -0.05447,0.769132 -0.793851,1.509103 H 30.78562 30.450228 l -0.793699,-1.509103 -0.05463,-0.769132 0.461477,0.904289 h 0.722238 0.722412 z m -0.590877,0.692963 H 30.78562 30.192786 l -1.4269,-2.796744 v -0.40594 l 0.112717,-0.06341 1.357108,2.884285 0.539296,0.08205 h 0.02125 l 0.539448,-0.08205 1.356953,-2.884285 0.112866,0.06341 v 0.40594 z m 5.616291,-3.893999 0.384108,0.425669 -1.012144,1.412488 -0.414059,-0.433245 z m -1.689442,1.922964 -1.208081,0.706157 v 0.551429 c -0.09801,0.141558 -0.616055,0.84817 -1.345737,1.086339 l 0.111047,-1.004722 0.714817,-0.695696 c 0.210717,-0.06719 1.593841,-0.551581 2.518966,-1.937504 0.381941,-0.572524 0.477861,-1.142766 0.464406,-1.604847 l 0.388231,-0.256229 0.0031,0.0031 -0.0013,-0.243033 c 0,-0.03033 -0.0017,-0.290795 -0.01323,-0.657765 l 0.284718,0.06174 0.0217,1.377594 z m 3.184654,-4.630342 -0.307724,1.053096 -0.736323,0.369245 -0.0128,-0.808411 z m -0.160156,-0.285976 c 0.0039,0.0034 0.02257,0.06235 0.03819,0.11226 l -1.05902,0.615466 -0.37912,-0.08207 c -0.0044,-0.11302 -0.0095,-0.23242 -0.01584,-0.355901 l 0.419051,0.07326 1.561619,-0.851186 c 0.0056,0.01851 0.0115,0.03702 0.01758,0.05553 l -1.427287,0.814316 c 0,0 0.838318,-0.387431 0.844829,-0.381679 z m -1.031026,-7.099571 c 1.232631,2.076783 2.226112,3.864573 2.455277,4.279022 l -0.587885,0.342227 c -0.765405,-1.48241 -1.418828,-2.723479 -1.972857,-3.758538 l 1.233929,2.091647 c 0,0 -1.406237,-2.704209 -1.347209,-2.789015 0.03537,-0.05095 0.140191,-0.118924 0.218745,-0.165343 z m 1.739355,-1.634273 c 0.598953,-0.343443 1.787744,1.461945 1.787744,1.461945 l -1.682278,-2.732292 c 0.08355,-0.05495 0.169271,-0.110392 0.257158,-0.166599 0.490667,0.676319 2.364999,3.602919 2.695506,4.119931 l -2.246507,1.902002 -2.587649,-4.454217 c 0.03472,-0.0302 0.0829,-0.07131 0.144744,-0.122872 l 1.639959,2.48455 c -0.845477,-1.382759 -0.607631,-2.149004 -0.0087,-2.492448 z m 7.053541,-5.001583 c -0.798171,0.115668 -4.456996,0.776249 -8.218462,3.543155 -0.04818,-0.09223 -0.08681,-0.245225 0.05859,-0.394095 0.229384,-0.234808 2.365647,-1.573556 2.365647,-1.573556 -1.924024,0.951817 -3.403398,2.189479 -3.774486,2.512457 -0.02366,-0.02918 -0.04731,-0.05816 -0.07096,-0.08676 0.567705,-0.501666 4.372796,-3.714963 9.393149,-4.424592 z m -2.308356,-4.385381 -0.06836,0.0076 c -0.03407,0.0037 -3.387993,0.391491 -6.862137,2.621721 0.592223,-2.084616 0.654507,-3.797057 0.5664,-4.9921433 C 37.285128,7.2873889 36.796417,6.2633089 36.775798,6.2205589 l -0.194655,-0.401039 -0.006,0.445742 c -0.04536,3.3875388 -2.082447,3.8263371 -2.169035,3.8432621 l -0.107856,0.02084 0.02496,0.107204 c 0.163626,0.698779 0.240449,1.349816 0.254987,1.950069 -1.477852,-1.627587 -3.725898,-1.599594 -3.792805,-1.59851 -0.07432,-10e-4 -2.31706,-0.02604 -3.792134,1.598294 0.01461,-0.600037 0.09141,-1.251074 0.255012,-1.949853 l 0.02474,-0.106768 -0.107508,-0.02104 c -0.0867,-0.01713 -2.123962,-0.4559403 -2.169122,-3.8434991 l -0.006,-0.445742 -0.194789,0.401038 c -0.02075,0.04276 -0.509479,1.066831 -0.643658,2.8901658 -0.08798,1.1950863 -0.02569,2.9075283 0.566556,4.9921433 -3.474167,-2.230229 -6.827981,-2.618032 -6.862223,-2.62172 l -0.06827,-0.0076 -2.57105,4.416411 -0.01033,0.0178 -0.136457,0.95485 0.113258,0.0078 c 2.432184,0.17144 4.700218,1.189445 6.37488,2.177717 -0.858198,1.123514 -3.049757,4.624158 -3.145479,4.777216 l -0.04646,0.07417 0.527772,0.487714 c -0.780833,1.042504 -2.063307,3.649926 -2.118883,3.763098 l -0.02365,0.04824 0.02498,0.04749 c 1.096147,2.086331 4.130385,3.51019 4.259034,3.569805 l 0.826032,0.248954 0.02582,-0.109244 c 0.07112,-0.300669 0.144924,-0.595869 0.220722,-0.885473 l 0.266318,0.197981 c 0.08861,0.653813 0.207488,1.554023 0.234072,1.814937 l -0.301386,0.240449 0.880567,1.353764 0.349389,-0.09041 1.923835,2.302825 1.146301,0.07387 c 0.839878,1.048712 2.164542,1.206326 2.478884,1.228916 l 0.903681,1.964831 h 0.795806 0.795824 l 0.903685,-1.964831 c 0.314471,-0.0226 1.638957,-0.180204 2.478841,-1.228916 l 1.146258,-0.07387 1.924024,-2.302825 0.349389,0.09041 0.880421,-1.353764 -0.301429,-0.240449 c 0.02669,-0.260914 0.145612,-1.161255 0.234153,-1.814937 l 0.26649,-0.197981 c 0.07552,0.289604 0.149521,0.584804 0.220701,0.885473 l 0.02582,0.109244 0.811842,-0.243638 0.0141,-0.0053 c 0.128687,-0.05962 3.162951,-1.483473 4.258862,-3.569805 l 0.02518,-0.04749 -0.02365,-0.04824 c -0.05556,-0.113169 -1.338321,-2.72122 -2.119133,-3.763399 l 0.527993,-0.48741 -0.04644,-0.07417 c -0.09592,-0.153058 -2.287307,-3.653702 -3.145586,-4.777216 1.674678,-0.988272 3.94267,-2.006277 6.37494,-2.177717 l 0.113283,-0.0078 -0.136284,-0.95485 -2.581573,-4.434209" /><path
         id="path2"
         style="fill:#951723;fill-opacity:1;fill-rule:nonzero;stroke:none;stroke-width:0.00158984"
         d="m 31.472454,23.682145 c -0.323044,0.185769 -0.673835,-0.147168 -0.673835,-0.147168 0,0 -0.350789,0.332213 -0.673834,0.147168 -0.323045,-0.185769 -0.387702,-0.489272 -0.387702,-0.489272 l 0.692411,-2.233812 c 0,0 0.166469,-0.202657 0.369125,-0.08203 0.202658,-0.12063 0.369126,0.08203 0.369126,0.08203 l 0.69217,2.233812 c 0,0 -0.06514,0.304709 -0.387702,0.489272" /></g><text
       xml:space="preserve"
       transform="matrix(1.0067074,0,0,1.0067074,-1192.9039,377.54927)"
       id="text5"
       style="font-size:38.7745px;font-family:'Poplar Std';-inkscape-font-specification:'Poplar Std';white-space:pre;shape-inside:url(#rect6);opacity:0.276081;fill:none;fill-opacity:1;stroke:#951723;stroke-width:1.3146;stroke-linecap:round;stroke-linejoin:round;stroke-opacity:1"><tspan
         x="1814.2656"
         y="-209.04619"
         id="tspan2"><tspan
           style="font-family:de;-inkscape-font-specification:de"
           id="tspan1"></tspan></tspan></text></g><style
     type="text/css"
     id="style2">&#10;	.st0{fill:#231F20;}&#10;</style></svg>
