<?xml version="1.0" encoding="UTF-8" standalone="no"?>
<!-- Created with Inkscape (http://www.inkscape.org/) -->

<svg
   width="44.487595mm"
   height="56.423077mm"
   viewBox="0 0 44.487595 56.423077"
   version="1.1"
   id="svg1"
   xml:space="preserve"
   inkscape:version="1.3 (0e150ed6c4, 2023-07-21)"
   sodipodi:docname="about us baru.svg"
   xmlns:inkscape="http://www.inkscape.org/namespaces/inkscape"
   xmlns:sodipodi="http://sodipodi.sourceforge.net/DTD/sodipodi-0.dtd"
   xmlns="http://www.w3.org/2000/svg"
   xmlns:svg="http://www.w3.org/2000/svg"><sodipodi:namedview
     id="namedview1"
     pagecolor="#ffffff"
     bordercolor="#000000"
     borderopacity="0.25"
     inkscape:showpageshadow="2"
     inkscape:pageopacity="0.0"
     inkscape:pagecheckerboard="0"
     inkscape:deskcolor="#d1d1d1"
     inkscape:document-units="mm"
     showguides="false"
     inkscape:zoom="0.48945419"
     inkscape:cx="1750.9299"
     inkscape:cy="1623.2367"
     inkscape:window-width="1920"
     inkscape:window-height="991"
     inkscape:window-x="-9"
     inkscape:window-y="-9"
     inkscape:window-maximized="1"
     inkscape:current-layer="layer1" /><defs
     id="defs1" /><g
     inkscape:label="Layer 1"
     inkscape:groupmode="layer"
     id="layer1"
     transform="translate(-957.93679,-396.18914)"><path
       style="fill:#000000;fill-opacity:1;stroke-width:0.828891"
       d="m 969.96396,452.37958 c -1.18307,-0.55157 -2.15815,-1.80643 -2.15815,-2.77738 0,-0.37407 0.13802,-0.44871 0.82242,-0.44476 0.71041,0.004 0.86722,0.10111 1.15138,0.7123 0.39183,0.84275 1.26323,1.21557 2.13828,0.91483 0.34992,-0.12026 0.7412,-0.50431 0.93207,-0.91483 0.28416,-0.61119 0.44097,-0.7082 1.15138,-0.7123 0.68439,-0.004 0.82242,0.0707 0.82242,0.44476 0,1.93585 -2.99434,3.64712 -4.8598,2.77738 z m -7.4216,-3.59264 c -2.48296,-1.02205 -3.06236,-4.08253 -1.10728,-5.84883 1.28515,-1.16105 3.01247,-1.25424 4.55187,-0.24558 0.64493,0.42257 1.37014,1.92474 1.37182,2.84154 0.002,0.81993 -0.78644,2.22879 -1.57248,2.81162 -0.60066,0.44536 -2.57989,0.71459 -3.24393,0.44125 z m 2.34625,-1.93728 c 0.90558,-0.6343 0.83523,-2.15437 -0.13414,-2.89863 -0.8738,-0.67088 -2.30146,-0.0983 -2.72156,1.09149 -0.17108,0.48453 0.19509,1.50093 0.67089,1.86224 0.49184,0.37348 1.6133,0.3452 2.18481,-0.0551 z m 4.76461,1.65336 c -2.25546,-1.148 -2.4729,-4.27089 -0.40703,-5.84591 0.80203,-0.61147 0.90007,-0.63001 3.01589,-0.57039 1.20281,0.0339 2.27124,0.11373 2.3743,0.17742 0.2554,0.15785 0.23767,1.12951 -0.0235,1.29095 -0.13504,0.0834 -0.13504,0.32999 0,0.68515 1.1139,2.92977 -2.11912,5.70853 -4.9596,4.26278 z m 2.96151,-1.90198 c 0.61523,-0.78213 0.58216,-1.72689 -0.0838,-2.39281 -0.75465,-0.75465 -1.90563,-0.73657 -2.51612,0.0395 -0.97676,1.24174 -0.22753,2.93111 1.29994,2.93111 0.6521,0 0.94935,-0.13213 1.29995,-0.57785 z m 10.54721,1.94821 c -1.11547,-0.56043 -1.75886,-1.64307 -1.75886,-2.95965 0,-2.19833 1.29439,-3.54884 3.40139,-3.54884 1.83735,0 3.03997,1.14455 3.20965,3.05468 l 0.0779,0.87725 -2.41242,0.10965 c -1.32683,0.0604 -2.38775,0.18368 -2.35759,0.27414 0.0302,0.0905 0.0548,0.24734 0.0548,0.34859 0,0.24739 1.00737,0.69314 1.56648,0.69314 0.24711,0 0.72794,-0.16461 1.06853,-0.36579 0.5782,-0.34155 0.65627,-0.34153 1.17817,4.3e-4 0.72635,0.47592 0.55258,0.88789 -0.61236,1.45183 -1.13554,0.54971 -2.40248,0.57366 -3.41576,0.0646 z m 3.06597,-3.98642 c 0,-0.33064 -0.64909,-0.88233 -1.20111,-1.02088 -0.71899,-0.18046 -1.85372,0.46421 -1.86588,1.06004 -0.002,0.0905 0.68747,0.16449 1.53182,0.16449 0.84434,0 1.53517,-0.0916 1.53517,-0.20365 z m 4.60553,4.21083 c -0.18093,-0.0688 -0.56925,-0.3116 -0.86294,-0.53957 -1.89667,-1.47225 -1.76896,-4.2352 0.26542,-5.74238 1.11666,-0.82727 4.07201,-0.39626 4.47449,0.65256 0.0697,0.18161 -0.0962,0.56535 -0.37084,0.85764 l -0.49695,0.52898 -0.54727,-0.43048 c -1.45477,-1.14433 -3.47246,0.24704 -2.86892,1.97835 0.38603,1.10737 1.7533,1.4713 2.79263,0.74333 0.48397,-0.33899 0.53756,-0.32867 1.07297,0.20674 0.49788,0.49787 0.52726,0.60733 0.25214,0.93906 -0.64425,0.77683 -2.64456,1.21119 -3.71073,0.80577 z m -32.89661,-4.66511 v -4.60553 h 0.87724 0.87725 v 4.60553 4.60552 h -0.87725 -0.87724 z m 17.54486,1.3291 v -3.3029 h 0.74201 c 0.93515,0 0.9477,0.0492 0.92275,3.61862 l -0.0199,2.85105 -0.82242,0.068 -0.82241,0.0681 z m 3.07034,0.75435 c 0,-2.37587 -0.0254,-2.52208 -0.43861,-2.52208 -0.62248,0 -0.63272,-1.30617 -0.0115,-1.46862 0.32126,-0.084 0.44355,-0.33709 0.49344,-1.02119 0.0641,-0.87886 0.094,-0.9118 0.88875,-0.97757 l 0.82242,-0.0681 v 0.97456 c 0,0.79011 0.083,0.99627 0.43862,1.08926 0.31471,0.0823 0.43862,0.29915 0.43862,0.76759 0,0.46844 -0.12391,0.68529 -0.43862,0.76758 -0.40537,0.10601 -0.43862,0.29915 -0.43862,2.54766 v 2.43295 h -0.87724 -0.87725 z m 16.88693,-2.08345 v -4.60553 h 0.87725 0.87724 v 1.508 1.508 l 0.95536,-0.34355 c 0.84251,-0.30297 1.05347,-0.30622 1.78576,-0.0275 1.48043,0.56345 1.75473,1.18946 1.75473,4.00448 v 2.45197 l -0.8224,0.068 -0.8224,0.0681 v -2.0479 c 0,-2.37535 -0.2845,-3.02273 -1.32831,-3.02273 -1.20916,0 -1.52274,0.60971 -1.52274,2.9607 v 2.08345 h -0.87724 -0.87725 z m 6.00124,-2.3013 c -0.076,-0.19796 -0.033,-0.46508 0.096,-0.5936 0.3342,-0.33415 0.9673,-0.0288 0.88,0.42447 -0.097,0.50483 -0.8,0.62666 -0.9756,0.16913 z m -26.08833,-0.87871 c -0.33279,-0.50789 -0.33279,-0.58866 0,-1.09655 0.22165,-0.33827 0.56537,-0.54828 0.89741,-0.54828 0.33203,0 0.67576,0.21001 0.8974,0.54828 0.33279,0.50789 0.33279,0.58866 0,1.09655 -0.22164,0.33828 -0.56537,0.54828 -0.8974,0.54828 -0.33204,0 -0.67576,-0.21 -0.89741,-0.54828 z m 2.43258,-8.4674 c -7.32712,-1.05664 -13.35661,-6.37433 -15.26589,-13.46367 -0.66606,-2.47316 -0.66756,-6.73256 -0.003,-9.19833 1.11227,-4.1284 3.84182,-7.9998 7.33469,-10.40296 2.59731,-1.78699 6.03105,-2.99431 8.92135,-3.13676 l 1.42552,-0.0703 0.0598,3.75587 0.0598,3.75586 -1.58476,0.23522 c -2.94542,0.43716 -6.10007,2.52048 -7.53043,4.97307 -1.9098,3.27466 -1.94889,7.50972 -0.0992,10.74623 1.48185,2.59288 4.50529,4.66908 7.54245,5.17941 l 1.66181,0.27923 v 3.79517 3.79517 l -0.6031,-0.0268 c -0.33171,-0.0148 -1.19524,-0.11213 -1.91897,-0.21651 z m 11.46362,-9.35159 -0.0594,-4.33139 -4.38621,-0.10965 -4.38622,-0.10966 v -3.72828 -3.72829 l 8.16932,-0.0575 8.16933,-0.0575 v 8.22683 8.22681 h -3.72365 -3.72364 z"
       id="path12" /></g><style
     type="text/css"
     id="style2">&#10;	.st0{fill:#231F20;}&#10;</style></svg>
