<?xml version="1.0" encoding="UTF-8" standalone="no"?>
<!-- Created with Inkscape (http://www.inkscape.org/) -->

<svg
   width="73.361603mm"
   height="54.771271mm"
   viewBox="0 0 73.361603 54.771271"
   version="1.1"
   id="svg1"
   xml:space="preserve"
   inkscape:version="1.3 (0e150ed6c4, 2023-07-21)"
   sodipodi:docname="about us baru.svg"
   xmlns:inkscape="http://www.inkscape.org/namespaces/inkscape"
   xmlns:sodipodi="http://sodipodi.sourceforge.net/DTD/sodipodi-0.dtd"
   xmlns="http://www.w3.org/2000/svg"
   xmlns:svg="http://www.w3.org/2000/svg"><sodipodi:namedview
     id="namedview1"
     pagecolor="#ffffff"
     bordercolor="#000000"
     borderopacity="0.25"
     inkscape:showpageshadow="2"
     inkscape:pageopacity="0.0"
     inkscape:pagecheckerboard="0"
     inkscape:deskcolor="#d1d1d1"
     inkscape:document-units="mm"
     showguides="false"
     inkscape:zoom="0.48945419"
     inkscape:cx="1750.9299"
     inkscape:cy="1623.2367"
     inkscape:window-width="1920"
     inkscape:window-height="991"
     inkscape:window-x="-9"
     inkscape:window-y="-9"
     inkscape:window-maximized="1"
     inkscape:current-layer="layer1" /><defs
     id="defs1" /><g
     inkscape:label="Layer 1"
     inkscape:groupmode="layer"
     id="layer1"
     transform="translate(-762.7477,-397.00829)"><path
       style="fill:#000000;fill-opacity:1;stroke-width:0.417295"
       d="m 931.92274,439.30932 c -0.64913,-1.00749 -1.6155,-2.29368 -2.80176,-3.72901 -1.42593,-1.72533 -5.04338,-5.3096 -6.84643,-6.78366 -1.46333,-1.19631 -1.48042,-1.20634 -1.76641,-1.03697 -0.15883,0.0941 -0.76077,0.46909 -1.33767,0.83338 -2.24445,1.41728 -4.68811,2.50801 -7.71233,3.4424 -7.1551,2.21069 -16.38393,2.92653 -26.40413,2.04806 -1.00196,-0.0879 -2.06886,-0.19234 -2.37088,-0.23223 -0.94269,-0.12449 -0.25207,-0.23491 1.52533,-0.24387 0.90126,-0.004 1.79558,-0.0324 1.98737,-0.0618 0.19179,-0.0294 0.96975,-0.082 1.72882,-0.11663 2.84869,-0.1301 7.46282,-0.63077 9.77122,-1.06025 3.84019,-0.71448 3.94069,-0.73673 6.98762,-1.54769 1.58665,-0.42228 4.31312,-1.34461 6.12363,-2.07153 2.2708,-0.91172 6.59681,-3.16306 6.59681,-3.4331 0,-0.12882 -2.38242,-1.53683 -4.13076,-2.4413 -4.84388,-2.50588 -10.83705,-4.23422 -16.26736,-4.69127 -0.50098,-0.0422 -0.91088,-0.1143 -0.91088,-0.16029 0,-0.15688 0.71685,-0.22034 3.28138,-0.2905 l 2.5637,-0.0701 0.17124,-0.61928 c 0.24434,-0.88362 0.93412,-3.11309 1.05415,-3.40712 l 0.1014,-0.24842 7.26178,0.002 c 3.99397,8.3e-4 7.32774,0.0435 7.40836,0.0946 0.11824,0.0749 0.0925,0.25083 -0.13319,0.90918 -0.15388,0.44895 -0.4523,1.44875 -0.66316,2.22179 -0.21086,0.77304 -0.41182,1.45154 -0.44658,1.50779 -0.0347,0.0563 -0.29915,0.18244 -0.58752,0.28041 -1.0538,0.35807 -3.00686,1.2129 -2.92602,1.28071 0.0457,0.0384 0.57995,0.2628 1.1872,0.4988 1.43096,0.55612 4.19606,1.94977 5.21856,2.63023 l 0.8022,0.53384 0.79596,-0.64597 c 2.1093,-1.71182 4.4884,-4.38208 5.9323,-6.65827 0.61859,-0.97519 1.64392,-3.05545 1.87992,-3.81412 0.30555,-0.98229 0.32812,-0.70614 0.0992,1.2145 -0.48481,4.06823 -2.35919,8.23226 -4.9954,11.09752 -0.96577,1.0497 -0.98369,0.82904 0.15772,1.94212 3.02901,2.95381 5.34593,6.36646 7.11343,10.47754 0.60484,1.40681 1.17865,3.03669 1.0686,3.03529 -0.0417,-4.2e-4 -0.27455,-0.30941 -0.51745,-0.68641 z m -19.42081,-22.13975 c 1.13328,-0.47018 1.27326,-0.55872 1.35283,-0.85567 0.0644,-0.24037 0.048,-0.34695 -0.0598,-0.38854 -0.0817,-0.0315 -1.89829,-0.0494 -4.03677,-0.0397 l -3.88813,0.0177 -0.18278,0.53651 c -0.10054,0.29508 -0.21713,0.69798 -0.2591,0.89534 l -0.0763,0.35883 h 2.94304 2.94304 z m -76.40934,5.28028 c -0.0676,-0.10932 0.53734,-2.41856 0.72521,-2.76846 0.0489,-0.0911 0.33786,-1.0351 0.64215,-2.09779 0.91482,-3.19495 1.13611,-3.91297 1.25045,-4.05753 0.12294,-0.15543 2.9066,-0.19904 3.14236,-0.0492 0.10148,0.0645 0.0419,0.41618 -0.24334,1.43595 -0.20775,0.74281 -0.40381,1.39276 -0.43568,1.44434 -0.0319,0.0516 -0.31078,0.95728 -0.61977,2.01265 -0.97379,3.32604 -1.11288,3.7811 -1.21284,3.96786 -0.0825,0.15416 -0.33438,0.18565 -1.63746,0.20474 -0.97336,0.0143 -1.56613,-0.0198 -1.61108,-0.0925 z m 11.4865,0.007 c -0.037,-0.0598 0.13221,-0.79061 0.37593,-1.62405 0.24371,-0.83344 0.44311,-1.53202 0.44311,-1.55239 0,-0.0204 -1.65199,-0.0501 -3.67111,-0.0661 -3.20032,-0.0254 -3.66533,-0.0503 -3.62609,-0.19471 0.285,-1.04872 0.61317,-2.06964 0.70092,-2.18058 0.0834,-0.1054 0.96769,-0.13801 3.74263,-0.13801 2.81149,0 3.64263,-0.0312 3.67405,-0.13801 0.0223,-0.0759 0.25676,-0.80875 0.52098,-1.62854 l 0.48037,-1.49053 1.57563,-0.0306 c 1.35417,-0.0263 1.58507,-0.006 1.64273,0.14421 0.0369,0.0962 -0.1198,0.75585 -0.34821,1.46596 -0.22842,0.71012 -0.60263,1.93701 -0.83157,2.72644 -0.96575,3.33005 -1.3333,4.51908 -1.43465,4.6412 -0.13636,0.1643 -3.14612,0.22534 -3.24472,0.0658 z m 10.35329,-0.0721 c -0.0516,-0.13461 0.18687,-1.15903 0.37224,-1.59867 0.0384,-0.0911 0.12304,-0.36372 0.1881,-0.60584 0.12669,-0.47156 0.0843,-0.53333 -0.91731,-1.33648 -0.14449,-0.11587 -0.39291,-0.32846 -0.55204,-0.47244 -0.15914,-0.14397 -0.89797,-0.78387 -1.64185,-1.422 -0.74388,-0.63812 -1.35252,-1.18504 -1.35252,-1.21537 0,-0.0695 0.54273,-1.76298 0.67198,-2.09687 0.0931,-0.24053 0.14329,-0.24842 1.58002,-0.24842 0.81612,0 1.55644,0.0279 1.64516,0.0619 0.1406,0.054 0.13889,0.14547 -0.0134,0.71368 -0.096,0.35849 -0.15215,0.66824 -0.12466,0.68834 0.0275,0.0201 0.73456,0.62135 1.57128,1.33613 l 1.52131,1.29959 2.01179,-1.15374 c 1.10649,-0.63456 2.17182,-1.23456 2.36741,-1.33334 0.51769,-0.26144 0.7789,-0.58711 0.86109,-1.07356 0.0912,-0.5401 0.15358,-0.55629 1.98516,-0.51564 l 1.43532,0.0318 -0.0293,0.26525 c -0.0481,0.43513 -0.60122,2.12236 -0.73243,2.23394 -0.10719,0.0912 -1.58928,0.94794 -3.21302,1.85741 -0.30363,0.17007 -1.04889,0.59628 -1.65614,0.94715 -0.60726,0.35087 -1.2819,0.73844 -1.49922,0.86126 -0.36552,0.20659 -0.42754,0.32312 -0.82807,1.55594 l -0.43296,1.3326 -1.57992,0.0195 c -1.25083,0.0154 -1.59205,-0.0122 -1.63808,-0.1321 z m 10.05797,0.0279 c -0.0323,-0.0843 -0.002,-0.29839 0.0683,-0.47586 0.13983,-0.35491 1.00576,-3.21765 1.59846,-5.28444 0.52763,-1.83989 0.95536,-3.08387 1.09271,-3.17794 0.0641,-0.0439 3.39572,-0.0687 7.40358,-0.0552 7.21303,0.0244 7.2868,0.0269 7.26594,0.24544 -0.0235,0.2457 -1.04324,3.70601 -1.22037,4.14092 -0.0849,0.20842 -0.34033,0.36793 -1.03654,0.64728 -0.50814,0.20389 -1.23455,0.51417 -1.61425,0.68949 -0.37969,0.17534 -0.71915,0.3188 -0.75435,0.3188 -0.0352,0 -0.40919,0.1515 -0.83109,0.33667 l -0.76708,0.33667 -3.19858,0.0221 c -2.78114,0.0193 -3.198,4.1e-4 -3.1941,-0.14347 0.002,-0.0911 0.14216,-0.63761 0.31043,-1.2145 l 0.30594,-1.04888 2.64304,-0.0552 2.64305,-0.0552 1.25291,-0.54567 c 0.96142,-0.41871 1.27679,-0.60851 1.3556,-0.81578 0.0565,-0.14856 0.0816,-0.29129 0.0557,-0.31716 -0.0354,-0.0354 -4.7809,-0.0561 -7.87675,-0.0345 -0.19423,0.002 -0.26883,0.0977 -0.36474,0.47095 -0.0663,0.25809 -0.33743,1.16482 -0.60249,2.01497 -0.26507,0.85015 -0.63802,2.09116 -0.82878,2.7578 -0.19076,0.66664 -0.39732,1.24326 -0.459,1.28139 -0.0617,0.0381 -0.80441,0.0795 -1.65047,0.0919 -1.22554,0.018 -1.55023,-0.009 -1.59706,-0.13066 z m 16.2418,0.0396 c -0.0346,-0.056 -0.006,-0.24272 0.0632,-0.41482 0.0694,-0.17208 0.30912,-0.95878 0.53275,-1.7482 0.45453,-1.60448 0.34081,-1.47342 1.8269,-2.10548 l 0.66246,-0.28175 -0.74644,-0.40732 c -0.87279,-0.47628 -0.85958,-0.30079 -0.17878,-2.37472 0.23561,-0.71772 0.42838,-1.37072 0.42838,-1.45112 0,-0.0804 0.0786,-0.17632 0.17464,-0.21318 0.32998,-0.12663 14.60149,-0.0762 14.68064,0.0519 0.0404,0.0654 -7e-5,0.32624 -0.09,0.57965 -0.0899,0.25342 -0.25308,0.7745 -0.36262,1.15795 l -0.19918,0.69719 -5.55603,-0.037 c -3.05581,-0.0203 -5.55603,-0.008 -5.55603,0.0271 0,0.0352 0.18632,0.16046 0.41404,0.27825 1.19647,0.61887 3.11906,1.73257 3.11906,1.80678 0,0.0468 -0.43474,0.26246 -0.96608,0.47919 -2.18715,0.89214 -3.36028,1.38968 -3.42185,1.45126 -0.0359,0.0359 2.35272,0.0652 5.30801,0.0652 5.04529,0 5.37301,0.0118 5.36928,0.19322 -0.002,0.10627 -0.16464,0.66521 -0.36101,1.2421 l -0.35704,1.04889 -7.36064,0.0283 c -4.41287,0.017 -7.38587,-0.0124 -7.42363,-0.0735 z m 16.35972,0.025 c -0.0853,-0.14773 0.75339,-2.94446 0.89735,-2.99244 0.0729,-0.0243 0.77692,0.0953 1.56463,0.26562 1.08347,0.23436 1.43169,0.35111 1.43015,0.47949 -0.002,0.0933 -0.13798,0.6417 -0.30411,1.2186 l -0.30204,1.04888 -1.61695,0.0351 c -0.88932,0.0193 -1.64039,-0.006 -1.66903,-0.0552 z"
       id="path7" /><g
       id="g29"
       style="fill:#000000;fill-opacity:1"
       transform="matrix(0.51379518,0,0,0.51379518,433.9006,213.36531)"><g
         transform="matrix(0.91346903,0,0,0.91346903,638.16381,327.73676)"
         id="g18"
         style="fill:#000000;fill-opacity:1"
         inkscape:export-xdpi="71.156555"
         inkscape:export-ydpi="71.156555"><path
           class="st0"
           d="m 84.1,32.5 c 0,0 6.7,13.7 5.5,19.4 0,0 17.6,5.7 19.5,15.1 0,-0.1 9.6,-12.7 -25,-34.5 z"
           id="path15"
           inkscape:connector-curvature="0"
           style="fill:#000000;fill-opacity:1" /><path
           class="st0"
           d="m 77.3,53 c 1.7,3.6 2.5,7.5 3.5,11.5 l -10,-3.8 c 0.9,-6.1 -5,-15.3 -5,-15.3 z"
           id="path16"
           inkscape:connector-curvature="0"
           style="fill:#000000;fill-opacity:1" /><path
           class="st0"
           d="m 59.5,62.4 c 1.1,2.9 2.4,6.6 3,9.8 L 53.5,70 C 54.4,63.9 48.7,56.6 48.7,56.6 Z"
           id="path17"
           inkscape:connector-curvature="0"
           style="fill:#000000;fill-opacity:1" /><path
           class="st0"
           d="m 79.2,47.8 c 0,0 40.3,28.3 43,39.3 2,8.3 -3.8,15.9 -3.8,15.9 0,0 -3.1,-21.6 -80.3,11.2 C 45.9,105.5 50.2,94.3 49,82.3 48.5,77.4 47.3,72.7 45.2,68.5 L 63.3,78 c 0,0.3 0,0.6 0.1,0.9 0.7,7.3 0.2,14.5 -1.5,21.1 3.7,-7.8 5.5,-16.7 4.6,-25.9 C 66,68.5 64.6,63.2 62.4,58.4 l 19.3,12.9 c 0.1,0.6 0.1,1.3 0.2,1.9 0.8,8.1 0,16 -2.1,23.2 C 84.3,88 86.6,78.2 85.6,68.1 84.9,60.7 82.7,53.9 79.2,47.8 Z"
           id="path18"
           inkscape:connector-curvature="0"
           style="fill:#000000;fill-opacity:1" /></g><g
         id="g28"
         style="fill:#000000;fill-opacity:1"
         transform="matrix(0.61070891,0,0,0.61070891,561.62041,399.27987)"
         inkscape:export-xdpi="71.156555"
         inkscape:export-ydpi="71.156555"><g
           id="g27"
           style="fill:#000000;fill-opacity:1"><path
             class="st0"
             d="m 128.4,83.8 c 0,11.6 9.6,19.7 21.8,19.2 7.3,-0.3 11.6,-3 13.1,-3.7 0,-2.2 0,-6.1 0,-10 v 0 0 c 0,0 -0.7,0 -1.5,0 -1.4,6.1 -5.1,11.2 -11.5,11.2 -7.9,0 -14,-7.7 -14,-16.7 0,-9 6.2,-16.7 14,-16.7 6.4,0 10.1,5 11.5,11.2 0.8,0 1.5,0 1.5,0 v 0 0 c 0,-3.9 0,-7.8 0,-10 -1.5,-0.7 -5.8,-3.3 -13.1,-3.7 -12.2,-0.5 -21.8,7.6 -21.8,19.2 z"
             id="path21"
             inkscape:connector-curvature="0"
             style="fill:#000000;fill-opacity:1" /><path
             class="st0"
             d="m 185.9,64.6 c -10.7,0 -19,8.6 -19,19.3 0,10.6 8.3,19.3 19,19.3 10.7,0 19,-8.6 19,-19.3 0,-10.7 -8.3,-19.3 -19,-19.3 z m 0,36.2 c -6.7,0 -11.2,-7.9 -11.2,-17 0,-9 4.5,-17 11.2,-17 6.7,0 11.2,7.9 11.2,17 0,9 -4.5,17 -11.2,17 z"
             id="path22"
             inkscape:connector-curvature="0"
             style="fill:#000000;fill-opacity:1" /><path
             class="st0"
             d="m 248.5,72.5 c 0,-3.1 3.2,-5.6 6.5,-5.7 3.6,0 7.2,1.6 9.1,8.6 0.2,0 1,0 1,0 V 67 c -1.5,-0.5 -5.1,-2.4 -10.2,-2.4 -6.2,0 -12.4,3.8 -12.4,10.9 0,12.7 17.4,10.3 17.4,18.8 0,4.3 -2.6,6.3 -6.6,6.3 -3.9,0 -8.4,-3.2 -9.9,-9.6 -0.7,0 -1.3,0 -1.3,0 v 9.2 c 1.6,0.5 5.7,2.9 11,2.9 9.2,0 13.7,-6.1 13.7,-11.6 0.1,-13.6 -18.3,-9.5 -18.3,-19 z"
             id="path23"
             inkscape:connector-curvature="0"
             style="fill:#000000;fill-opacity:1" /><path
             class="st0"
             d="m 317.7,69.2 c 0,-0.8 0.5,-1.5 1.1,-1.9 L 321.2,66 V 65.4 H 306.9 V 66 l 2.4,1.3 c 0.7,0.4 1.1,1.1 1.1,1.9 v 29.3 c 0,0.8 -0.5,1.5 -1.1,1.9 l -2.4,1.3 v 0.6 h 14.3 v -0.6 l -2.4,-1.3 c -0.7,-0.4 -1.1,-1.1 -1.1,-1.9 z"
             id="path24"
             inkscape:connector-curvature="0"
             style="fill:#000000;fill-opacity:1" /><path
             class="st0"
             d="M 205.2,65.4 V 66 l 2.4,1.3 c 0.7,0.4 1.1,1.1 1.1,1.9 v 29.3 c 0,0.8 -0.5,1.5 -1.1,1.9 l -2.4,1.3 v 0.6 h 14.3 v -0.6 l -2.4,-1.3 C 216.4,100 216,99.3 216,98.5 V 69.2 c 0,-0.5 0.2,-0.9 0.4,-1.3 0.2,-0.3 0.5,-0.4 0.9,-0.4 h 4.6 c 2.8,0 5.8,3.3 5.8,7.4 V 77 c 0,4.1 -2.7,6.9 -5.8,6.9 h -2.8 c 0,0 9,15.5 10.4,17.2 2,2.5 8.6,5.8 13.7,4.7 -5,-2.7 -9.7,-11.3 -13.6,-18.5 -2.1,-0.3 -3.5,-1 -4.4,-1.6 7.9,0 9.9,-6.5 9.9,-9.7 0,-8.7 -6.1,-10.5 -13,-10.5 h -16.9 z"
             id="path25"
             inkscape:connector-curvature="0"
             style="fill:#000000;fill-opacity:1" /><path
             class="st0"
             d="M 324.2,65.4 V 66 l 2.4,1.3 c 0.7,0.4 1.1,1.1 1.1,1.9 v 29.3 c 0,0.8 -0.5,1.5 -1.1,1.9 l -2.4,1.3 v 0.6 h 14.3 v -0.6 l -2.4,-1.3 C 335.4,100 335,99.3 335,98.5 V 69.2 c 0,-0.5 0.2,-0.9 0.4,-1.3 0.2,-0.3 0.5,-0.4 0.9,-0.4 h 4.6 c 2.8,0 5.8,3.3 5.8,7.4 V 77 c 0,4.1 -2.7,6.9 -5.8,6.9 h -2.8 c 0,0 9,15.5 10.4,17.2 2,2.5 8.6,5.8 13.7,4.7 -5,-2.7 -9.7,-11.3 -13.6,-18.5 -2.1,-0.3 -3.5,-1 -4.4,-1.6 7.9,0 9.9,-6.5 9.9,-9.7 0,-8.7 -6.1,-10.5 -13,-10.5 h -16.9 z"
             id="path26"
             inkscape:connector-curvature="0"
             style="fill:#000000;fill-opacity:1" /><path
             class="st0"
             d="m 302.6,100.4 c -0.5,-0.3 -0.8,-0.7 -1,-1.1 L 288,65.4 h -4.4 L 270,99.3 c -0.2,0.5 -0.5,0.9 -1,1.1 l -2.4,1.3 v 0.6 h 11 v -0.6 l -2.1,-1.1 c -0.7,-0.4 -1.2,-1.1 -1.2,-2 0,-0.3 0.1,-0.6 0.2,-0.8 l 3,-7.4 h 12.8 l 3,7.4 c 0.1,0.2 0.1,0.5 0.1,0.7 0,0.7 -0.3,1.3 -0.8,1.7 -0.1,0.1 -0.2,0.1 -0.3,0.2 l -2.4,1.3 v 0.6 H 305 v -0.6 z m -24.2,-12.7 5.3,-13.2 5.3,13.2 z"
             id="path27"
             inkscape:connector-curvature="0"
             style="fill:#000000;fill-opacity:1" /></g></g></g></g><style
     type="text/css"
     id="style2">&#10;	.st0{fill:#231F20;}&#10;</style></svg>
