<?xml version="1.0" encoding="UTF-8" standalone="no"?>
<!-- Created with Inkscape (http://www.inkscape.org/) -->

<svg
   width="107.14475mm"
   height="33.814442mm"
   viewBox="0 0 107.14475 33.814442"
   version="1.1"
   id="svg1"
   xml:space="preserve"
   inkscape:version="1.3 (0e150ed6c4, 2023-07-21)"
   sodipodi:docname="about us baru.svg"
   xmlns:inkscape="http://www.inkscape.org/namespaces/inkscape"
   xmlns:sodipodi="http://sodipodi.sourceforge.net/DTD/sodipodi-0.dtd"
   xmlns="http://www.w3.org/2000/svg"
   xmlns:svg="http://www.w3.org/2000/svg"><sodipodi:namedview
     id="namedview1"
     pagecolor="#ffffff"
     bordercolor="#000000"
     borderopacity="0.25"
     inkscape:showpageshadow="2"
     inkscape:pageopacity="0.0"
     inkscape:pagecheckerboard="0"
     inkscape:deskcolor="#d1d1d1"
     inkscape:document-units="mm"
     showguides="false"
     inkscape:zoom="0.48945419"
     inkscape:cx="1750.9299"
     inkscape:cy="1623.2367"
     inkscape:window-width="1920"
     inkscape:window-height="991"
     inkscape:window-x="-9"
     inkscape:window-y="-9"
     inkscape:window-maximized="1"
     inkscape:current-layer="layer1" /><defs
     id="defs1" /><g
     inkscape:label="Layer 1"
     inkscape:groupmode="layer"
     id="layer1"
     transform="translate(-827.16842,-472.5569)"><path
       style="fill:#000000;fill-opacity:1;stroke-width:0.416295"
       d="m 845.23334,494.72501 0.028,-11.64633 1.76232,-0.97499 c 0.96928,-0.53624 2.95187,-1.62297 4.40577,-2.41495 3.16121,-1.72199 8.79438,-4.8162 9.62572,-5.28727 l 0.59386,-0.33649 -3.11368,6.15757 c -1.71251,3.38665 -4.35275,8.61104 -5.86718,11.60972 -5.03194,9.9636 -7.36523,14.53908 -7.41433,14.53908 -0.0267,0 -0.0359,-5.24085 -0.0206,-11.64634 z m -3.37294,8.78258 c -0.78011,-1.54477 -4.21927,-8.35997 -7.6426,-15.14487 -3.42332,-6.78491 -6.43794,-12.74944 -6.69918,-13.25452 -0.33769,-0.65291 -0.42213,-0.89805 -0.29217,-0.84818 0.10054,0.0386 1.86997,1.00112 3.93206,2.13899 2.0621,1.13786 5.56261,3.0694 7.77892,4.2923 2.2163,1.22291 4.11257,2.28447 4.21393,2.35904 0.17057,0.12549 0.18217,0.99629 0.15585,11.70075 l -0.0284,11.56518 z m 57.53703,-4.51592 v -5.50723 h 1.5957 1.5957 l 0.0289,3.93767 0.0289,3.93767 3.93767,0.0289 3.93767,0.0289 v 1.54064 1.54063 h -5.56231 -5.56229 z m 11.89944,2.39564 c 0.004,-3.50215 0.10893,-4.39719 0.63445,-5.42922 0.83858,-1.64675 2.47951,-2.46983 4.92401,-2.46983 2.88935,0 4.63759,1.14587 5.30023,3.47398 0.15048,0.52871 0.19499,1.3061 0.23443,4.09463 l 0.0487,3.44202 h -1.60762 -1.60761 v -1.15652 -1.15651 h -2.36811 -2.36811 v 1.15651 1.15652 h -1.59709 -1.5971 z m 7.92596,-2.64347 c -0.002,-0.81033 -0.59609,-1.73813 -1.24402,-1.94282 -1.04857,-0.33128 -2.13251,-0.2148 -2.73734,0.29413 -0.4089,0.34406 -0.74845,1.03893 -0.75182,1.53855 l -0.002,0.35797 h 2.36811 2.3681 z m 3.96582,0.25268 v -5.51208 h 4.00867 c 3.73624,0 4.05859,0.0154 4.74318,0.22686 1.30376,0.40269 2.04831,1.34623 2.26435,2.86955 0.18592,1.31081 -0.0319,1.96612 -0.75379,2.26783 l -0.40448,0.16906 0.38007,0.12464 c 0.58191,0.19085 0.83486,0.71242 0.81715,1.68495 -0.0293,1.60405 -0.72292,2.80486 -1.93745,3.35371 -0.57612,0.26035 -0.62096,0.26308 -4.8496,0.29517 l -4.2681,0.0324 z m 7.82274,2.19803 c 0.0574,-0.0909 0.10429,-0.19 0.10429,-0.22028 0,-0.0303 -0.0469,-0.12942 -0.10429,-0.22029 -0.0859,-0.13612 -0.50273,-0.1715 -2.36642,-0.20087 l -2.26213,-0.0356 v 0.45681 0.45681 l 2.26213,-0.0356 c 1.86369,-0.0294 2.2805,-0.0647 2.36642,-0.20087 z m -0.16685,-3.85538 c 0.18749,-0.0713 0.27759,-0.17773 0.25401,-0.30013 -0.0753,-0.39075 -0.50758,-0.46724 -2.6505,-0.46893 l -2.06521,-0.002 v 0.44057 0.44058 h 2.08558 c 1.14706,0 2.21632,-0.0497 2.37612,-0.11047 z m -23.40657,-7.875 -3.13766,-3.13913 h -0.79674 -0.79673 l -0.0301,1.95506 -0.0301,1.95507 -1.56955,0.0306 -1.56957,0.0306 v -5.56532 -5.56533 l 3.71738,8.3e-4 c 2.04456,3.5e-4 4.01477,0.0489 4.37825,0.10793 1.96147,0.31844 2.93885,1.5816 2.93885,3.79814 0,1.37979 -0.43487,2.2358 -1.38272,2.72178 l -0.42648,0.21866 1.25256,1.2972 c 0.68891,0.71345 1.28973,1.30415 1.33517,1.31264 0.0454,0.008 0.0826,-0.33151 0.0826,-0.75556 v -0.77102 h 5.50722 5.50723 v 1.5971 1.5971 h -4.70671 -4.70671 l 1.15258,1.15651 1.15259,1.15652 h -2.36687 -2.36686 z m -0.067,-6.5876 c 0.0977,-0.15945 0.0794,-0.23088 -0.0918,-0.35797 -0.1693,-0.12572 -0.66794,-0.15877 -2.39564,-0.15877 h -2.18184 v 0.38775 0.38774 l 2.27359,-0.0298 c 2.05616,-0.0269 2.28527,-0.0488 2.39565,-0.22897 z m -43.47684,7.34025 c -0.0404,-0.0404 -0.0734,-0.75909 -0.0734,-1.5971 v -1.52367 h 3.79098 c 2.08504,0 3.86938,-0.0301 3.9652,-0.0668 0.20816,-0.0799 0.22946,-0.41177 0.0366,-0.56938 -0.0808,-0.066 -1.1841,-0.13193 -2.67101,-0.15956 -2.30962,-0.0429 -2.59005,-0.0692 -3.17568,-0.2978 -0.80453,-0.31401 -1.30831,-0.75108 -1.63335,-1.41704 -0.21289,-0.43618 -0.25141,-0.6842 -0.24303,-1.56471 0.0175,-1.83937 0.68984,-2.97739 2.08842,-3.53496 0.6422,-0.25602 0.70401,-0.25941 4.78103,-0.26221 l 4.13041,-0.003 0.0306,1.56955 0.0306,1.56957 h -3.78195 c -3.12113,0 -3.81932,0.0278 -3.99577,0.15876 -0.17104,0.12701 -0.18943,0.1986 -0.0919,0.35798 0.11092,0.18127 0.37348,0.20415 2.91883,0.25427 l 2.79695,0.055 0.6443,0.31637 c 1.09305,0.53671 1.60351,1.69266 1.46537,3.3184 -0.16759,1.97234 -1.12226,3.05746 -2.95096,3.35418 -0.76398,0.12397 -7.94269,0.16131 -8.06206,0.0419 z m 11.89663,8.2e-4 c -0.041,-0.0409 -0.0744,-0.7601 -0.0744,-1.59811 v -1.52367 h 5.56532 5.56532 l -0.0306,1.56956 -0.0306,1.56956 -5.46032,0.0286 c -3.00317,0.0157 -5.49381,-0.005 -5.53476,-0.0459 z m 16.06173,-0.043 c -2.94812,-0.46111 -4.37718,-2.44379 -4.20381,-5.83235 0.12755,-2.49294 1.07861,-4.05199 2.88385,-4.72742 1.42318,-0.53247 3.72891,-0.53596 5.29052,-0.008 1.21431,0.41055 2.2557,1.47389 2.58664,2.64116 0.15092,0.53234 0.34285,1.89466 0.27631,1.9612 -0.0299,0.0299 -0.7325,0.0567 -1.56129,0.0595 l -1.50691,0.005 -0.12865,-0.43394 c -0.20638,-0.69613 -0.36625,-0.91433 -0.85122,-1.16174 -0.88585,-0.45193 -2.3514,-0.38314 -3.09338,0.1452 -0.48238,0.34349 -0.7336,0.99561 -0.7336,1.90433 0,1.71031 0.82989,2.45149 2.62556,2.34495 1.30005,-0.0772 1.89871,-0.52594 2.06665,-1.54933 l 0.0683,-0.41598 1.55502,0.0305 1.555,0.0305 -0.0297,0.55072 c -0.10025,1.85919 -0.92503,3.26009 -2.29987,3.90634 -1.11733,0.52521 -3.10312,0.76759 -4.4994,0.54921 z m 35.41148,-3.84975 v -3.9652 h -1.98261 -1.9826 v -1.5971 -1.5971 h 5.50723 5.50723 v 1.59456 1.59456 l -1.95507,0.0301 -1.95507,0.0301 -0.0289,3.93768 -0.0289,3.93766 h -1.54064 -1.54063 z m -51.52314,-1.56956 0.0306,-1.56956 h 5.50722 5.50723 l 0.0306,1.56956 0.0306,1.56956 h -5.56835 -5.56835 z m 35.66232,-0.0275 v -1.5971 h 5.50722 5.50723 v 1.5971 1.5971 h -5.50723 -5.50722 z m -35.66232,-3.93766 0.0306,-1.56956 h 5.50722 5.50723 l 0.0306,1.56956 0.0306,1.56955 h -5.56835 -5.56835 z m 35.66232,-0.0275 v -1.5971 h 5.50722 5.50723 v 1.5971 1.5971 h -5.50723 -5.50722 z m -68.23455,-0.17588 c -0.54521,-0.30656 -2.60216,-1.44162 -4.571,-2.52233 -1.96884,-1.08073 -5.01653,-2.76204 -6.77267,-3.73626 l -3.19297,-1.7713 h 15.63628 c 13.10707,0 15.60113,0.0239 15.41901,0.14766 -0.17364,0.11801 -7.52938,4.15884 -10.4607,5.74652 -0.36348,0.19687 -1.61109,0.88425 -2.77246,1.52752 -1.16137,0.64327 -2.15267,1.16868 -2.20289,1.16758 -0.0502,-0.002 -0.53738,-0.25283 -1.0826,-0.55939 z"
       id="path11" /></g><style
     type="text/css"
     id="style2">&#10;	.st0{fill:#231F20;}&#10;</style></svg>
