<?xml version="1.0" encoding="UTF-8" standalone="no"?>
<!-- Created with Inkscape (http://www.inkscape.org/) -->

<svg
   width="56.830704mm"
   height="46.459309mm"
   viewBox="0 0 56.830704 46.459309"
   version="1.1"
   id="svg1"
   xml:space="preserve"
   inkscape:version="1.3 (0e150ed6c4, 2023-07-21)"
   sodipodi:docname="about us baru.svg"
   xmlns:inkscape="http://www.inkscape.org/namespaces/inkscape"
   xmlns:sodipodi="http://sodipodi.sourceforge.net/DTD/sodipodi-0.dtd"
   xmlns="http://www.w3.org/2000/svg"
   xmlns:svg="http://www.w3.org/2000/svg"><sodipodi:namedview
     id="namedview1"
     pagecolor="#ffffff"
     bordercolor="#000000"
     borderopacity="0.25"
     inkscape:showpageshadow="2"
     inkscape:pageopacity="0.0"
     inkscape:pagecheckerboard="0"
     inkscape:deskcolor="#d1d1d1"
     inkscape:document-units="mm"
     showguides="false"
     inkscape:zoom="0.48945419"
     inkscape:cx="1750.9299"
     inkscape:cy="1623.2367"
     inkscape:window-width="1920"
     inkscape:window-height="991"
     inkscape:window-x="-9"
     inkscape:window-y="-9"
     inkscape:window-maximized="1"
     inkscape:current-layer="layer1" /><defs
     id="defs1" /><g
     inkscape:label="Layer 1"
     inkscape:groupmode="layer"
     id="layer1"
     transform="translate(-950.46517,-469.34911)"><path
       style="fill:#000000;fill-opacity:1;stroke-width:0.828891"
       d="m 965.93484,515.6621 c -0.0804,-0.0804 -0.14621,-0.91929 -0.14621,-1.86415 v -1.71793 h 2.11031 c 1.85096,0 2.07675,0.0405 1.83729,0.32896 -0.18652,0.22474 -0.68507,0.32897 -1.5735,0.32897 h -1.30047 l 0.0663,1.15138 0.0663,1.15138 0.93207,0.0675 0.93207,0.0675 v -0.78019 c 0,-0.68601 0.0661,-0.7802 0.54827,-0.7802 0.51173,0 0.54828,0.0731 0.54828,1.09655 v 1.09655 h -1.93725 c -1.06548,0 -2.00304,-0.0658 -2.08345,-0.1462 z m 4.67863,-1.72617 v -1.87237 l 2.02862,0.0631 2.02862,0.0631 v 1.75449 c 0,1.75095 -8.3e-4,1.75462 -0.6031,1.82388 -0.55817,0.0642 -0.6031,0.0111 -0.6031,-0.71276 0,-0.76631 -0.0178,-0.78216 -0.87725,-0.78216 -0.85635,0 -0.87724,0.0182 -0.87724,0.76759 0,0.67255 -0.0679,0.76759 -0.54828,0.76759 -0.54201,0 -0.54827,-0.0214 -0.54827,-1.87237 z m 2.85104,-0.75936 c 0,-0.36552 -0.14621,-0.43862 -0.87725,-0.43862 -0.73103,0 -0.87724,0.0731 -0.87724,0.43862 0,0.36552 0.14621,0.43862 0.87724,0.43862 0.73104,0 0.87725,-0.0731 0.87725,-0.43862 z m 1.75448,0.74237 v -1.88937 l 0.54828,0.35419 c 1.76771,1.14195 1.51917,1.1059 2.53769,0.36808 0.51009,-0.3695 1.01531,-0.67182 1.12271,-0.67182 0.1074,0 0.16661,0.81419 0.13157,1.80931 -0.0622,1.76674 -0.0766,1.80931 -0.61197,1.80931 -0.48725,0 -0.55573,-0.1026 -0.61521,-0.92185 -0.0649,-0.89396 -0.0833,-0.91437 -0.60906,-0.67484 -0.40669,0.1853 -0.60636,0.18274 -0.79933,-0.0102 -0.45758,-0.45757 -0.60812,-0.27694 -0.60812,0.72968 0,0.90648 -0.0447,0.98689 -0.54828,0.98689 -0.5424,0 -0.54828,-0.0202 -0.54828,-1.88936 z m 4.82484,0.0252 v -1.86415 h 1.86413 c 1.02528,0 1.86415,0.0881 1.86415,0.19585 0,0.29804 -0.5903,0.46209 -1.66277,0.46209 -0.82275,0 -0.96896,0.0661 -0.96896,0.43861 0,0.38989 0.14621,0.43863 1.31586,0.43863 1.02345,0 1.31587,0.0731 1.31587,0.32897 0,0.25586 -0.29242,0.32896 -1.31587,0.32896 -1.16965,0 -1.31586,0.0487 -1.31586,0.43862 0,0.38424 0.14621,0.43862 1.17935,0.43862 0.78078,0 1.27164,0.11119 1.45238,0.32897 0.23929,0.28832 0.0259,0.32896 -1.72764,0.32896 h -2.00064 z m 4.38621,0.0255 c 0,-2.11044 -0.0104,-2.10064 2.23,-2.10603 1.77924,-0.004 1.93691,0.0956 1.93691,1.22667 0,0.8252 -0.0646,0.96344 -0.44979,0.96344 -0.43164,0 -0.42722,0.0296 0.10966,0.73346 0.69808,0.91523 0.69725,1.02102 -0.008,1.02102 -0.3962,0 -0.85694,-0.31442 -1.52647,-1.04173 -0.52744,-0.57294 -0.96289,-1.11573 -0.96769,-1.20621 -0.005,-0.0905 0.33671,-0.16447 0.75888,-0.16447 0.53609,0 0.76759,-0.0992 0.76759,-0.32897 0,-0.23759 -0.24368,-0.32897 -0.87725,-0.32897 h -0.87724 v 1.53518 c 0,1.49131 -0.0157,1.53517 -0.54827,1.53517 -0.54123,0 -0.54828,-0.0236 -0.54828,-1.83856 z m 4.83174,1.51792 c -0.2471,-0.29774 -0.10961,-0.33729 1.17245,-0.33729 1.30617,0 1.45238,-0.0442 1.45238,-0.43862 0,-0.39364 -0.14621,-0.43862 -1.42553,-0.43862 h -1.42552 v -1.09656 -1.09655 h 2.00066 c 1.75348,0 1.96692,0.0406 1.72763,0.32896 -0.18158,0.2188 -0.67339,0.32897 -1.46846,0.32897 -1.02018,0 -1.18471,0.0563 -1.12226,0.3838 0.0596,0.31261 0.34945,0.39587 1.56285,0.4489 l 1.48968,0.0651 -0.0664,1.03144 -0.0664,1.03144 -1.77555,0.0632 c -1.38652,0.0493 -1.83688,-0.0108 -2.05548,-0.27414 z m -27.96313,-5.3725 -1.5293,-1.54411 h 0.92619 c 0.88289,0 0.92619,-0.0308 0.92619,-0.65794 0,-0.64331 -0.0244,-0.65793 -1.09655,-0.65793 h -1.09656 v 1.57341 1.5734 l -0.54828,-0.51508 c -0.47337,-0.44471 -0.54827,-0.70564 -0.54827,-1.91004 v -1.39496 l 2.24794,0.0625 2.24793,0.0625 0.0657,1.26104 c 0.0649,1.24404 0.0577,1.26103 -0.53448,1.26103 h -0.60025 l 0.60629,0.63284 c 0.41921,0.43755 0.58414,0.81254 0.53449,1.21515 -0.0689,0.55852 -0.1343,0.51922 -1.60111,-0.96181 z m 2.07756,-1.65377 v -1.86414 h 1.9738 c 1.08559,0 1.9738,0.0881 1.9738,0.19585 0,0.30607 -0.59845,0.46208 -1.77242,0.46208 -0.92363,0 -1.07862,0.0615 -1.07862,0.42817 0,0.36992 0.17924,0.43703 1.31809,0.49344 1.75493,0.0869 1.79184,0.48636 0.0526,0.56921 -1.19103,0.0567 -1.3707,0.12142 -1.3707,0.49345 0,0.37159 0.15582,0.42815 1.17936,0.42815 0.78076,0 1.27162,0.11118 1.45237,0.32897 0.23929,0.28832 0.0259,0.32896 -1.72763,0.32896 h -2.00065 z m 4.47822,1.56825 c -0.0624,-0.16275 -0.084,-0.97693 -0.0479,-1.80931 l 0.0656,-1.51342 1.91898,-0.0633 1.91896,-0.0634 v 1.3244 1.3244 h -1.31586 c -1.25739,0 -1.31587,0.0244 -1.31587,0.54828 0,0.44044 -0.10919,0.54827 -0.55515,0.54827 -0.30534,0 -0.60626,-0.13315 -0.66871,-0.29589 z m 2.75904,-2.11653 c 0,-0.60571 -0.0609,-0.65793 -0.76759,-0.65793 -0.70667,0 -0.76759,0.0522 -0.76759,0.65793 0,0.60572 0.0609,0.65794 0.76759,0.65794 0.70667,0 0.76759,-0.0522 0.76759,-0.65794 z m 1.53518,0.53372 v -1.87871 l 0.6031,0.0694 c 0.59153,0.068 0.6031,0.0978 0.6031,1.55013 v 1.48074 l 0.94719,-3.9e-4 0.94718,-3.9e-4 -0.0549,-1.48035 c -0.0541,-1.45817 -0.0461,-1.48139 0.53316,-1.54974 l 0.58804,-0.0694 v 1.87871 1.8787 h -2.08345 -2.08345 z m 4.60552,0.0146 v -1.86414 h 1.75448 1.75449 v 0.64499 c 0,0.35474 0.0987,0.70598 0.21931,0.78053 0.12062,0.0745 0.21931,0.62316 0.21931,1.21915 v 1.08361 h -1.97379 -1.9738 z m 2.63173,0.76758 c 0,-0.35507 -0.14621,-0.43861 -0.7676,-0.43861 -0.62137,0 -0.76758,0.0835 -0.76758,0.43861 0,0.35508 0.14621,0.43863 0.76758,0.43863 0.62139,0 0.7676,-0.0836 0.7676,-0.43863 z m 0.12539,-1.59 c 0.0444,-0.30949 -0.11096,-0.38379 -0.80274,-0.38379 -0.72,0 -0.85783,0.0726 -0.85783,0.45186 0,0.38637 0.11634,0.442 0.80274,0.38379 0.56523,-0.0479 0.81903,-0.18162 0.85783,-0.45186 z m 1.62909,0.82242 c 0,-1.84221 0.007,-1.86414 0.54828,-1.86414 0.53261,0 0.54827,0.0438 0.54827,1.53518 v 1.53517 h 1.34273 c 1.16866,0 1.30732,0.0426 1.0697,0.32897 -0.19755,0.23801 -0.72035,0.32896 -1.891,0.32896 h -1.61798 z m 3.94759,0 v -1.86414 h 0.65793 0.65794 v 1.86414 1.86414 h -0.65794 -0.65793 z m 1.75449,0 v -1.86414 h 2.00065 c 1.75349,0 1.96692,0.0406 1.72763,0.32897 -0.18074,0.21778 -0.67161,0.32896 -1.45237,0.32896 h -1.17935 v 1.20621 1.20621 h 1.45236 c 1.26614,0 1.41737,0.0422 1.17936,0.32897 -0.2004,0.24146 -0.73253,0.32896 -2.00065,0.32896 h -1.72763 z m 6.18372,1.14094 c -0.6059,-0.62512 -0.70096,-0.87792 -0.70096,-1.86414 v -1.14094 h 2.08345 2.08346 v 1.86414 1.86414 h -1.3825 c -1.27592,0 -1.43654,-0.0558 -2.08345,-0.7232 z m 2.3694,-1.14094 v -1.20621 h -0.87724 c -0.86416,0 -0.87725,0.012 -0.87725,0.80515 0,0.94183 0.51346,1.60727 1.2402,1.60727 0.47717,0 0.51429,-0.087 0.51429,-1.20621 z m 1.53517,0.0146 v -1.87872 h 1.99207 c 1.49578,0 1.96948,0.0683 1.90158,0.27414 -0.056,0.16938 -0.6035,0.29898 -1.43302,0.33916 -1.06776,0.0517 -1.31746,0.13024 -1.22016,0.38379 0.0882,0.22994 0.48995,0.31878 1.44158,0.31878 1.1478,0 1.2838,0.0428 1.0462,0.32897 -0.1777,0.21418 -0.66534,0.32891 -1.39751,0.32882 l -1.12453,-1.4e-4 v 0.82255 c 0,0.73431 -0.0647,0.83001 -0.6031,0.89196 l -0.60311,0.0694 z m -27.0936,-6.46251 c -4.3913,-2.61675 -6.3693,-4.92979 -9.86468,-11.53554 -0.70208,-1.32683 -1.46379,-2.68381 -1.6927,-3.01552 -0.66139,-0.95843 -0.10614,-0.78427 3.67093,1.15138 1.96463,1.00683 3.6955,1.75449 4.06173,1.75449 0.40042,0 0.94742,-0.26284 1.46823,-0.7055 2.56273,-2.17817 5.59883,-5.03006 10.58937,-9.94687 6.1428,-6.05204 7.6565,-7.29388 9.7042,-7.96135 3.79902,-1.23835 8.79643,-2.15645 12.85637,-2.36194 2.4649,-0.12474 5.9087,0.0361 5.6796,0.26519 -0.047,0.047 -0.9597,0.33879 -2.0282,0.64844 -8.31505,2.4096 -17.63143,7.95236 -30.55154,18.17659 -4.82877,3.8212 -6.94548,5.83042 -7.19665,6.83114 -0.21493,0.85633 0.43865,2.00571 2.8156,4.95154 1.07558,1.33301 1.92337,2.44921 1.88397,2.48046 -0.0394,0.0312 -0.6677,-0.29839 -1.39623,-0.73251 z m 15.68945,-1.71133 c -3.94684,-0.4331 -9.9285,-1.71703 -13.62091,-2.92365 -2.07351,-0.67759 -4.36257,-1.71369 -4.36257,-1.97463 0,-0.38378 9.06105,-6.47068 14.25519,-9.57614 7.57125,-4.52667 19.97999,-10.81055 24.64639,-12.48111 l 0.8512,-0.30472 -0.1261,0.777 c -0.2968,1.82904 -0.5553,2.01937 -7.67307,5.65036 -7.03638,3.58947 -12.35207,6.50581 -17.36452,9.52666 -3.77197,2.27325 -8.8813,5.60022 -8.88459,5.78526 -0.003,0.19499 4.79477,1.43183 7.09907,1.82993 2.51555,0.4346 5.86356,0.43548 7.32352,0.002 2.40343,-0.71374 4.57086,-3.11196 6.76559,-7.48599 0.79648,-1.58734 1.41228,-2.98725 1.36844,-3.1109 -0.0439,-0.12365 -3.53384,1.25666 -7.75557,3.06736 -10.78404,4.62526 -10.63657,4.56318 -10.63657,4.47849 0,-0.11868 9.52565,-5.74669 13.92623,-8.22799 3.46889,-1.95597 12.83437,-6.80848 13.14047,-6.80848 0.062,0 -0.2223,0.96223 -0.6323,2.13827 -2.5366,7.27732 -6.14614,13.77754 -9.5587,17.21376 -2.23554,2.25104 -2.98253,2.57803 -5.80051,2.53913 -1.20621,-0.0167 -2.53852,-0.0682 -2.96069,-0.11452 z m -27.08487,-6.76353 c -1.32683,-0.66232 -3.07045,-1.68945 -3.8747,-2.28253 -1.20495,-0.88857 -1.57927,-1.32348 -2.1271,-2.47137 -0.67482,-1.41393 -2.09897,-6.14008 -1.96603,-6.52439 0.0399,-0.11549 0.91844,0.84735 1.9522,2.13967 1.76903,2.21148 5.51027,6.62989 7.79264,9.20312 0.56168,0.63326 0.93442,1.14875 0.82832,1.14554 -0.1061,-0.003 -1.2785,-0.54773 -2.60533,-1.21004 z"
       id="path6" /></g><style
     type="text/css"
     id="style2">&#10;	.st0{fill:#231F20;}&#10;</style></svg>
