<?xml version="1.0" encoding="UTF-8" standalone="no"?>
<!-- Created with Inkscape (http://www.inkscape.org/) -->

<svg
   width="32.710583mm"
   height="36.961956mm"
   viewBox="0 0 32.710583 36.961956"
   version="1.1"
   id="svg1"
   inkscape:version="1.3 (0e150ed6c4, 2023-07-21)"
   sodipodi:docname="esport yang diikuti.svg"
   xml:space="preserve"
   xmlns:inkscape="http://www.inkscape.org/namespaces/inkscape"
   xmlns:sodipodi="http://sodipodi.sourceforge.net/DTD/sodipodi-0.dtd"
   xmlns="http://www.w3.org/2000/svg"
   xmlns:svg="http://www.w3.org/2000/svg"><sodipodi:namedview
     id="namedview1"
     pagecolor="#ffffff"
     bordercolor="#000000"
     borderopacity="0.25"
     inkscape:showpageshadow="2"
     inkscape:pageopacity="0.0"
     inkscape:pagecheckerboard="0"
     inkscape:deskcolor="#d1d1d1"
     inkscape:document-units="mm"
     inkscape:zoom="0.2447271"
     inkscape:cx="-807.02138"
     inkscape:cy="67.422039"
     inkscape:window-width="1920"
     inkscape:window-height="991"
     inkscape:window-x="-9"
     inkscape:window-y="-9"
     inkscape:window-maximized="1"
     inkscape:current-layer="layer1"
     inkscape:export-bgcolor="#00000000" /><defs
     id="defs1"><style
       id="style1">.cls-1{fill:none;}.cls-2{clip-path:url(#clip-path);}.cls-3{clip-path:url(#clip-path-3);}.cls-4{fill:#110303;}.cls-5{opacity:0.6;}.cls-6{opacity:0.1;}.cls-7{clip-path:url(#clip-path-4);}.cls-8{mask:url(#mask);}.cls-9{clip-path:url(#clip-path-5);}.cls-10{mask:url(#mask-2);}.cls-11{clip-path:url(#clip-path-6);}.cls-12{mask:url(#mask-3);}.cls-13{clip-path:url(#clip-path-7);}.cls-14{mask:url(#mask-4);}.cls-15{clip-path:url(#clip-path-8);}.cls-16{mask:url(#mask-5);}.cls-17{clip-path:url(#clip-path-9);}.cls-18{clip-path:url(#clip-path-11);}.cls-19{clip-path:url(#clip-path-12);}.cls-20{mask:url(#mask-6);}.cls-21{clip-path:url(#clip-path-13);}.cls-22{mask:url(#mask-7);}.cls-23{clip-path:url(#clip-path-14);}.cls-24{mask:url(#mask-8);}.cls-25{clip-path:url(#clip-path-15);}.cls-26{mask:url(#mask-9);}.cls-27{clip-path:url(#clip-path-16);}.cls-28{mask:url(#mask-10);}.cls-29{filter:url(#luminosity-noclip-10);}.cls-30{filter:url(#luminosity-noclip-9);}.cls-31{filter:url(#luminosity-noclip-8);}.cls-32{filter:url(#luminosity-noclip-7);}.cls-33{filter:url(#luminosity-noclip-6);}.cls-34{filter:url(#luminosity-noclip-5);}.cls-35{filter:url(#luminosity-noclip-4);}.cls-36{filter:url(#luminosity-noclip-3);}.cls-37{filter:url(#luminosity-noclip-2);}.cls-38{filter:url(#luminosity-noclip);}</style><style
       type="text/css"
       id="style1-9">&#10;   <![CDATA[
    .fil0 {fill:#332C2B}
   ]]>&#10;  </style><style
       type="text/css"
       id="style1-6">&#10;   <![CDATA[
    .str0 {stroke:white;stroke-width:20;stroke-miterlimit:22.9256}
    .fil2 {fill:none}
    .fil0 {fill:black}
    .fil3 {fill:#D43B3B}
    .fil1 {fill:white}
   ]]>&#10;  </style></defs><g
     inkscape:label="Layer 1"
     inkscape:groupmode="layer"
     id="layer1"
     transform="translate(177.74222,-272.67202)"><g
       id="g149"
       transform="matrix(0.12630629,0,0,0.12630629,-57.810562,376.19829)"
       style="fill:#b72025;fill-opacity:1"
       inkscape:export-filename="dota 2.svg"
       inkscape:export-xdpi="100"
       inkscape:export-ydpi="100"><path
         class="fil1"
         d="m -937.48614,-568.65335 0.201,31.86787 c 3.4662,6.28149 19.10238,2.9457 22.20928,-4.6934 3.61699,-8.89459 3.89749,-29.00787 -22.41028,-27.17447 z m -12.04419,-2.9972 v 1.1751 c 0,0 4.6219,-0.7048 5.4053,2.2719 0.0783,1.9586 -0.1175,33.01967 -0.1175,33.01967 0,0 -0.2351,2.82009 -4.387,2.70259 0.0391,0.4307 0,0.568 0,0.568 0,0 10.16739,-0.2329 14.71129,0.5874 32.96796,5.9503 36.20606,-39.79826 9.18119,-40.07306 z"
         id="path1-8"
         style="clip-rule:evenodd;fill:#b72025;fill-opacity:1;fill-rule:evenodd;stroke-width:0.00999999;image-rendering:optimizeQuality;shape-rendering:geometricPrecision;text-rendering:geometricPrecision" /><path
         class="fil1"
         d="m -871.21261,-569.79035 c 8.74639,-0.5873 16.21399,8.30579 16.21399,17.30838 0.1955,9.27699 -2.2016,18.15809 -11.37879,19.01929 -7.64959,0 -15.44739,-3.6474 -17.24938,-18.05549 0,-9.00289 2.16389,-17.57758 12.41418,-18.27218 z m 1.8013,-2.6345 c 11.24869,0 22.03588,6.7733 22.03588,20.01238 0,13.23869 -10.47359,21.42798 -21.72258,21.42798 -11.24869,0 -21.85598,-7.20719 -21.85598,-20.44628 0,-13.23858 10.29369,-20.99408 21.54268,-20.99408 z"
         id="path2-4"
         style="clip-rule:evenodd;fill:#b72025;fill-opacity:1;fill-rule:evenodd;stroke-width:0.00999999;image-rendering:optimizeQuality;shape-rendering:geometricPrecision;text-rendering:geometricPrecision" /><path
         class="fil1"
         d="m -832.84845,-572.32715 -1.21389,5.5227 c 0,0 -0.4307,1.0968 0.0784,2.8985 0.46989,-1.2535 0.54819,-3.2117 3.32909,-4.3085 2.8205,-0.1175 11.12419,-0.1175 11.12419,-0.1175 l -0.1567,33.37207 c 0,0 -0.0589,2.93759 -4.21069,2.54599 -0.0392,0.4893 -0.0392,0.6068 -0.0392,0.6068 l 16.99928,-0.0784 -0.0197,-0.6265 c 0,0 -5.2878,0.7638 -5.5619,-2.42849 -0.0392,-1.6842 -0.3133,-33.39147 -0.3133,-33.39147 l 9.79209,0.235 c 0,0 3.3686,0.0783 3.3295,4.191 0.4699,0.2741 0.744,-0.1175 0.7835,-0.5874 0.0388,-0.4699 0.1958,-5.6011 0.1958,-5.6011 0,0 0.8223,-1.7628 -0.2353,-1.9194 -1.0181,0.3528 -2.1932,0.5485 -2.9376,0.5485 -0.744,0 -28.39717,-0.0391 -28.39717,-0.0391 0,0 -1.2538,-0.7052 -2.5464,-0.8227 z"
         id="path3-8"
         style="clip-rule:evenodd;fill:#b72025;fill-opacity:1;fill-rule:evenodd;stroke-width:0.00999999;image-rendering:optimizeQuality;shape-rendering:geometricPrecision;text-rendering:geometricPrecision" /><path
         class="fil1"
         d="m -768.51521,-561.60446 -7.05029,18.17439 13.55238,-0.157 z m 0.8812,-10.87929 -15.19759,37.36727 c 0,0 -1.54689,3.11389 -5.79649,2.83949 -4e-4,0.3333 -0.0198,0.5094 -0.0198,0.5094 l 13.88539,0.0197 -0.0392,-0.7249 c 0,0 -4.4849,0.3527 -3.8975,-1.87999 0.5486,-1.8799 2.1738,-6.3846 2.1738,-6.3846 l 15.55048,0.0392 3.055,7.2461 c 0,0 0.3525,0.86179 -1.0967,0.94009 0,0.5486 0,0.617 0,0.617 l 13.86589,0.1958 -0.0395,-0.901 c 0,0 -3.3292,0.9402 -5.17,-1.60579 -1.3709,-2.3111 -3.32949,-6.5412 -3.32949,-6.5412 0,0 2.11489,0.1958 3.32949,-0.5486 1.2531,-0.5091 3.4893,-1.1751 6.2276,-1.1751 0.3528,-0.4307 -0.0783,-0.90059 -1.0964,-0.97899 -1.0577,-0.0783 -9.59659,-0.0783 -9.59659,-0.0783 l -11.65269,-28.80888 c 0,0 -0.6268,-1.88029 -1.1557,-0.1467 z"
         id="path4-8"
         style="clip-rule:evenodd;fill:#b72025;fill-opacity:1;fill-rule:evenodd;stroke-width:0.00999999;image-rendering:optimizeQuality;shape-rendering:geometricPrecision;text-rendering:geometricPrecision" /><path
         class="fil1"
         d="m -714.93256,-561.36956 c 0,0 -1.2534,-6.89359 -0.9398,-8.53859 10.61479,-6.22789 33.99856,-0.9405 18.87928,20.68088 -1.5667,1.9586 -7.67719,8.53899 -13.63069,12.92579 4.3364,0.0688 12.06009,-0.2255 13.87019,-0.2978 4.73989,-0.1884 4.57909,-5.8497 6.20149,-5.8914 l -1.4273,8.3238 c 0,0 -0.0389,2.46769 -2.89849,2.23239 -2.8592,-0.0391 -22.67858,0.0787 -22.67858,0.0787 0,0 -1.8803,0.0388 -0.1567,-1.4492 2.8455,-2.69379 18.81008,-14.97928 18.31448,-27.85007 -0.4219,-10.95899 -13.37099,-12.53978 -15.53388,-0.2145 z"
         id="path5-9"
         style="clip-rule:evenodd;fill:#b72025;fill-opacity:1;fill-rule:evenodd;stroke-width:0.00999999;image-rendering:optimizeQuality;shape-rendering:geometricPrecision;text-rendering:geometricPrecision" /><path
         class="fil1"
         d="m -745.75303,-527.00719 v -1.0409 h 0.378 c 0.0799,0 0.1381,0.0102 0.1759,0.0291 0.0378,0.0189 0.0683,0.0523 0.0916,0.0974 0.0247,0.045 0.0363,0.0974 0.0363,0.157 0,0.0785 -0.0203,0.1425 -0.061,0.1904 -0.0408,0.0495 -0.1004,0.08 -0.1789,0.0931 0.032,0.0189 0.0567,0.0378 0.0727,0.0581 0.0335,0.0393 0.064,0.0843 0.0887,0.1323 l 0.1497,0.2835 h -0.1424 l -0.1134,-0.2166 c -0.0436,-0.0843 -0.0771,-0.1425 -0.1003,-0.1716 -0.0218,-0.029 -0.0436,-0.0479 -0.0655,-0.0581 -0.0203,-0.0102 -0.0494,-0.016 -0.0872,-0.016 h -0.1308 v 0.4623 z m 0.1134,-0.5815 h 0.2428 c 0.0523,0 0.093,-0.006 0.1206,-0.0189 0.0276,-0.0131 0.0495,-0.0334 0.0654,-0.0611 0.016,-0.0276 0.0233,-0.0596 0.0233,-0.0959 0,-0.0524 -0.0145,-0.0931 -0.0465,-0.1236 -0.0305,-0.0291 -0.0756,-0.0451 -0.1367,-0.0451 h -0.2689 z"
         id="path9-3"
         style="clip-rule:evenodd;fill:#b72025;fill-opacity:1;fill-rule:evenodd;stroke-width:0.00999999;image-rendering:optimizeQuality;shape-rendering:geometricPrecision;text-rendering:geometricPrecision" /><path
         class="fil3"
         d="m -892.88759,-677.89824 c 2.3107,1.4439 3.7994,2.867 6.0353,4.66899 l 18.10698,16.79329 c 3.7786,3.59619 13.44929,13.36138 17.16728,17.68928 2.5364,2.9528 3.6375,3.2696 5.5044,6.18029 -0.6848,0.2544 -9.14439,2.1975 -14.06419,3.8898 -10.24469,3.5242 -19.57458,9.17079 -28.49567,6.14639 -1.3342,-0.4526 -7.40759,-6.25299 -10.19239,-8.21479 -1.6478,-1.161 -3.217,-2.2563 -5.11349,-3.58169 -5.4293,-3.7942 -6.9857,-1.1818 0.2268,-17.98679 1.88599,-4.39449 3.48299,-8.35199 5.27829,-12.65968 1.5681,-3.7628 3.7285,-9.84609 5.54669,-12.92509 z m 130.10677,-101.4581 c 3.7246,1.295 12.75499,6.45509 14.96869,9.23109 1.8634,2.3365 1.324,2.5517 0.6347,5.9182 l -3.6724,28.73937 c -5.08669,0.1867 -3.61739,-0.4198 -6.77089,-2.5357 -5.2896,-3.5486 -23.43538,-16.95378 -29.26187,-21.65108 l -11.20559,-9.00529 c 0.8266,-0.7726 -0.2847,-0.368 1.5815,-0.8552 l 16.58658,-3.7366 c 8.63979,-2.16599 9.97899,-2.73439 17.13928,-6.10479 z m -148.70485,5.7856 c 3.8001,-2.1333 5.8247,-0.5133 12.23499,-5.1559 1.7181,-1.2442 5.6709,-1.1215 8.07049,-0.792 2.4871,0.3415 8.21409,5.1167 10.84089,6.72959 1.5187,0.9328 8.35409,6.1528 9.46859,7.958 l 3.3757,5.45039 c 4.65209,0.2289 3.8347,-0.0413 9.70419,4.2534 l 56.17484,37.07196 c 12.07979,8.39399 26.17468,16.96938 38.32296,25.42787 l 34.62407,22.66248 c -0.9984,2.1491 -2.1686,9.56229 -2.8216,12.52569 -2.99959,13.61229 -6.77079,19.37838 -12.87738,32.46857 -8.7732,0.3454 -15.69789,0.2787 -24.27108,0.1415 -2.775,-0.0445 -2.0916,0.5376 -3.6093,-0.9331 -5.01899,-4.8641 -14.14778,-15.53919 -19.22358,-20.46188 -1.7529,-1.7 -3.33049,-3.296 -5.06729,-5.1466 -14.03379,-14.95388 -7.39059,-10.44899 -10.13669,-14.17178 l -28.23877,-26.69298 c -6.4826,-6.30409 -12.32389,-13.09148 -19.02628,-20.19228 -1.7209,-1.82309 -2.5852,-3.54329 -4.3798,-5.19919 l -0.4963,-0.4477 c -0.4795,-0.4695 -0.296,-0.2755 -0.7416,-0.787 l -8.20349,-9.32389 c -1.4449,-1.3367 -1.307,-1.2919 -2.3667,-2.4949 l -7.37799,-7.61079 c -1.6225,-1.7018 -2.8872,-3.4632 -4.4309,-5.29869 l -7.05099,-7.4789 c -1.0495,-1.0658 -1.8098,-1.3843 -2.8434,-2.46099 -3.35239,-3.4911 -6.17219,-6.8336 -9.56059,-10.32119 -2.71179,-2.7912 -9.31229,-8.1562 -10.09299,-9.71969 z m 33.86597,-41.70646 -57.95524,1.1924 c -3.1256,11.53548 -0.0192,5.69669 -0.0113,17.74008 l -0.0108,21.80488 c -0.4732,6.29809 -2.1319,9.50659 -2.1288,17.92848 10e-4,2.836 -0.6257,9.33839 0.7378,11.55909 2.4142,3.93209 2.3537,7.26229 3.3702,12.94268 0.90309,5.0469 1.88699,4.5163 -0.3888,8.3228 l -1.0608,9.64279 4.95269,4.84399 0.0367,8.46879 c -2.9482,2.7022 0.3506,0.7789 -5.88329,5.275 l 0.5574,25.58137 6.13799,4.4566 -1.2835,21.80728 c -6.47339,4.64079 -5.08179,10.26829 -4.87509,16.04748 l 0.7915,21.74738 -1.4209,11.14489 c 14.50668,3.64989 11.32639,2.51819 27.90767,2.51709 14.65368,-7e-4 12.76209,0.1499 27.24537,-1.60969 l 0.3739,2.46939 c 2.2448,-0.1453 4.5629,-0.2681 6.7748,-0.4833 6.16439,-0.5994 3.70129,-1.3116 5.82359,-2.08069 1.5343,-0.5556 18.05058,3.27869 20.73378,3.85729 1.4806,-1.6573 0.7268,-0.9885 2.7933,-2.3245 1.11659,2.3598 5.89419,7.7739 7.83979,10.12869 l 5.98139,-5.61449 10.46399,4.0612 3.0657,-2.5785 c 1.1948,1.4136 1.9233,3.18879 4.05619,3.46819 3.1073,0.4071 3.6139,-4.73959 10.46869,-4.87009 l 39.74496,-1.3258 c 0.5101,-0.4921 0.8135,-0.7831 1.3603,-1.3193 l 2.0313,-1.6528 c 2.6113,1.5741 3.7246,3.0875 7.30599,2.8501 10.96189,-0.7267 5.2254,2.6543 19.37278,1.8933 2.4384,-0.1312 1.8327,-0.7306 3.9836,-1.4883 l 4.5925,-0.7091 c -0.9973,-2.6762 -1.6369,-2.2994 -3.6224,-4.29899 l 25.17707,5.09129 c -0.3376,-29.63367 -0.2738,-65.79193 0.1023,-96.2807 l -6.76839,0.5055 c 0.2445,-1.9787 3.1951,-1.2347 3.4272,-5.2137 0.2925,-5.01539 0.2392,-22.18468 -0.4907,-25.85397 -0.3732,-1.8754 -5.1488,-7.3438 -6.4251,-9.04489 1.5183,-4.1296 1.6693,-3.8555 4.482,-7.2213 -0.2374,-2.21549 -0.7563,-2.80779 -1.7071,-5.33009 l 7.37839,-2.4176 c 0.0815,-4.24459 0.5584,-21.27288 0.2818,-26.65557 l -2.98939,-29.07307 2.28349,-7.2683 0.0988,-7.46999 c -6.37329,-3.67459 -5.53999,-4.08029 -9.96559,-4.04849 -3.96979,0.0282 -9.32039,-0.1835 -13.12758,-1.0548 -4.8874,-1.1219 -3.5754,-1.9156 -8.93299,3.58419 l -2.4314,-5.29169 c -7.65029,-0.5679 -32.18027,-2.7128 -38.01526,-2.7128 -7.4581,0 -6.3775,0.5609 -8.89669,9.02859 l -10.70499,1.101 -1.4238,-4.62979 -9.69999,-0.1094 1.0283,-1.1324 c 1.89619,-1.8097 1.2316,-1.0795 2.71539,-4.2651 l -39.01086,0.003 c -1.2894,2.3848 -3.64669,4.1981 -6.42589,5.1189 -3.8848,1.29109 -1.9618,-0.7867 -4.416,1.41459 -1.83729,1.6475 -2.15589,1.5452 -5.05319,1.4852 -3.8446,-0.0776 -7.78789,-0.2011 -11.63079,-0.3598 -1.7723,-0.0741 -3.7218,0.1058 -5.42569,-0.2964 -2.6246,-0.6209 -1.8609,-1.30169 -3.2963,-2.99859 z"
         id="path10"
         style="clip-rule:evenodd;fill:#b72025;fill-opacity:1;fill-rule:evenodd;stroke-width:0.00999999;image-rendering:optimizeQuality;shape-rendering:geometricPrecision;text-rendering:geometricPrecision" /></g></g><style
     type="text/css"
     id="style1-0">&#10;	.st0{fill:#FF4655;}&#10;	.st1{fill:#111111;}&#10;</style><style
     type="text/css"
     id="style1-3">&#10;	.st0{fill-rule:evenodd;clip-rule:evenodd;fill:url(#SVGID_1_);}&#10;	.st1{fill-rule:evenodd;clip-rule:evenodd;fill:url(#SVGID_2_);}&#10;	.st2{fill-rule:evenodd;clip-rule:evenodd;fill:url(#SVGID_3_);}&#10;</style><style
     type="text/css"
     id="style1-92">&#10;	.st0{fill:#FF4655;}&#10;	.st1{fill:#111111;}&#10;</style></svg>
