<?xml version="1.0" encoding="UTF-8" standalone="no"?>
<!-- Created with Inkscape (http://www.inkscape.org/) -->

<svg
   width="1591.1425"
   height="1614.8634"
   viewBox="0 0 420.98976 427.26593"
   version="1.1"
   id="svg1"
   inkscape:version="1.3 (0e150ed6c4, 2023-07-21)"
   sodipodi:docname="web lomba.svg"
   xml:space="preserve"
   xmlns:inkscape="http://www.inkscape.org/namespaces/inkscape"
   xmlns:sodipodi="http://sodipodi.sourceforge.net/DTD/sodipodi-0.dtd"
   xmlns="http://www.w3.org/2000/svg"
   xmlns:svg="http://www.w3.org/2000/svg"><sodipodi:namedview
     id="namedview1"
     pagecolor="#ffffff"
     bordercolor="#000000"
     borderopacity="0.25"
     inkscape:showpageshadow="2"
     inkscape:pageopacity="0.0"
     inkscape:pagecheckerboard="0"
     inkscape:deskcolor="#d1d1d1"
     inkscape:document-units="mm"
     inkscape:zoom="0.69219277"
     inkscape:cx="-52.730976"
     inkscape:cy="356.11467"
     inkscape:window-width="1920"
     inkscape:window-height="991"
     inkscape:window-x="-9"
     inkscape:window-y="-9"
     inkscape:window-maximized="1"
     inkscape:current-layer="layer1" /><defs
     id="defs1" /><g
     inkscape:label="Layer 1"
     inkscape:groupmode="layer"
     id="layer1"
     transform="translate(-422.00588,774.14218)"><path
       id="path2"
       style="opacity:1;mix-blend-mode:normal;fill:#b72025;fill-opacity:1;fill-rule:nonzero;stroke:none;stroke-width:0.0441419"
       d="m 583.53437,-759.81347 c -3.06608,0.29135 -3.19585,0.76366 -3.40111,1.24915 -0.10153,0.24283 -0.2216,0.49885 -0.73364,0.75482 -0.25602,0.12806 -0.60959,0.25163 -1.10707,0.37968 -0.49571,0.1368 -1.13576,0.27364 -1.96695,0.41487 -1.1521,-0.67089 -1.19271,-1.04608 -0.46922,-1.48315 0.35931,-0.22068 0.9102,-0.4502 1.60719,-0.74155 0.6948,-0.28691 1.54407,-0.60471 2.49268,-1.0329 0.30502,-0.20306 0.81309,-0.47235 1.92237,-0.94022 -0.67272,0.3664 -1.31454,0.67093 -1.92237,0.94022 -0.71906,0.48554 0.52441,0.33103 1.77008,0.18975 1.24347,-0.15446 2.50283,-0.23391 1.80804,0.26933 z m -66.55719,27.9637 c -0.59768,0.64892 -1.78421,1.73477 -1.8897,2.09674 -2.99281,2.0923 -2.99281,1.88044 -2.24726,1.01523 0.75792,-0.85193 2.29581,-2.32186 2.39955,-2.68817 0.57913,-0.33112 1.01393,-0.56508 1.33086,-0.71954 0.32312,-0.14567 0.52441,-0.21629 0.63608,-0.22508 0.21939,-0.0177 0.0711,0.19858 -0.22953,0.52082 z m -85.96009,126.46578 c -1.13974,2.86039 -0.77778,3.19151 -0.44098,3.59311 0.17216,0.20307 0.34431,0.42819 0.33724,0.99762 -0.004,0.28691 -0.0525,0.66214 -0.16817,1.1609 -0.10418,0.50325 -0.27236,1.13885 -0.52661,1.94228 -1.12297,0.71505 -1.47786,0.57821 -1.53614,-0.26485 -0.0287,-0.4194 0.0159,-1.01528 0.0755,-1.76566 0.06,-0.75043 0.16862,-1.65093 0.21894,-2.68822 -0.0397,-0.36641 -0.0499,-0.94023 0.0419,-2.1409 0.0159,0.76365 -0.005,1.47431 -0.0419,2.1409 0.10462,0.86068 0.535,-0.31341 0.97641,-1.48759 0.42862,-1.17857 0.93448,-2.33953 1.06382,-1.48759 z m -5.97899,44.88766 c 0.12096,-2.0085 0.17569,-3.0149 0.67581,-3.65942 l 0.43612,0.33999 z m 205.74591,209.80249 c -0.4754,0.0141 -0.94286,0.0163 -1.39178,-0.004 0.48733,-0.0265 0.95081,-0.0207 1.39178,0.004 0.5787,-0.0163 1.168,-0.0468 1.75949,-0.0834 1.07662,-0.0591 2.15146,-0.16863 3.14112,-0.14038 0.49571,1.83277 -1.45093,0.4145 -4.90061,0.2238 z m -199.70115,-155.41119 -1.36972,1.25803 1.16137,-2.23798 z m 17.92459,41.82374 c 0.54471,0.93271 1.13356,1.83673 1.55821,2.7306 -1.40371,1.28011 -1.03204,-1.10134 -2.43574,-4.25834 -0.22998,-0.4167 -0.44539,-0.83119 -0.63211,-1.2395 0.24587,0.42243 0.45289,0.83693 0.63211,1.2395 0.27809,0.50763 0.57693,1.01791 0.87753,1.52774 z m 86.98903,90.90439 c -1.733,-1.02409 -2.60082,-1.53216 -2.94601,-2.27153 l 0.50189,-0.23174 z m 194.64037,-369.95411 c 1.09908,0.2869 3.11193,0.98434 3.48712,0.90937 0.55616,0.36631 0.96677,0.64444 1.24476,0.85633 0.27816,0.22064 0.43267,0.37071 0.49445,0.46343 0.11478,0.18545 -0.14567,0.15451 -0.56942,0.0309 -0.85194,-0.23396 -2.35715,-0.79455 -2.72799,-0.72397 -3.22675,-1.70384 -3.04131,-1.801 -1.92892,-1.5361 z m -0.38411,-5.59274 c 0,0 1.35953,0.58709 2.71476,1.17418 0.17653,0.0839 0.35309,0.16334 0.5297,0.24275 -0.59592,-0.4546 -1.15207,-0.87839 -1.15207,-0.87839 0.0573,-0.32668 1.07258,0.24274 2.22465,0.97107 1.15217,0.73724 2.45431,1.59797 3.14739,1.78337 l -2.05266,-0.53853 c -0.36636,0.11473 -1.78768,-0.46792 -2.85151,-0.75039 -2.02168,-0.85638 -3.31943,-1.84072 -2.56026,-2.00406 z m 18.53951,14.9243 -2.66612,-0.91373 1.10791,-1.39047 c 0.49002,0.87844 0.40609,1.20507 1.55821,2.3042 z m 35.08383,24.3353 c -0.43706,-0.52091 -0.8961,-1.01528 -1.22717,-1.3993 -0.33991,-0.38403 -0.56503,-0.63565 -0.56503,-0.63565 0.10594,-0.19423 0.75921,0.39729 1.68621,1.32864 0.90933,0.95349 2.0658,2.26886 3.21792,3.47394 1.09912,0.87843 2.49403,2.34396 3.15174,3.01933 -0.83428,-0.54741 -1.96869,-1.748 -3.15174,-3.01933 -0.66654,-0.52966 -1.24915,-0.92256 -1.36398,-0.69744 0,0 -0.87399,-1.0329 -1.74795,-2.07019 z m 4.65247,1.87157 c -0.36192,-0.20302 -0.71506,-0.29575 -1.05936,-0.22073 0.24275,-0.15886 0.62233,-0.022 1.05936,0.22073 z m 41.70942,75.72502 c -0.87405,-0.67981 -1.0859,-0.39734 -0.96668,0.36192 0.1059,0.75922 0.57382,1.98195 0.97999,3.21792 0.83428,2.45866 1.67734,4.85557 0,3.24442 -0.12805,-0.8519 -0.15894,-1.49198 -0.29139,-2.35276 -0.12801,-0.86077 -0.35313,-1.95106 -0.94462,-3.66821 l -0.80342,1.64653 c -2.65733,-7.95871 -4.6613,-13.4411 -6.79772,-18.62335 -0.55624,-1.28457 -1.11683,-2.55142 -1.69509,-3.83594 -0.28695,-0.64892 -0.59148,-1.28888 -0.91372,-1.92896 -0.32668,-0.64892 -0.65331,-1.30223 -0.98434,-1.96869 -0.34435,-0.66219 -0.67538,-1.34639 -1.05501,-2.02611 -0.38402,-0.68421 -0.77692,-1.38169 -1.17857,-2.09674 -0.41052,-0.7151 -0.82988,-1.45669 -1.28452,-2.21152 -0.46348,-0.74159 -0.94466,-1.50964 -1.44782,-2.30859 l 0.56494,0.37076 c -0.59148,-1.20947 -1.11239,-2.28205 -1.66854,-3.19142 -0.54733,-0.91373 -1.07263,-1.69505 -1.58906,-2.37038 -1.02411,-1.35518 -2.07911,-2.24245 -3.22675,-2.90455 -0.10595,-1.28009 2.33504,1.73921 1.62438,-0.30014 -1.0285,-0.7372 -1.92017,-1.55376 -2.72359,-2.41893 -0.8254,-0.85638 -1.54928,-1.77015 -2.20264,-2.71476 -0.32668,-0.47231 -0.63121,-0.95341 -0.93135,-1.43908 -0.30462,-0.47661 -0.59592,-0.96223 -0.87404,-1.44781 -0.56055,-0.97551 -1.07262,-1.95546 -1.56255,-2.92657 -1.01972,-1.9069 -1.95107,-3.75646 -2.98845,-5.30139 -1.05496,-1.52735 -2.20264,-2.77211 -3.58872,-3.48281 0.9535,-0.44581 0.69748,-2.24237 0.23401,-4.21993 -0.29579,-0.41048 -0.8211,-1.12118 -1.36402,-1.82301 -0.81656,-1.07271 -1.63766,-2.14969 -1.63766,-2.14969 l 2.44543,2.9133 c 0,0 0.20307,0.34879 0.40178,0.70188 0.0397,0.0662 0.0794,0.13679 0.11474,0.20306 -0.15011,-0.64452 -0.32668,-1.30658 -0.48114,-1.94227 -0.31785,-1.23153 -0.58274,-2.36598 -0.49885,-3.08991 -0.0264,-0.0353 -0.0486,-0.0706 -0.0706,-0.10595 -0.75038,-1.16974 -1.50525,-2.32621 -2.21591,-3.31504 -0.71505,-0.97986 -1.39047,-1.78772 -2.0393,-2.18941 1.64205,1.01967 4.09187,4.28175 4.14047,5.07191 l 0.30902,-1.64649 -1.09038,-1.00201 c 0.24718,-0.031 0.54297,0.0662 0.88283,0.25158 -0.99757,-1.27569 -2.01724,-2.43216 -3.05014,-3.48277 -1.15651,-1.12557 -2.32626,-2.12762 -3.48281,-3.05023 -1.15212,-0.92695 -2.33509,-1.7215 -3.46511,-2.49394 -0.56498,-0.38402 -1.12557,-0.75482 -1.67298,-1.12562 -0.5562,-0.35309 -1.09913,-0.70627 -1.63766,-1.05061 1.54059,1.82305 0.30462,1.03294 -1.09912,0.20306 -1.39922,-0.82988 -2.9663,-1.69944 -2.13202,-0.0838 l 2.86034,2.36598 c 0.82105,1.59793 -2.17614,-0.45468 -4.03452,-1.47875 -0.9578,-1.10356 -2.09674,-2.23802 -3.3106,-3.44309 -0.60032,-0.60915 -1.24923,-1.20507 -1.91134,-1.80539 -0.67093,-0.60036 -1.35074,-1.20946 -2.03934,-1.8274 -0.6886,-0.62246 -1.41693,-1.2139 -2.14086,-1.8187 -0.73276,-0.60032 -1.46113,-1.20064 -2.19385,-1.80539 -1.47871,-1.18297 -2.98835,-2.32186 -4.43178,-3.44305 -1.47436,-1.09029 -2.90011,-2.14085 -4.23763,-3.12963 -1.35075,-0.96228 -2.61761,-1.86274 -3.72552,-2.69266 -0.55624,-0.41931 -1.08594,-0.80334 -1.57591,-1.16535 -0.48549,-0.36192 -0.92695,-0.70178 -1.32425,-1.01962 -0.79015,-0.63565 -1.38164,-1.17862 -1.73033,-1.61121 0.88727,0.83867 2.29976,1.7745 3.74757,2.58671 1.44351,0.82993 2.89573,1.57587 3.90652,1.95546 0,0 -1.03281,-0.92695 -2.0658,-1.8539 -0.51647,-0.46796 -1.03729,-0.93143 -1.43894,-1.26246 -0.39729,-0.33991 -0.66219,-0.56503 -0.66219,-0.56503 0.47675,0.30018 0.927,0.60915 1.35519,0.93582 0.42814,0.33103 0.83866,0.67533 1.2404,1.02851 0.80777,0.71062 1.59345,1.45221 2.44099,2.22031 0.84759,0.76809 1.72594,1.59797 2.76771,2.41893 0.52087,0.41496 1.07263,0.82988 1.67738,1.25367 0.59593,0.42815 1.23592,0.86956 1.9378,1.31093 -0.11039,-0.77688 1.01527,-0.74594 1.79216,-1.04612 0.4767,-0.1854 0.81661,-0.49437 0.65331,-1.20507 -0.78576,-0.58266 -1.57143,-1.16091 -2.35715,-1.73034 l -0.0751,0.004 c 0,0 -0.98878,-0.48998 -1.97756,-0.97551 -0.49437,-0.24719 -0.98435,-0.49002 -1.35514,-0.67098 -0.3752,-0.17661 -0.62242,-0.29579 -0.62242,-0.29579 0,0 0.30013,0.106 0.74159,0.28696 0.44137,0.17661 1.02846,0.41491 1.61999,0.65326 0.22069,0.0883 0.44142,0.17657 0.65331,0.2649 -2.93988,-2.10557 -5.91941,-4.12281 -8.93865,-6.06069 -0.0751,-0.0265 -0.15455,-0.0486 -0.23401,-0.075 l -1.51404,0.009 -0.37519,-0.63121 c -0.58713,-0.21194 -1.20507,-0.45469 -1.87605,-0.75043 -2.02168,-0.81665 -4.41855,-2.1144 -7.6983,-4.09635 -0.58265,-0.17213 -0.0353,-0.19424 0.26485,-0.42376 -1.09912,-0.52969 -2.13202,-1.03733 -2.99719,-1.57591 -1.00201,-0.6135 -1.77454,-1.27564 -2.22918,-1.98626 -1.95106,-0.76814 -3.84025,-1.36406 -5.57955,-1.86726 -2.10992,-0.59153 -4.04771,-0.94018 -5.68536,-1.15208 -3.30186,-0.35757 -5.48679,0.0309 -5.96353,1.13002 1.03729,0.27368 2.32621,0.61798 3.69906,1.01528 1.36397,0.40608 2.78973,0.90484 4.10514,1.41248 1.32425,0.49881 2.50726,1.0859 3.39009,1.65089 0.88279,0.56946 1.46113,1.13889 1.54937,1.67303 -4.05663,-1.37281 -10.80592,-4.0787 -11.62248,-3.16941 -1.55821,-1.81422 0.30457,-1.13441 2.00401,-0.4811 1.69065,0.66654 3.20026,1.34627 0.97995,-0.66658 -2.72355,-1.18741 -4.14487,-1.10791 -5.53978,-1.35514 1.06384,0.0176 0.60915,-0.58705 -0.21629,-1.25798 -0.82105,-0.67986 -1.99523,-1.46113 -2.31742,-1.8496 -0.5518,-0.2383 -1.09034,-0.47226 -1.6156,-0.69743 -0.53409,-0.22068 -1.04612,-0.43702 -1.55381,-0.64444 -1.01079,-0.42379 -1.97312,-0.84315 -2.9089,-1.25806 -1.87605,-0.80778 -3.6549,-1.55821 -5.44267,-2.34836 -1.80543,-0.73712 -3.63288,-1.49198 -5.62806,-2.26003 -1.00644,-0.36636 -2.04818,-0.73716 -3.15613,-1.12119 -0.54732,-0.18979 -1.11679,-0.38402 -1.69505,-0.58269 -0.59153,-0.17657 -1.19619,-0.36192 -1.81866,-0.55176 0.29135,0.28251 0.38847,0.35762 -0.18087,-0.0529 0.0706,0.022 0.11913,0.0353 0.18087,0.0529 -0.4502,-0.43258 -1.38159,-1.35953 -0.9578,-1.75244 -0.63564,-0.10586 -1.31102,-0.1854 -2.00845,-0.2383 -0.6048,-0.0398 -1.23152,-0.0442 -1.85399,-0.0353 1.11239,0.73276 -1.34191,0.55615 -2.46749,0.56942 0,0.0882 -0.0309,0.17213 0.23831,0.3443 -1.13881,-0.29579 -0.88283,-0.33986 -0.23831,-0.3443 -0.009,-0.30018 0.99757,-0.26489 0.91812,-0.50764 -0.96668,0.0618 -1.89807,0.16334 -2.71911,0.31341 -2.37925,0.46347 -3.8933,1.2183 -3.12081,2.03491 -2.86478,-0.62678 -4.33915,-1.11236 -5.71898,-1.55373 -0.69085,-0.21633 -1.35696,-0.4194 -2.16382,-0.58713 -0.81268,-0.15446 -1.76568,-0.27368 -3.0193,-0.35309 7.53407,3.14726 -1.49508,-0.56942 -2.64319,1.21386 -5.05513,-0.50764 -1.6134,-1.1874 -3.87036,-1.97316 -0.86783,0.0619 -2.97074,0.47674 -3.16584,0.97555 0.2622,0.16334 0.59326,0.33107 1.04439,0.50764 0.44892,0.17656 1.01791,0.35752 1.74757,0.56947 -1.13003,-0.22078 -1.86322,-0.37972 -2.29184,-0.56508 -0.43081,-0.18096 -0.56103,-0.35318 -0.50012,-0.51203 -1.45668,-0.92256 0.1545,-1.69505 1.73741,-2.49838 1.5763,-0.79899 3.11861,-1.58031 1.37943,-2.71472 -0.60739,-0.36197 -1.74712,-0.81665 -3.1292,-1.32873 -0.0892,-0.0308 -0.18848,-0.0661 -0.2803,-0.10147 -0.12581,0.1898 -0.17038,0.40165 -0.47938,0.5341 -0.21143,0.0927 -0.54647,0.14562 -1.11545,0.13244 -0.49792,-0.0177 -1.17638,-0.0839 -2.11307,-0.20306 l -0.0428,1.51848 -1.48493,-0.12357 0.58311,-1.03299 -3.35652,-1.1653 c 0,0 1.97665,0.0176 3.9882,0.0397 l 0.35357,-0.62677 -0.0181,0.62677 c 0.9486,0.009 1.87911,0.0397 2.59023,0.0663 0.177,0.004 0.34166,0.0132 0.48776,0.0176 -0.43258,-0.15451 -0.87576,-0.30906 -1.33263,-0.46791 -0.69126,-0.22513 -1.40239,-0.43703 -2.1091,-0.65332 -2.65952,-0.23391 -5.32524,-0.42379 -7.99095,-0.56503 -1.22317,2.53376 -0.4392,7.41583 2.32627,9.39779 -0.23351,0.55176 -1.39179,0.16773 -2.7774,-0.39286 -0.69081,-0.29135 -1.44254,-0.59592 -2.15985,-0.84311 -0.7173,-0.25601 -1.39973,-0.45908 -1.95062,-0.51203 -0.79454,-0.26489 -1.54407,-0.46348 -2.25917,-0.56503 -0.7173,-0.10151 -1.39796,-0.14119 -2.05214,-0.13684 -1.3088,0.0133 -2.50548,0.17213 -3.66552,0.43698 -1.16004,0.25606 -2.28168,0.53853 -3.44393,0.71958 -1.16401,0.16769 -2.36908,0.29569 -3.70393,0.14563 0,0 1.00776,-0.28252 2.01772,-0.56943 0.50807,-0.14128 1.01393,-0.28691 1.39576,-0.37963 0.38006,-0.0971 0.63387,-0.1589 0.63387,-0.1589 -0.44274,-0.25158 -2.63702,-0.1589 -4.86794,0.0795 -1.11546,0.10591 -2.2371,0.28691 -3.15745,0.48114 -0.91859,0.18988 -1.63147,0.38847 -1.93428,0.56943 -0.11786,-0.31341 0.84928,-1.18741 1.55201,-2.0658 0.69921,-0.87405 1.12783,-1.748 -0.13198,-2.06585 -0.98744,0.009 -1.96872,0.0706 -2.92967,0.16778 -0.30061,0.14124 -0.6564,0.2692 -1.07883,0.38403 -0.29663,-0.0486 -0.59326,-0.0839 -0.8921,-0.11922 -3.03563,0.5032 -5.80507,1.3728 -7.9689,2.30859 -3.29119,1.48758 -5.2034,3.11201 -4.77655,4.0169 0,0 0.88988,-0.23835 2.22694,-0.59592 0.67051,-0.17652 1.45049,-0.38403 2.28786,-0.60915 0.8409,-0.21185 1.74094,-0.41931 2.64099,-0.64004 0.90226,-0.21634 1.80451,-0.42819 2.64983,-0.63121 0.85104,-0.18544 1.64338,-0.35318 2.32405,-0.49885 1.3653,-0.29126 2.27594,-0.48558 2.27594,-0.48558 0.30856,0.78136 -2.26755,1.37285 -4.80525,2.01733 -2.53771,0.70182 -5.0348,1.43459 -4.62649,2.36158 0,0 -0.83295,0.0662 -2.0826,0.17213 -1.24745,0.10595 -2.91776,0.22517 -4.57969,0.42375 -1.66194,0.18545 -3.33005,0.33995 -4.57352,0.52526 -1.24567,0.16334 -2.07642,0.27373 -2.07642,0.27373 0.83075,-0.16773 2.49488,-0.60476 3.69377,-1.02846 1.20065,-0.41501 1.93208,-0.86077 0.85326,-1.14329 -1.43019,0.22513 -2.32627,0.38846 -2.93586,0.45904 -0.6096,0.0751 -0.93051,0.0706 -1.19668,0.0309 -0.53235,-0.0795 -0.84753,-0.3178 -2.82639,-0.33107 1.54629,-0.79895 3.41126,-1.84068 5.42501,-3.00159 0.86738,-0.48118 1.76169,-0.99317 2.66748,-1.51404 0.0305,-0.79898 1.9281,-1.68621 3.76086,-2.41458 0.61975,-0.25602 1.22537,-0.4988 1.74757,-0.73276 0.42861,-0.24719 0.85723,-0.49002 1.27393,-0.72833 0.0265,-0.0177 0.053,-0.0309 0.0812,-0.0485 0.24984,-0.25606 0.1951,-0.48558 -0.34342,-0.67981 0.51821,0.0353 0.92653,0.0927 1.27392,0.15894 0.65639,-0.3664 1.29644,-0.7328 1.90604,-1.0815 0.16862,-0.10155 0.33327,-0.19423 0.49968,-0.29135 -4.10208,0.4238 -8.19445,0.96229 -12.27225,1.6156 -0.56458,0.32219 -1.11502,0.64887 -1.6456,0.98873 0.87577,-0.27807 1.42224,-0.40608 1.23949,0.0309 -0.54647,0.0486 -1.10133,0.13688 -1.65619,0.24718 -0.0711,0.0486 -0.14611,0.0927 -0.21939,0.14572 -0.9102,0.62238 -1.76566,1.25802 -2.56197,1.88923 -1.59705,1.24041 -2.94204,2.52932 -4.01689,3.59311 -1.07485,1.07707 -1.88132,1.9334 -2.37924,2.48081 -2.84846,0.41492 -3.83988,-0.51208 -3.97186,-1.58914 -0.50189,0.0795 -1.36353,0.21633 -2.22077,0.37523 -1.33087,0.23831 -2.66174,0.47675 -2.66174,0.47675 l 3.7079,-0.84311 c 0,0 0.40434,-0.022 0.80867,-0.0398 0.12404,-0.004 0.24807,-0.009 0.35976,-0.0132 -0.0874,-0.87848 0.38182,-1.84511 0.87576,-2.26007 -2.58669,0.52086 -4.42343,1.31102 -5.89643,2.12319 -1.47699,0.80777 -2.56419,1.75683 -3.65537,2.65728 -0.54427,0.45029 -1.08677,0.90054 -1.67385,1.34196 -0.58753,0.44137 -1.21125,0.8961 -1.93031,1.31981 -0.7151,0.42379 -1.52201,0.82988 -2.46443,1.20951 -0.94111,0.38846 -2.00756,0.78132 -3.26516,1.12557 0,0 0.98524,-0.12796 1.97092,-0.26041 0.98127,-0.13684 1.96873,-0.23395 1.96873,-0.23395 -0.56502,0.24283 -1.52201,0.5783 -2.62909,0.93582 -1.1053,0.36192 -2.37128,0.7195 -3.51499,1.09913 -2.29007,0.75926 -4.1652,1.41253 -3.60858,1.54937 -1.48713,-0.0927 -3.11463,-0.70187 -3.45408,-1.50521 -0.48556,0.15007 -0.98348,0.30901 -1.48934,0.47226 -0.51381,0.43263 -1.07882,0.9049 -1.63148,1.39931 -0.91638,0.81217 -1.83276,1.61999 -2.5196,2.22918 -0.34122,0.30014 -0.62549,0.55615 -0.82456,0.73272 -0.19732,0.18101 -0.309,0.28252 -0.309,0.28252 0.74777,-0.56503 0.14214,-1.73038 -0.22777,-2.63967 -0.0649,0.0265 -0.12801,0.0486 -0.19289,0.075 -0.86739,0.32672 -1.72683,0.70192 -2.59466,1.07271 -0.0914,0.0397 -0.18053,0.0794 -0.27014,0.11918 -0.19113,0.2957 -0.33944,0.58713 -0.44097,0.86517 -0.36991,1.01967 -0.12802,1.83188 0.80072,1.76127 0.0931,-0.0133 0.18275,-0.0265 0.2781,-0.0397 -0.0993,0.0221 -0.19069,0.0353 -0.2781,0.0397 -1.70077,0.24718 -2.87715,0.4988 -3.77101,0.69303 -0.94066,0.21625 -1.57895,0.36192 -2.17398,0.5032 -0.99186,0.21186 -1.8694,0.38403 -3.93346,0.59588 -0.68287,0.33991 -1.35162,0.67098 -2.00359,0.99318 0.075,0.28699 0.37167,0.55619 0.77204,0.76365 0.79852,0.43267 2.01153,0.66654 2.77563,0.45469 -2.00359,1.38159 -3.62889,2.38364 -5.05511,3.09435 -1.43063,0.70183 -2.61097,1.20507 -3.68362,1.62882 -0.0733,0.0574 -0.10373,0.11478 -0.18715,0.17213 l -0.11389,-0.053 c -0.13993,0.0574 -0.2803,0.11038 -0.41625,0.16777 l -0.78837,0.75918 -0.16068,-0.35753 c -0.63166,0.28695 -1.22934,0.60915 -1.80628,1.02846 -0.97509,0.70187 -1.93208,1.64205 -2.93586,3.15622 0,0 0.0305,-0.10599 0.0834,-0.28699 0.0547,-0.17653 0.13198,-0.43703 0.22556,-0.7416 0.1929,-0.61354 0.45113,-1.43459 0.70892,-2.2512 0.37608,-1.1653 0.75394,-2.32625 0.94286,-2.9089 -0.20923,0.0662 -0.40036,0.11913 -0.56898,0.15446 0.18893,-0.0662 0.39021,-0.15007 0.59547,-0.23835 0.0627,-0.19423 0.0993,-0.30897 0.0993,-0.30897 0,0 0.11389,0.0485 0.29884,0.13245 0.94684,-0.4459 2.00756,-1.06824 3.01929,-1.73926 1.09691,-0.71066 2.14749,-1.44782 2.93806,-2.0879 -0.0552,-0.0706 -0.10991,-0.14119 -0.16906,-0.20746 -0.4913,0.18544 -1.16622,0.44585 -1.84071,0.70187 -0.65197,0.24718 -1.30041,0.5032 -1.77979,0.70622 -0.48158,0.19867 -0.8047,0.33112 -0.8047,0.33112 0.48379,-0.28691 0.96538,-0.54297 1.45094,-0.78128 0.48952,-0.22961 0.98524,-0.43267 1.48315,-0.63125 0.43877,-0.17213 0.88372,-0.33986 1.33308,-0.50764 -0.76233,-0.84315 -1.73741,-1.58027 -2.11924,-2.37042 -0.45112,0.24723 -0.90225,0.49446 -1.35117,0.7416 -0.19334,0.26041 -0.40037,0.54736 -0.62373,0.85633 -1.07881,1.47871 -2.50326,3.42977 -3.85223,5.43383 -0.6789,1.00205 -1.36133,1.97317 -1.9749,2.92218 -0.60783,0.94022 -1.17461,1.82305 -1.66017,2.57348 -0.48158,0.75478 -0.88372,1.37276 -1.15607,1.81862 -0.27015,0.44146 -0.42684,0.69747 -0.42684,0.69747 0.20922,-0.7372 -0.0344,-3.65933 -0.2781,-3.87567 0.008,0.69748 -1.00599,1.92461 -2.64938,3.44753 -0.41272,0.37954 -0.86385,0.77679 -1.34941,1.1918 -0.47937,0.41927 -0.98745,0.86073 -1.52554,1.31097 -0.50806,0.43263 -1.04659,0.86961 -1.60146,1.31546 0.34166,-0.0928 0.64227,-0.11038 0.88416,-0.031 -3.07226,2.97957 -8.55995,7.75134 -8.12338,8.89015 -2.3245,0.56059 -0.87136,-0.78567 0.48556,-2.00406 1.36574,-1.19615 2.65777,-2.2291 -0.14611,-1.17414 -2.29581,1.88045 -2.87892,3.18264 -3.73438,4.3083 0.50366,-0.93587 -0.2419,-0.80786 -1.21919,-0.37972 -0.0914,0.0398 -0.18673,0.0795 -0.28428,0.12366 -1.53436,1.23596 -2.95837,2.37925 -4.17536,3.36359 l 1.09516,-0.94905 c 0.23748,-0.47235 -0.006,-0.5297 -0.54074,-0.29579 -0.0304,0.0133 -0.0671,0.031 -0.0993,0.0486 -0.0185,0.0132 -0.0389,0.0309 -0.057,0.0442 -0.437,0.37519 -0.86341,0.73716 -1.28231,1.09029 -0.83869,0.70626 -1.64958,1.37276 -2.44589,2.01285 -0.88195,0.72832 -1.73344,1.43459 -2.57831,2.13646 -0.27853,0.33546 -0.52264,0.66205 -0.71731,0.9578 0.0221,-0.18536 0.079,-0.3487 0.17039,-0.5076 -0.48158,0.3929 -0.96096,0.79011 -1.44652,1.18301 -0.17877,0.15451 -0.35975,0.30897 -0.54029,0.46348 -0.47541,0.78576 -0.82722,1.60232 -1.16622,2.42781 -0.44319,1.055 -0.90623,2.08351 -1.61559,3.06785 -0.70714,0.98873 -1.68224,1.9069 -3.21395,2.70588 4.28704,-4.10079 4.48612,-5.56627 3.58784,-6.05185 -0.36153,0.50764 -0.81442,1.06379 -1.32469,1.65092 -0.49793,0.59593 -1.04617,1.22713 -1.61736,1.87161 -0.57296,0.63565 -1.16004,1.29336 -1.7352,1.93336 -0.56281,0.65335 -1.1031,1.30218 -1.59881,1.92021 -1.99521,2.44548 -3.08021,4.46267 -1.24171,4.52011 -1.24921,0.97111 -2.28565,2.03055 -3.09212,2.72794 -0.8047,0.70183 -1.42004,1.01084 -1.88573,0.44137 0,0 -0.079,0.1281 -0.21497,0.3443 -0.18495,1.3199 0.0221,2.11884 0.79411,1.89811 -1.86499,2.26008 -2.9725,3.35037 -3.99438,4.37888 -0.50983,0.51198 -0.99362,1.01527 -1.51185,1.65536 -0.0102,0.0132 -0.0203,0.0264 -0.0304,0.0397 -0.0852,0.15007 -0.16863,0.30014 -0.24588,0.43698 -0.48158,0.86516 -0.82059,1.4788 -0.89784,1.61559 5.29082,-4.46271 -1.67429,1.55821 -0.64402,3.33714 -2.76106,4.26844 -1.79216,0.89606 -3.52339,2.5425 -0.339,0.80343 -0.9305,2.86044 -0.57693,3.26209 0.26441,-0.1589 0.56678,-0.3752 0.92874,-0.69744 0.36152,-0.31784 0.78219,-0.74159 1.30615,-1.29331 -0.7151,0.90485 -1.1905,1.48311 -1.55202,1.77885 -0.35357,0.30462 -0.56677,0.3399 -0.68287,0.2119 -1.28585,0.75926 -1.42004,-0.48114 -1.43019,-1.98191 -0.32532,0.98429 -0.68464,1.94218 -1.01614,2.9354 0,0 -0.45113,0.55171 -1.12958,1.3772 -0.67051,0.83427 -1.60499,1.92017 -2.46885,3.05897 -0.8815,1.13006 -1.76125,2.25568 -2.42161,3.10319 -0.32311,0.43702 -0.59105,0.79894 -0.77821,1.0506 1.82658,0.5297 3.85842,0.5606 5.43693,-0.25166 0.38402,0.46352 -0.48954,1.31546 -1.62133,2.29097 -0.57075,0.48558 -1.18432,1.01527 -1.7352,1.53614 -0.55266,0.52526 -1.04396,1.03734 -1.34677,1.50525 -0.59547,0.58705 -1.11546,1.16091 -1.53215,1.75235 -0.41846,0.59157 -0.76586,1.17862 -1.06073,1.76131 -0.5809,1.16979 -0.98921,2.30864 -1.27966,3.46511 -0.30678,1.14328 -0.56502,2.2733 -0.93669,3.39009 -0.38006,1.1123 -0.81485,2.24241 -1.56041,3.36359 0,0 0.20924,-1.02851 0.41626,-2.05701 0.10373,-0.51647 0.20746,-1.03295 0.3006,-1.41693 0.0874,-0.37958 0.14655,-0.6356 0.14655,-0.6356 -0.42684,0.27799 -1.3472,2.27326 -2.15366,4.36556 -0.41449,1.04173 -0.7663,2.12323 -1.01394,3.02808 -0.24984,0.90493 -0.39816,1.63326 -0.37608,1.98195 -0.33328,-0.0397 -0.66831,-1.2977 -1.12738,-2.31737 -0.388,-0.86957 -0.86782,-1.55816 -1.52377,-1.15656 -0.18495,0.93139 -0.36372,1.69065 -0.53058,2.4852 -0.38403,1.8187 -0.98922,3.77851 -1.98682,8.44868 -0.57296,0.15446 -0.59326,-0.9534 -0.88415,-1.27125 -0.20703,1.19185 -0.34343,2.33065 -0.41008,3.36359 -0.17921,3.60639 0.39198,6.05182 1.39354,6.08715 0,0 0.19511,-0.9005 0.48778,-2.25125 0.14831,-0.67981 0.31914,-1.46987 0.50188,-2.31746 0.19291,-0.84746 0.42067,-1.73912 0.63609,-2.64406 0.22115,-0.89601 0.44052,-1.80099 0.64579,-2.64405 0.22777,-0.83872 0.43877,-1.62443 0.61975,-2.29541 0.36373,-1.34631 0.60562,-2.24676 0.60562,-2.24676 0.83516,0.0794 0.18496,2.64406 -0.39816,5.19543 -0.53455,2.57793 -1.02011,5.13805 -0.0124,5.19544 0,0 -0.31914,0.77253 -0.79631,1.93344 -0.47364,1.15651 -1.1318,2.69705 -1.7149,4.26405 -0.59326,1.56708 -1.21699,3.1208 -1.62132,4.30825 -0.42067,1.18741 -0.70319,1.97312 -0.70319,1.97312 0.23175,-0.81221 0.60166,-2.49403 0.77205,-3.75645 0.18098,-1.25358 0.11564,-2.10996 -0.62769,-1.28008 -0.45114,1.3772 -0.71731,2.2468 -0.93051,2.82501 -0.21365,0.57387 -0.36462,0.85638 -0.52265,1.07711 -0.31252,0.43702 -0.6683,0.60915 -1.58159,2.36159 -0.005,-1.73917 -0.083,-3.87567 -0.19643,-6.19749 -0.0322,-1.09033 -0.087,-2.22918 -0.1439,-3.3857 -0.23924,0.43698 -0.47937,0.86517 -0.71421,1.28453 -0.22645,0.3929 -0.44759,0.77692 -0.66168,1.15212 -0.20394,0.37958 -0.40126,0.74155 -0.59062,1.09468 -0.37476,0.70187 -0.70671,1.3507 -0.96228,1.93344 -0.50852,1.1653 -0.72172,2.05697 -0.33327,2.56461 -0.038,0.20302 -0.0706,0.3929 -0.10065,0.57386 0.25867,0.97995 0.53279,1.8804 0.78484,2.67939 0.46702,1.44781 0.8612,2.55581 1.11855,3.24437 -0.50542,1.48319 -1.11414,2.29536 -1.72858,2.66616 0.038,0.43702 0.0746,0.85638 0.10329,1.18745 0.0331,0.41048 0.0693,0.68864 0.0693,0.68864 -0.8996,1.53167 -0.0843,-3.99928 -1.78464,0.46787 -0.39198,4.0787 -0.56281,7.31424 -0.88681,10.34236 -0.0163,0.17217 -0.0358,0.34869 -0.0539,0.52087 0.006,0.0707 0.0128,0.14132 0.0172,0.21189 0.0512,0.83428 0.0446,1.73473 -0.0477,2.75001 -0.0861,1.01084 -0.22379,2.14085 -0.48909,3.41659 0,0 0.3346,-0.93579 0.6692,-1.87166 0.32531,-0.93574 0.68772,-1.86278 0.68772,-1.86278 -0.0406,0.61364 -0.17789,1.62448 -0.36637,2.77211 -0.18319,1.14768 -0.44363,2.43664 -0.62726,3.62405 -0.15405,1.00201 -0.29178,1.92461 -0.37256,2.63083 0.0759,-0.10156 0.15229,-0.20302 0.22778,-0.31341 0.7866,-1.11674 1.51582,-2.4101 0.8846,1.54498 -1.32514,1.02411 -2.83787,1.9069 -3.48013,6.87725 0.098,0.37963 0.19333,0.75483 0.28471,1.11235 0.24676,0.70631 0.51293,1.18745 0.7535,1.7745 0.17083,0.4194 0.32842,0.89166 0.45554,1.54058 0.13111,0.65332 0.25867,1.48311 0.33415,2.61317 l -0.94463,-0.19424 c -0.0247,0.0972 -0.0552,0.18096 -0.0887,0.26046 -0.37167,1.0859 -0.63564,1.96868 -0.83869,2.69266 -0.004,0.83423 -0.0141,1.58914 -0.0653,2.22474 -0.10815,1.36393 -0.38668,2.20704 -1.07574,2.21591 0.33725,1.51848 0.49792,2.82506 0.55442,3.96831 0.56458,-0.52966 1.05852,-1.25363 1.18123,-1.85839 0.31695,2.41015 0.46482,4.31704 0.44716,5.91058 -0.004,0.20306 -0.009,0.40608 -0.0146,0.60475 0.17656,-0.3399 0.35401,-0.74599 0.52881,-1.19623 0.20835,-0.53858 0.41405,-1.13885 0.60915,-1.74361 0.21011,-0.60471 0.41185,-1.2139 0.5968,-1.78328 0.36946,-1.13006 0.67183,-2.08351 0.84972,-2.44548 -0.33724,1.5361 -0.54382,2.95747 -0.68948,4.2862 -0.11478,1.32424 -0.17966,2.54694 -0.27148,3.69018 -0.10417,1.14324 -0.18981,2.20712 -0.3933,3.21792 -0.20349,1.00201 -0.5169,1.95546 -1.01879,2.87357 0,0 -0.19422,-1.36832 -0.38845,-2.74117 -0.0203,-0.14123 -0.0411,-0.28686 -0.0609,-0.43254 l -0.0115,0.009 c -0.11963,1.25802 -0.21409,2.36154 -0.0269,3.55338 0.18143,1.18741 0.57738,2.46749 1.46772,4.05219 0,0 -0.0786,-0.0751 -0.21498,-0.20302 -0.13551,-0.13249 -0.32885,-0.31784 -0.56015,-0.53857 -0.28383,-0.28252 -0.62903,-0.62233 -0.99408,-0.98434 0.19688,0.99761 0.43833,1.79216 0.64889,2.4852 0.3134,0.97994 0.57296,1.75683 0.53632,2.66172 -0.0132,0.46347 -0.11256,0.96228 -0.3112,1.53175 0.2132,0.34869 0.33239,0.54292 0.33239,0.54292 -0.0901,-0.0839 -0.24057,-0.18535 -0.42464,-0.2913 -0.18319,0.47666 -0.4295,1.01084 -0.75482,1.61995 -0.0587,-0.70188 -0.14744,-1.42581 -0.25779,-2.13203 -0.43259,-0.19423 -0.88725,-0.37967 -1.26863,-0.51647 0.30104,1.13889 0.55398,2.09669 0.55398,2.09669 -0.0181,0.0309 -0.0366,0.053 -0.0543,0.0707 0.16377,0.46787 0.32709,0.98874 0.48821,1.56265 0.15008,0.53848 0.29751,1.12557 0.44318,1.7436 0.0936,0.37515 0.1898,0.76801 0.28603,1.16974 0.23263,0.48993 0.45467,0.92251 0.65374,1.25359 l 0.61048,0.32224 c 0.0781,0.67541 -0.19201,0.39725 -0.61048,-0.32224 l -0.12492,-0.0618 c 0,0 0.1183,0.65336 0.29619,1.63326 0.18496,0.98434 0.39419,2.29536 0.67802,3.59755 0.26838,1.29771 0.53631,2.59994 0.7376,3.57989 0.0631,0.27363 0.11963,0.52086 0.16907,0.7415 0.0737,0.2384 0.14346,0.53419 0.19996,0.87405 0,0 -0.0764,-0.33551 -0.19996,-0.87405 -0.0975,-0.32659 -0.20261,-0.55167 -0.29751,-0.68411 0.32223,1.58905 0.64622,3.17815 0.96229,4.72756 0.2644,0.76366 0.56279,1.5096 0.7707,2.07907 0.23175,0.6135 0.38625,1.02851 0.38625,1.02851 0.22511,0.47226 0.47937,1.12558 0.81926,2.15852 l -0.81926,-2.15852 c -0.3143,-0.67542 -0.52926,-0.85633 -0.65948,-0.67981 0.46171,2.2512 0.89342,4.3391 1.2598,6.09158 L 428.3,-506.96143 c -0.3134,-0.42815 -0.47276,-0.23391 -0.51028,0.34878 -0.007,0.11913 -0.008,0.26485 -0.006,0.41931 0.84885,3.39449 2.16735,4.68341 3.26384,5.78701 0.31119,0.31332 0.60694,0.60911 0.87665,0.94018 0.27544,0.32668 0.5319,0.67977 0.7482,1.10795 0.43568,0.85634 0.72172,2.00406 0.78528,3.79706 -0.25823,-0.97508 -0.52175,-1.06247 -0.78263,-2.05345 0,0 0.0644,0.91545 0.12845,1.82787 0.0274,0.45908 0.0812,0.91241 0.1108,1.25365 0.0318,0.34341 0.0538,0.57116 0.0538,0.57116 0.97994,-0.12007 1.90162,1.05633 2.79549,2.86876 0.95081,1.79174 1.82482,4.24822 2.83433,6.65612 0.95523,2.42603 2.02566,4.80704 3.03783,6.55241 1.04837,1.72903 2.08657,2.79372 3.04136,2.57213 0.14434,1.30262 0.1748,2.00138 0.0795,2.22916 -0.0976,0.22733 -0.35755,0.002 -0.746,-0.56282 -0.77204,-1.12958 -2.21458,-3.52912 -4.2685,-6.19924 0,0 0.2578,1.35558 0.51381,2.70852 0.28869,1.34721 0.57517,2.69618 0.57517,2.69618 -0.5041,-0.9773 -0.89829,-1.91001 -1.27613,-2.867 -0.27192,-0.67449 -0.56281,-1.35118 -0.9283,-2.04994 0.23572,0.90402 0.48555,1.71711 0.64579,2.37747 0.13419,0.54029 0.1951,0.987 0.12227,1.31233 0.68861,1.74713 1.55423,3.3424 2.47458,4.76642 0.84708,1.28628 1.71093,2.44853 2.54565,3.46246 0.84928,1.00775 1.63986,1.88132 2.29183,2.6229 0.35181,1.33484 -0.53191,1.1905 -1.00334,1.53789 -0.47982,0.3496 -0.51425,1.18653 1.58248,4.47817 2.98706,4.62428 3.35653,3.7975 3.41745,2.55007 0.0653,-1.25584 -0.15627,-2.94602 1.62573,-0.22557 0,0 0.12801,1.27789 0.30678,2.54168 0.17039,1.27613 0.34342,2.55006 0.34342,2.55006 0.34916,0.39992 0.67626,0.80249 1.00555,1.19447 0.33107,0.39241 0.65021,0.78219 0.95699,1.17064 0.61357,0.77776 1.17858,1.55024 1.70652,2.32228 1.08103,1.52554 2.04022,3.02503 2.91599,4.53291 0.91815,1.48095 1.75949,2.96853 2.6229,4.44727 0.89607,1.46109 1.78597,2.9341 2.78975,4.389 1.09913,1.1724 1.73919,1.66591 2.14749,1.84292 -0.0428,-0.0693 -0.0953,-0.13243 -0.13596,-0.2035 l 0.48336,0.24985 c 0.34563,-0.0587 0.36373,-0.54869 0.61578,-0.61137 0.12359,-0.0305 0.30678,0.0446 0.61533,0.33107 0.30678,0.28868 0.73584,0.79233 1.39178,1.59086 0,0 -0.66609,-0.31296 -1.32027,-0.64402 -0.65065,-0.33327 -1.30262,-0.66654 -1.30262,-0.66654 -0.0892,0.0163 -0.19908,0.0102 -0.3474,-0.0463 1.93208,3.24838 4.82954,5.97942 7.60914,8.44606 1.40193,1.22493 2.79549,2.37084 4.01689,3.51897 1.25362,1.12163 2.35892,2.22297 3.19408,3.36447 -0.59149,-0.34519 -0.29265,0.47541 0.21718,1.44873 0.5041,0.97951 1.18034,2.14969 1.24568,2.56198 0,0 0.50145,0.40257 1.25362,1.00598 0.76586,0.58532 1.78773,1.3631 2.80785,2.14132 1.01173,0.7866 2.05391,1.53392 2.83213,2.09717 0.77645,0.5628 1.29423,0.93624 1.29423,0.93624 -3.65713,-2.6613 -4.29322,-1.72461 -5.66867,-1.49508 1.18476,1.09074 2.19251,1.74536 3.09256,2.3223 0.90182,0.57472 1.70254,1.06469 2.55978,1.74138 -1.2554,-0.59326 -2.52137,-1.21742 -1.62309,0.32489 0,0 0.57075,0.38006 1.45446,0.9124 0.48556,0.29663 1.06294,0.65021 1.67651,1.02585 0.26617,0.10771 0.58929,0.27633 1.00554,0.53456 -0.0305,0.006 -0.0631,0.0141 -0.0953,0.0221 0.20701,0.12624 0.41625,0.25426 0.62593,0.38227 1.17416,0.70096 2.36687,1.37324 3.24882,1.88749 0.88372,0.50984 1.473,0.85106 1.473,0.85106 -0.35975,-0.5584 -1.25362,-1.40813 -2.00977,-2.11086 0.51426,0.42862 1.20684,0.94905 1.98947,1.53613 0.78395,0.58708 1.68842,1.20683 2.58846,1.89147 1.78774,1.37943 3.67965,2.84846 4.92091,4.38856 -0.48158,0.13419 -1.58071,-0.22953 -2.1881,-0.19069 0.64579,0.40433 1.27173,0.80029 1.88132,1.20286 0.75791,0.48114 1.48713,0.97509 2.2084,1.48492 0.0163,-0.13375 0,-0.28648 -0.0609,-0.46305 1.13797,0.94861 2.0623,1.76567 2.92968,2.44633 0.87003,0.68243 1.65399,1.27173 2.46884,1.82041 0.40654,0.27412 0.8228,0.53852 1.2598,0.80028 0.44274,0.25206 0.91021,0.49792 1.41385,0.74997 0.15274,0.075 0.309,0.15052 0.46747,0.22557 0.3006,-0.1364 0.0344,-0.72746 -0.2803,-1.3269 -0.63608,-1.20904 -1.45491,-2.45031 1.77758,-0.0812 0.13817,0.74158 0.23395,1.50567 0.67493,2.37924 0.30237,0.1258 0.61533,0.25381 0.94463,0.38404 l -0.58708,0.22953 c 0.41449,0.62196 1.02187,1.30438 1.94002,2.07245 0.99363,0.49395 1.83674,0.91417 1.83674,0.91417 l -0.81839,-0.1258 c 0.1929,0.14037 0.39197,0.28251 0.60518,0.42862 1.35956,0.34562 2.08084,0.27014 2.97867,0.34739 0.44893,0.0388 0.94067,0.11609 1.57851,0.29884 0.64006,0.18098 1.43681,0.44671 2.47679,0.89607 l -1.13576,1.40989 c 0.26837,0.15229 0.55486,0.32091 0.85943,0.50409 0.59945,0.32488 1.17858,0.63564 1.71711,0.9283 0.8025,0.4167 1.52377,0.79455 2.10512,1.1543 0.63167,0.38977 1.09471,0.7535 1.34676,1.10311 0.34121,0.0468 0.66875,0.0936 0.98347,0.14831 1.44255,0.26397 2.65954,0.65418 3.89682,2.16779 2.17398,0.5893 0.67494,-0.67448 -0.16641,-1.54407 -0.76409,-0.79235 -1.00157,-1.24965 2.46045,0.22777 -0.15449,-0.16067 -0.31075,-0.31914 -0.46922,-0.47982 -0.44317,-0.46304 -0.89431,-0.92035 -1.31454,-1.34279 -0.83736,-0.8453 -1.54628,-1.55025 -1.78994,-1.87337 1.21257,0.99981 2.38718,1.83453 3.49867,2.56816 1.12561,0.70715 2.18589,1.3247 3.16142,1.92811 0.96715,0.61357 1.86896,1.1724 2.66969,1.80848 3.12699,1.24966 5.15662,2.31612 6.61947,3.24883 1.25761,0.81661 2.06848,1.58468 2.78578,2.29183 0.56899,0.34122 1.12738,0.86739 1.76346,1.67826 0.53853,0.4551 1.15828,0.90006 1.98108,1.33881 0.74555,0.39419 1.66591,0.74998 2.82815,1.11547 0.045,0.0141 0.0936,0.0265 0.13817,0.0406 0.26618,0 0.50586,-0.006 0.71729,-0.0203 l 0.56502,-0.39595 c 0.63564,0.23749 0.26397,0.35138 -0.56502,0.39595 l -0.11167,0.0834 c 0,0 0.63608,0.1929 1.59086,0.48336 0.15626,0.0468 0.32488,0.0976 0.49792,0.15052 0.46922,0.0993 0.96273,0.1951 1.49331,0.2803 -2.15985,-1.18035 -0.98965,-1.51583 -0.65639,-1.9749 0.33504,-0.45289 -0.15228,-1.02012 -5.49783,-2.81402 1.33881,0.24983 2.60038,0.68463 3.82575,1.23154 0.61357,0.26794 1.21301,0.5787 1.82261,0.86739 0.60739,0.29266 1.21698,0.58928 1.82658,0.88592 0.61136,0.29442 1.22714,0.58708 1.85263,0.85944 0.31296,0.13595 0.62813,0.27014 0.94684,0.39418 0.31913,0.11565 0.64225,0.22557 0.96934,0.32886 1.30836,0.40654 2.67189,0.68066 4.12459,0.69919 l -4.01467,0.6948 c 0.97906,0.29266 2.06627,0.44097 3.04533,0.52616 0.97553,0.0976 1.86145,0.075 2.41984,0.1161 l -0.78793,1.19447 c 0.9283,-0.0711 1.81422,-0.0587 2.66351,0.0163 0.85105,0.0733 1.66811,0.21321 2.46222,0.35755 1.39399,0.26397 2.6944,0.65021 3.93788,1.0157 l -1.22935,-1.72902 0.97112,0.2644 0.41448,1.50964 c 0.12184,0.0366 0.24587,0.0728 0.36594,0.10771 1.7149,0.46128 3.31371,0.86959 4.82733,0.8431 0.22556,-0.0671 0.45113,-0.13021 0.68066,-0.17877 0.4167,-0.0976 0.84752,-0.16244 1.32469,-0.16067 0.26441,-0.0914 0.52618,-0.19908 0.7844,-0.33504 -0.21939,0.12977 -0.38182,0.24366 -0.50189,0.34519 0.88813,0.049 1.94664,0.32532 3.37506,0.98745 0.69656,0.0265 1.42005,0.049 2.11086,0.10991 0.25381,0.0203 0.49968,0.0468 0.73982,0.0773 0.6193,-0.13022 1.38737,-0.1748 2.25917,-0.16068 2.02963,-0.0282 4.61412,0.31518 7.21671,0.51425 2.59464,0.25999 5.20342,0.39418 7.21715,0.28825 2.01772,-0.14214 3.43775,-0.57914 3.67744,-1.52996 1.22317,0.46526 1.85925,0.75792 2.01772,0.94684 0.15847,0.18893 -0.16068,0.31915 -0.83913,0.40655 -1.35956,0.17038 -4.15109,0.35931 -7.46479,0.96714 0,0 1.32248,0.38977 2.6432,0.77999 1.33087,0.35975 2.66173,0.71951 2.66173,0.71951 -0.48776,0 -0.95478,-0.0146 -1.41826,-0.0406 0.92256,0.13596 1.77185,0.30061 2.55403,0.48733 0.4529,0.10594 0.88592,0.22159 1.29821,0.34165 0.40256,-0.0247 0.79852,-0.0569 1.18873,-0.0958 1.53172,-0.16862 2.96013,-0.40434 4.24422,-0.68641 1.28232,-0.29486 2.42205,-0.59768 3.37904,-0.83957 0.94287,0.20746 0.96714,0.62196 0.92653,1.0488 0.20305,-0.16685 0.50189,-0.35578 0.92036,-0.565 1.48536,0.83295 3.00074,1.11545 4.62648,1.15386 0.81485,0.0225 1.65576,-0.0486 2.53549,-0.16421 0.31297,-0.0406 0.63388,-0.0874 0.9592,-0.1364 0.44274,-0.32709 0.0283,-0.66654 -0.52219,-0.98348 -1.08721,-0.6299 -2.69441,-1.20462 0.54029,-1.54804 0,0 1.19668,0.46746 2.40351,0.88592 1.02233,0.36373 2.0442,0.72524 2.33686,0.82898 0.23131,-0.0388 0.46525,-0.0773 0.70273,-0.11388 0.30503,-0.0689 0.60784,-0.13817 0.90844,-0.20526 0.49968,-0.11566 0.99142,-0.22159 1.47698,-0.31694 0.97111,-0.18893 1.91795,-0.34121 2.84449,-0.45907 1.85086,-0.26441 3.6227,-0.43259 5.36409,-0.52441 1.73697,-0.13993 3.44393,-0.211 5.15662,-0.30281 1.70654,-0.12978 3.42363,-0.2516 5.17473,-0.47938 1.54629,-0.44274 2.27991,-0.78616 2.62334,-1.06867 -0.0834,0.006 -0.16243,0.0243 -0.24367,0.0282 l 0.44053,-0.31693 c 0.10593,-0.33283 -0.31869,-0.57252 -0.26177,-0.82457 0.0305,-0.12624 0.18054,-0.25425 0.57696,-0.39639 0.39594,-0.14434 1.03863,-0.29442 2.04947,-0.51204 0,0 -0.58265,0.44715 -1.17416,0.87797 -0.59504,0.42862 -1.1905,0.85503 -1.1905,0.85503 -0.0243,0.0874 -0.079,0.18318 -0.19686,0.28868 1.55512,-0.0976 3.10889,-0.388 4.645,-0.78439 0.004,-0.002 0.009,-0.004 0.0177,-0.006 0.59148,-0.23131 1.33747,-0.50586 2.29536,-0.84311 0.48109,-0.16862 1.01084,-0.35357 1.60232,-0.55883 0.58709,-0.21497 1.23597,-0.45289 1.95106,-0.7151 -0.41935,0.20129 -0.67537,0.35755 -0.81221,0.48556 0.43258,-0.16244 0.86077,-0.32709 1.28448,-0.49174 1.73481,-0.6886 3.39013,-1.4059 4.96591,-1.96871 1.57152,-0.60121 3.05467,-1.08279 4.45398,-1.30615 -0.57826,0.36947 0.28691,0.47937 1.38603,0.46922 1.10356,-0.002 2.44991,-0.0689 2.85156,0.0631 0,0 0.58704,-0.2644 1.46544,-0.65638 0.86964,-0.4167 2.02611,-0.96935 3.18711,-1.52201 1.16091,-0.54028 2.3042,-1.12561 3.15605,-1.56217 0.85637,-0.43479 1.43019,-0.72348 1.43019,-0.72348 -2.65728,1.34103 -3.33265,2.23092 -3.60638,3.0599 0.46796,-0.11565 0.91372,-0.22159 1.35079,-0.32488 0.58265,-0.14258 1.16091,-0.28472 1.77445,-0.46128 0.56508,-0.1726 1.16974,-0.37785 1.83637,-0.63211 0.2957,-0.1545 0.59583,-0.30855 0.91807,-0.45511 -0.0882,0.0671 -0.17652,0.1364 -0.26484,0.20306 0.60036,-0.23969 1.25806,-0.51999 1.99962,-0.85502 0.94466,-0.44716 2.00845,-1.00202 3.25773,-1.67252 l -1.28017,-0.16245 c 0.80777,-0.45112 1.63765,-0.89166 2.47632,-1.33484 0.82997,-0.46128 1.67738,-0.91638 2.53819,-1.36928 1.71711,-0.90004 3.47833,-1.8226 5.26606,-2.75929 0.90054,-0.45112 1.7966,-0.93669 2.69705,-1.41606 0.90489,-0.47364 1.81427,-0.95081 2.73238,-1.42843 0.90494,-0.49394 1.81427,-0.98965 2.72795,-1.48536 0.91372,-0.49351 1.83637,-0.97906 2.73682,-1.50126 7.2789,-4.06191 14.45194,-8.49506 20.37131,-13.21689 0,0 -0.28247,0.1726 -0.72389,0.4145 -0.44142,0.24366 -1.02411,0.56677 -1.60676,0.89165 -0.74599,0.4167 -1.49198,0.82898 -1.92896,1.07485 -0.1589,0.0976 -0.29135,0.1748 -0.40174,0.2216 0,0 0.15447,-0.0834 0.40174,-0.2216 0.38398,-0.24366 0.9005,-0.63167 1.51843,-1.11546 0.86965,-0.68243 1.94223,-1.52774 3.06346,-2.4684 0.56938,-0.46304 1.15647,-0.93668 1.75239,-1.40193 0.60471,-0.45731 1.20951,-0.91815 1.80104,-1.36531 1.18736,-0.88813 2.37033,-1.66414 3.45627,-2.18015 0.36197,-0.32488 0.62677,-0.52617 0.67094,-0.3496 -0.20751,0.0852 -0.44581,0.24586 -0.67094,0.3496 -0.70631,0.61975 -1.81861,1.83055 -2.57353,2.29801 0.27373,0.24366 0.93144,0.2984 1.89811,0.0282 0.18545,-0.0508 0.38407,-0.11785 0.59153,-0.19289 0.12805,-0.10374 0.26041,-0.20923 0.39725,-0.31915 0.43703,-0.13375 0.96229,-0.35358 1.54054,-0.62769 0.38407,-0.23352 0.78137,-0.49968 1.20073,-0.8025 l 0.41487,-1.72902 1.03294,-0.16686 c 0.78567,-0.67625 1.50521,-1.26378 2.16731,-1.78156 -0.10595,-0.50586 -2.53811,0.50587 0.48998,-2.03581 2.24684,0.15405 6.85079,-3.72467 11.31795,-8.02583 0.39286,-0.37565 0.78571,-0.75571 1.17418,-1.13576 -0.73281,0.53013 -1.88049,1.53789 -3.69467,3.30797 0.83423,-1.07706 1.79656,-1.99962 2.84273,-2.84051 0.52082,-0.42465 1.06819,-0.81706 1.60232,-1.22714 0.0397,-0.0305 0.0794,-0.0592 0.11918,-0.0896 2.38808,-2.34083 4.66134,-4.60618 6.5638,-6.1401 0.20307,-0.31076 0.39734,-0.63387 0.57386,-0.97112 l -0.21624,0.68861 c 0.74599,-0.57693 1.43019,-1.02806 2.0349,-1.31233 0.009,-0.0203 0.0221,-0.0406 0.0309,-0.0591 l 0.0221,0.0349 c 0.12357,-0.057 0.24714,-0.10992 0.3664,-0.15274 0.20742,-1.08897 -0.14567,-1.14768 -0.7637,-0.69876 -0.62681,0.44495 -1.50077,1.42003 -2.41453,2.3426 -1.80979,1.86542 -3.55339,3.7079 -2.88689,1.48316 0.69743,-0.50365 1.25367,-0.82501 1.95993,-1.33484 0.70623,-0.50984 1.57144,-1.20463 2.82946,-2.51343 l -1.82745,0.0349 c 5.86642,-5.99576 9.82593,-10.28103 13.46316,-14.54996 0.88723,-1.08103 1.76127,-2.15765 2.63966,-3.26075 0.44586,-0.54691 0.87405,-1.11369 1.30223,-1.6946 0.42819,-0.58133 0.86078,-1.17019 1.29775,-1.77184 0.43707,-0.60739 0.89606,-1.21522 1.32425,-1.86719 0.43254,-0.65021 0.87396,-1.31851 1.32869,-2.00535 0.44581,-0.69303 0.91812,-1.39973 1.37724,-2.14749 0.45016,-0.75395 0.91364,-1.53216 1.39482,-2.34083 l -0.0706,0.66653 c 0.80773,-1.07705 1.52283,-2.03184 2.07463,-2.93983 0.56059,-0.90446 1.01963,-1.72726 1.38159,-2.49532 0.7416,-1.52996 1.05052,-2.87274 1.11679,-4.19744 1.09029,-0.67668 -0.48553,2.87054 1.00201,1.31057 0.18984,-1.24965 0.51199,-2.41808 0.91377,-3.52956 0.38402,-1.12341 0.86516,-2.18413 1.40813,-3.19806 0.2692,-0.50587 0.5606,-0.99937 0.85634,-1.48493 0.28695,-0.49174 0.58265,-0.97156 0.88718,-1.44299 0.60919,-0.94066 1.25367,-1.84644 1.88932,-2.72442 1.23148,-1.77582 2.45426,-3.4479 3.35472,-5.07761 0.87839,-1.63766 1.46109,-3.22234 1.46109,-4.78275 0.1589,0.12183 0.3399,0.17701 0.53857,0.18893 0.88718,-2.36689 2.03935,-4.97963 3.68583,-7.88548 -0.40173,2.86302 0.32659,2.25343 1.05496,1.54235 0.72389,-0.70891 1.44343,-1.51363 0.99762,1.04435 0.95784,-2.97249 1.25358,-4.57746 1.36841,-5.78432 0.1103,-1.21125 0.0176,-2.03008 -0.0442,-3.4929 l 1.5626,-1.4708 c 0.0486,-2.1091 -0.0706,-3.31901 -0.18096,-4.12679 -0.11039,-0.81221 -0.23396,-1.22278 -0.28251,-1.75244 -0.0618,-0.52526 -0.0133,-1.16534 0.1059,-2.4322 0.0662,-0.63565 0.16334,-1.42136 0.29579,-2.42776 0.0706,-0.50325 0.15002,-1.06388 0.23391,-1.68182 0.0795,-0.62238 0.16334,-1.30658 0.25602,-2.06145 -0.053,2.07033 0.58713,0.97995 1.25367,-0.24279 0.66654,-1.22709 1.3507,-2.58223 1.36393,-0.97547 0.10595,-0.41496 0.20311,-0.82548 0.29579,-1.236 0.0839,-0.41053 0.15446,-0.82101 0.22512,-1.22714 0.1368,-0.81656 0.25158,-1.62003 0.33542,-2.39687 0.18105,-1.55381 0.18105,-3.02812 0.0971,-4.29937 l 0.0662,0.4723 c 0.82549,-6.12243 1.44791,-8.58117 2.01729,-10.92505 0.14123,-0.58269 0.27812,-1.16095 0.40169,-1.78777 0.11034,-0.62681 0.2075,-1.30214 0.29578,-2.08346 0.0838,-0.78132 0.15451,-1.6598 0.20302,-2.70154 0.0353,-1.04608 0.0265,-2.25115 0,-3.66372 l -0.72832,1.06383 c -0.0309,-0.92695 -0.0485,-1.86278 -0.0574,-2.81179 -0.0309,-0.9491 -0.0485,-1.91133 -0.0618,-2.88249 -0.0133,-1.94219 -0.0309,-3.92863 -0.0486,-5.95031 0.0133,-1.0064 -0.0132,-2.02163 -0.0308,-3.04574 -0.004,-1.01968 -0.0133,-2.04814 -0.0221,-3.07669 -0.0265,-1.0329 -0.053,-2.07019 -0.0751,-3.10757 -0.0221,-1.03725 -0.0352,-2.08347 -0.0882,-3.12076 -0.28695,-8.33395 -0.95793,-16.73851 -2.45865,-24.15874 0,0 0.0264,0.33107 0.0397,0.83428 0.0176,0.4988 0.0397,1.16974 0.0618,1.83628 0.0264,0.85194 0.0573,1.70383 0.075,2.20707 0.0133,0.1854 0.0221,0.33991 0.0133,0.45909 0,0 -0.004,-0.17657 -0.0133,-0.45909 -0.0441,-0.45459 -0.15007,-1.09029 -0.30014,-1.86277 -0.21185,-1.08146 -0.47226,-2.42333 -0.79455,-3.85353 -0.15446,-0.71514 -0.30897,-1.45225 -0.45025,-2.19824 -0.1324,-0.74604 -0.26485,-1.49207 -0.39281,-2.22475 -0.24719,-1.46113 -0.3973,-2.86922 -0.36201,-4.0699 -0.12357,-0.47226 -0.18096,-0.79894 -0.004,-0.75917 -0.0221,0.22512 0.0133,0.51194 0.004,0.75917 0.22956,0.91377 0.79899,2.45422 0.86956,3.33714 0.33995,-0.12801 0.68864,-0.6886 0.89166,-1.67738 0.10595,-0.48997 0.16778,-1.09029 0.18105,-1.79221 0.009,-0.70182 -0.0707,-1.5052 -0.20306,-2.4101 l -1.35075,-1.15655 0.52526,-1.62439 c -1.23152,-5.42495 -1.15647,1.92461 -2.38804,-3.47837 1.16535,-1.92896 -0.1854,-7.79977 -1.97316,-13.7324 -1.77006,-5.94596 -3.95504,-11.94033 -3.59311,-14.68151"
       inkscape:label="path36" /></g></svg>
