<?xml version="1.0" encoding="UTF-8" standalone="no"?>
<!-- Created with Inkscape (http://www.inkscape.org/) -->

<svg
   width="94.168106mm"
   height="43.542046mm"
   viewBox="0 0 94.168106 43.542046"
   version="1.1"
   id="svg1"
   inkscape:version="1.3 (0e150ed6c4, 2023-07-21)"
   sodipodi:docname="esport yang diikuti.svg"
   xml:space="preserve"
   xmlns:inkscape="http://www.inkscape.org/namespaces/inkscape"
   xmlns:sodipodi="http://sodipodi.sourceforge.net/DTD/sodipodi-0.dtd"
   xmlns="http://www.w3.org/2000/svg"
   xmlns:svg="http://www.w3.org/2000/svg"><sodipodi:namedview
     id="namedview1"
     pagecolor="#ffffff"
     bordercolor="#000000"
     borderopacity="0.25"
     inkscape:showpageshadow="2"
     inkscape:pageopacity="0.0"
     inkscape:pagecheckerboard="0"
     inkscape:deskcolor="#d1d1d1"
     inkscape:document-units="mm"
     inkscape:zoom="0.2447271"
     inkscape:cx="-807.02138"
     inkscape:cy="67.422039"
     inkscape:window-width="1920"
     inkscape:window-height="991"
     inkscape:window-x="-9"
     inkscape:window-y="-9"
     inkscape:window-maximized="1"
     inkscape:current-layer="layer1"
     inkscape:export-bgcolor="#00000000" /><defs
     id="defs1"><style
       id="style1">.cls-1{fill:none;}.cls-2{clip-path:url(#clip-path);}.cls-3{clip-path:url(#clip-path-3);}.cls-4{fill:#110303;}.cls-5{opacity:0.6;}.cls-6{opacity:0.1;}.cls-7{clip-path:url(#clip-path-4);}.cls-8{mask:url(#mask);}.cls-9{clip-path:url(#clip-path-5);}.cls-10{mask:url(#mask-2);}.cls-11{clip-path:url(#clip-path-6);}.cls-12{mask:url(#mask-3);}.cls-13{clip-path:url(#clip-path-7);}.cls-14{mask:url(#mask-4);}.cls-15{clip-path:url(#clip-path-8);}.cls-16{mask:url(#mask-5);}.cls-17{clip-path:url(#clip-path-9);}.cls-18{clip-path:url(#clip-path-11);}.cls-19{clip-path:url(#clip-path-12);}.cls-20{mask:url(#mask-6);}.cls-21{clip-path:url(#clip-path-13);}.cls-22{mask:url(#mask-7);}.cls-23{clip-path:url(#clip-path-14);}.cls-24{mask:url(#mask-8);}.cls-25{clip-path:url(#clip-path-15);}.cls-26{mask:url(#mask-9);}.cls-27{clip-path:url(#clip-path-16);}.cls-28{mask:url(#mask-10);}.cls-29{filter:url(#luminosity-noclip-10);}.cls-30{filter:url(#luminosity-noclip-9);}.cls-31{filter:url(#luminosity-noclip-8);}.cls-32{filter:url(#luminosity-noclip-7);}.cls-33{filter:url(#luminosity-noclip-6);}.cls-34{filter:url(#luminosity-noclip-5);}.cls-35{filter:url(#luminosity-noclip-4);}.cls-36{filter:url(#luminosity-noclip-3);}.cls-37{filter:url(#luminosity-noclip-2);}.cls-38{filter:url(#luminosity-noclip);}</style><style
       type="text/css"
       id="style1-9">&#10;   <![CDATA[
    .fil0 {fill:#332C2B}
   ]]>&#10;  </style><style
       type="text/css"
       id="style1-6">&#10;   <![CDATA[
    .str0 {stroke:white;stroke-width:20;stroke-miterlimit:22.9256}
    .fil2 {fill:none}
    .fil0 {fill:black}
    .fil3 {fill:#D43B3B}
    .fil1 {fill:white}
   ]]>&#10;  </style></defs><g
     inkscape:label="Layer 1"
     inkscape:groupmode="layer"
     id="layer1"
     transform="translate(-27.214118,219.67573)"><g
       id="g85"
       transform="matrix(0.68176826,0,0,0.68176826,111.60184,-27.514706)"><path
         id="path6"
         style="opacity:0.938065;fill:#ed1d27;fill-opacity:1;fill-rule:nonzero;stroke:none;stroke-width:0.0135954"
         d="m -65.942524,-274.15288 0.871074,-0.36571 c 0.292311,-0.11692 0.590286,-0.21889 0.884793,-0.32901 0.586471,-0.2284 1.189976,-0.40378 1.783422,-0.59548 0.911154,-0.35755 1.659176,-0.6213 2.265378,-0.78852 0.302369,-0.0857 0.565699,-0.16723 0.797505,-0.22161 0.232076,-0.0517 0.429622,-0.0952 0.596029,-0.1278 0.282637,-0.13051 0.657342,-0.31405 1.181998,-0.5003 -0.115152,0.0136 -0.237664,0.0285 -0.351736,0.0421 -2.018504,0.39019 -4.019319,0.97887 -5.954619,1.77147 -0.386651,0.1849 -0.761741,0.3698 -1.113978,0.54925 -0.347652,0.1917 -0.669598,0.38475 -0.959866,0.56557" /><path
         id="path8"
         style="opacity:0.938065;fill:#ed1d27;fill-opacity:1;fill-rule:nonzero;stroke:none;stroke-width:0.0135954"
         d="m -58.671872,-276.34581 c 0.61996,-0.20529 1.229708,-0.49215 -0.07245,-0.2352 -1.194909,0.57237 -0.544619,0.44185 0.07245,0.2352" /><path
         id="path63"
         style="opacity:0.938065;fill:#ed1d27;fill-opacity:1;fill-rule:nonzero;stroke:none;stroke-width:0.0135954"
         d="m -81.613183,-248.45496 c -0.03122,-0.4065 -0.0647,-0.91769 -0.03353,-1.47782 0.01272,-0.2787 0.02158,-0.57372 0.05438,-0.87146 0.03661,-0.29638 0.07981,-0.59955 0.131068,-0.90273 0.265257,-1.58657 0.647939,-3.15955 1.136176,-4.67679 -1.067386,3.10517 -1.554236,6.42243 -1.40047,9.13742 0.0046,-0.20121 0.02505,-0.40378 0.04513,-0.60499 0.01734,-0.20257 0.05576,-0.40242 0.06744,-0.60363" /><path
         id="path65"
         style="opacity:0.938065;fill:#b72025;fill-opacity:1;fill-rule:nonzero;stroke:none;stroke-width:0.0135954"
         d="m -53.205568,-218.80352 c -0.343952,0.0843 -0.79396,0.1346 -1.317382,0.1781 -0.130529,0.0109 -0.266606,0.0204 -0.406229,0.0326 -0.139623,0.008 -0.282792,0.008 -0.430046,0.0109 -0.293929,0.005 -0.602387,0.007 -0.920942,0.007 -1.270597,-0.0367 -2.696887,-0.18897 -3.988873,-0.45272 -1.289249,-0.27191 -2.449743,-0.61179 -3.216649,-0.90545 -1.907283,-0.72735 -3.912491,-1.69398 -5.828445,-2.88357 -1.91002,-1.19775 -3.720264,-2.61711 -5.310495,-4.12075 -0.12047,-0.38067 0.0131,-0.43233 0.336899,-0.23792 0.162168,0.0979 0.372238,0.25695 0.623737,0.46904 0.258474,0.20529 0.567896,0.45408 0.910229,0.74774 0.08552,0.0734 0.173729,0.14955 0.264563,0.22705 0.09392,0.0748 0.190454,0.1509 0.28969,0.22976 0.196466,0.15907 0.402991,0.32493 0.618342,0.49895 0.210456,0.1781 0.447811,0.3426 0.685051,0.52342 0.240245,0.17538 0.481686,0.36707 0.7407,0.54789 1.035399,0.73007 2.226762,1.47917 3.516975,2.15894 1.295609,0.67025 2.693227,1.25621 4.097204,1.71437 1.401819,0.46768 2.818051,0.77358 4.125645,0.95576 2.620929,0.37115 4.798093,0.18489 5.755184,-0.19442 0.402414,0.17402 0.141396,0.33989 -0.545158,0.49351 z m -12.056645,-1.5118 c -0.149527,-0.0653 -0.299363,-0.12916 -0.449584,-0.19441 -0.148988,-0.068 -0.294738,-0.14275 -0.442532,-0.21481 -0.294353,-0.14683 -0.5899,-0.29366 -0.886142,-0.44185 -0.288495,-0.16178 -0.5778,-0.32493 -0.867258,-0.48671 0.284834,0.15362 0.570323,0.30861 0.856506,0.4636 0.292311,0.14411 0.585431,0.28822 0.879514,0.43233 0.146945,0.0721 0.294199,0.14411 0.441838,0.21752 0.150375,0.0653 0.301135,0.13188 0.45205,0.1985 0.302639,0.13187 0.602657,0.27326 0.910344,0.40106 -0.299671,-0.11556 -0.594795,-0.24879 -0.894736,-0.37523 z m -15.452996,-21.02792 c -0.163016,-0.63898 -0.351043,-1.26573 -0.475559,-1.9047 l -0.103475,-0.47992 -0.05164,-0.24064 -0.04012,-0.242 c -0.0526,-0.32628 -0.105363,-0.65257 -0.158661,-0.98294 -0.04648,-0.33036 -0.07519,-0.66753 -0.111606,-1.00877 -0.01542,-0.1713 -0.03738,-0.34396 -0.04636,-0.51663 -0.0077,-0.17537 -0.01542,-0.35076 -0.02312,-0.5275 -0.08579,-1.1488 -0.04255,-2.34383 0.05738,-3.56469 0.07353,-0.60772 0.130798,-1.22766 0.251653,-1.84217 0.0575,-0.30726 0.101547,-0.61995 0.173729,-0.9272 0.07153,-0.30862 0.143284,-0.61724 0.215504,-0.92857 0.320713,-1.23173 0.705862,-2.46891 1.214602,-3.66258 l 0.184096,-0.45001 c 0.06251,-0.14955 0.135268,-0.29502 0.202555,-0.44321 l 0.413166,-0.88097 c 0.15184,-0.28687 0.303448,-0.57373 0.455018,-0.86059 l 0.229493,-0.42825 0.248108,-0.41602 c 0.219859,-0.39834 0.426924,-0.80621 0.665512,-1.1828 0.506004,-0.83475 1.037867,-1.49684 1.57339,-2.10999 0.07831,-0.0965 0.15527,-0.1917 0.232192,-0.28551 -0.04104,0.0557 -0.08536,0.11557 -0.126444,0.1713 0.209917,-0.2216 0.417945,-0.44048 0.627322,-0.66073 0.103436,-0.11148 0.213307,-0.21752 0.326532,-0.32085 0.111914,-0.10604 0.224753,-0.21208 0.338941,-0.31813 0.113803,-0.1074 0.228955,-0.21616 0.345879,-0.32629 0.116076,-0.11148 0.23354,-0.22296 0.361101,-0.33036 0.250805,-0.21889 0.508855,-0.44593 0.777079,-0.68793 0,0 0.06405,-0.0816 0.128216,-0.16314 0.06729,-0.0802 0.134459,-0.15907 0.134459,-0.15907 l 0.121819,0.13732 c -1.232021,1.38536 -2.595764,2.88765 -3.833758,4.56803 -1.231211,1.68039 -2.325228,3.53751 -3.049973,5.4395 -0.247452,0.61179 -0.444844,1.24805 -0.657612,1.88159 -0.09762,0.32085 -0.183826,0.64442 -0.276818,0.96799 -0.04432,0.16179 -0.09488,0.32221 -0.134151,0.48671 l -0.114881,0.49215 -0.115036,0.49352 -0.0575,0.24743 -0.04663,0.2488 c -0.06104,0.33308 -0.122242,0.66617 -0.183402,0.99925 -0.05384,0.33581 -0.09288,0.67297 -0.139508,1.00878 -0.02043,0.16858 -0.04867,0.33444 -0.06239,0.50439 l -0.04243,0.5071 c -0.06945,0.67433 -0.08062,1.35138 -0.100584,2.02571 0.01272,0.67433 0.0104,1.34594 0.07449,2.01211 0.037,0.66617 0.137195,1.32419 0.224869,1.9754 0.123052,0.64714 0.22826,1.28884 0.401065,1.91287 0.04786,0.19169 0.09245,0.40922 0.134305,0.64034 0.04829,0.22976 0.09885,0.47176 0.149565,0.71375 0.05045,0.242 0.09326,0.48536 0.144942,0.71376 0.05642,0.22704 0.110527,0.44321 0.161898,0.63354 -0.237895,-0.65257 -0.4186,-1.29699 -0.617224,-1.92918 z m 23.326613,-32.15434 c -0.02698,0.005 -0.05422,0.0109 -0.08128,0.0163 -0.0073,0.002 -0.01503,0.003 -0.02235,0.003 0.03468,-0.005 0.06894,-0.0136 0.103591,-0.019 z m 31.651048,25.71559 c -0.01233,-0.38067 -0.05438,-0.76134 -0.0802,-1.14473 -0.13731,-1.53355 -0.392933,-3.09158 -0.798044,-4.67816 -0.39698,-1.55938 -0.985686,-3.06167 -1.653202,-4.52045 -0.130528,-0.27054 -0.210726,-0.34396 -0.255584,-0.33716 -0.0449,0.008 -0.05985,0.0979 -0.08702,0.1645 -0.05168,0.1346 -0.149566,0.1781 -0.613139,-0.692 0.03276,0.10332 0.05981,0.20529 0.07885,0.29638 0.09245,0.1645 0.183518,0.32492 0.271885,0.48263 0.08837,0.15771 0.16317,0.31813 0.240631,0.4704 0.153651,0.3059 0.300481,0.59004 0.418754,0.85107 0.222981,0.5275 0.372508,0.93944 0.386112,1.15696 -0.01773,0.22025 -0.182169,0.002 -0.425536,-0.43641 -1.317383,-3.51576 -3.389338,-6.81263 -6.21714,-9.64046 -1.282042,-1.28204 -2.660623,-2.40773 -4.112618,-3.37844 0.315433,0.10333 0.622696,0.21073 0.917705,0.30046 -1.271176,-0.90817 -2.702746,-1.65727 -3.960317,-2.19565 0.168565,0.0598 0.173999,0.005 0.190339,-0.0245 -0.242019,-0.11692 -0.47448,-0.2284 -0.701545,-0.33717 -0.233849,-0.0965 -0.460876,-0.18897 -0.682469,-0.28006 -0.22433,-0.0884 -0.439141,-0.18354 -0.660734,-0.25967 -0.221632,-0.0761 -0.440489,-0.15091 -0.660734,-0.22704 -0.436404,-0.16043 -0.887799,-0.28279 -1.355457,-0.42282 -0.116925,-0.0353 -0.236585,-0.072 -0.356207,-0.1074 -0.119622,-0.0353 -0.244716,-0.0639 -0.368423,-0.0965 -0.25015,-0.0652 -0.50847,-0.13323 -0.776309,-0.20393 1.564835,0.21889 3.271026,0.70832 4.967738,1.45062 1.699409,0.74095 3.383904,1.73341 4.947351,2.89037 0.202556,0.0653 0.391546,0.11829 0.564196,0.15771 -3.170404,-2.54776 -6.989363,-4.3709 -10.999972,-5.1907 -2.002587,-0.41738 -4.045986,-0.60364 -6.06896,-0.56013 -2.024207,0.0489 -4.025716,0.3358 -5.948915,0.82796 -1.385787,0.38882 -2.765447,0.86466 -4.09967,1.47781 0.342063,-0.11828 0.683548,-0.24063 1.028733,-0.35484 0.349539,-0.1006 0.700312,-0.20121 1.052703,-0.30181 0,0 -0.559302,0.18217 -1.118757,0.36299 -0.550361,0.20801 -1.100568,0.41466 -1.100568,0.41466 -0.347343,0.14003 -0.686014,0.29366 -1.035554,0.44185 -0.430161,0.2216 -0.858665,0.45272 -1.283392,0.69472 -0.371274,0.19169 -0.738888,0.3929 -1.102841,0.60363 0.449199,-0.27598 0.892385,-0.571 1.364167,-0.81844 -0.504809,0.23112 -0.985262,0.51527 -1.479588,0.77901 -0.248108,0.13052 -0.481031,0.28823 -0.722857,0.43098 -0.238203,0.14955 -0.484538,0.28686 -0.716768,0.44593 l -0.699194,0.47855 c -0.115691,0.0802 -0.235082,0.15635 -0.347921,0.242 l -0.337439,0.25695 -0.674067,0.51526 c -0.217933,0.18082 -0.431356,0.36572 -0.646706,0.54926 -0.437907,0.35891 -0.837084,0.75862 -1.244237,1.14744 -0.207219,0.19034 -0.394013,0.40107 -0.585855,0.60636 -0.1903,0.20528 -0.380254,0.41058 -0.569745,0.61586 -0.177583,0.21617 -0.354858,0.43098 -0.531593,0.64443 -0.174577,0.21616 -0.355243,0.42553 -0.512671,0.65257 -0.32183,0.44865 -0.652332,0.88506 -0.931308,1.35274 -0.0039,0.003 -0.0042,0.007 -0.0066,0.0109 -0.462379,0.65666 -0.891615,1.32963 -1.288864,2.0162 0.0058,-0.0462 0.05723,-0.15771 0.121125,-0.28279 0.116808,-0.21616 0.259977,-0.47312 0.208452,-0.50574 0.503537,-1.07404 1.120915,-2.09233 1.737754,-3.06304 0.16448,-0.23655 0.32738,-0.46903 0.48793,-0.6988 0.163015,-0.2284 0.316473,-0.46224 0.489162,-0.67297 0.168719,-0.2148 0.334702,-0.42689 0.497179,-0.63354 0.08224,-0.10468 0.163401,-0.20665 0.243906,-0.30725 0.08482,-0.0979 0.168989,-0.19442 0.251923,-0.28823 0.272695,-0.29637 0.539455,-0.60091 0.829029,-0.88097 0.291501,-0.27735 0.585816,-0.55198 0.881132,-0.82388 0.304643,-0.26103 0.615452,-0.51254 0.922561,-0.76542 0.07735,-0.0625 0.152803,-0.12779 0.231536,-0.18761 l 0.238743,-0.17674 c 0.158776,-0.11692 0.317283,-0.23384 0.475135,-0.35076 1.272254,-0.92177 2.562313,-1.73205 3.780999,-2.50427 0.169529,-0.12099 0.401065,-0.23248 0.659809,-0.36163 0.261133,-0.12372 0.549243,-0.26647 0.859898,-0.38883 0.31104,-0.121 0.634065,-0.24607 0.951001,-0.36979 0.315665,-0.1278 0.635029,-0.22432 0.922291,-0.33717 0.119622,-0.053 0.24171,-0.1074 0.366111,-0.16178 0.124015,-0.0571 0.252077,-0.10876 0.383684,-0.15635 0.26306,-0.0965 0.532942,-0.19577 0.805637,-0.29637 -0.297321,0.0693 -0.595065,0.13867 -0.89308,0.208 -0.298399,0.0693 -0.590825,0.16043 -0.887221,0.23928 -0.05152,0.008 0.06432,-0.0421 0.3063,-0.13595 0.121279,-0.0449 0.273003,-0.10605 0.453014,-0.16859 0.181745,-0.0584 0.390043,-0.12507 0.619382,-0.19849 0.230188,-0.072 0.480338,-0.15634 0.749795,-0.23248 0.271076,-0.072 0.558377,-0.14819 0.856507,-0.22704 0.149411,-0.0381 0.300866,-0.0802 0.455865,-0.11692 0.155655,-0.0326 0.313353,-0.0666 0.472437,-0.1006 0.318787,-0.0653 0.641966,-0.14276 0.968537,-0.20122 0.653912,-0.1074 1.308788,-0.2284 1.926321,-0.29094 0.308188,-0.0353 0.605123,-0.0829 0.886951,-0.10332 0.281559,-0.0245 0.54801,-0.0476 0.790029,-0.068 0.486696,-0.053 0.885063,-0.0612 1.150166,-0.0911 0.263754,-0.0258 0.392894,-0.0544 0.341215,-0.0857 0,-0.004 -0.03545,-0.008 -0.10332,-0.0109 -0.06933,-0.002 -0.169914,-0.004 -0.301791,-0.007 -0.262405,-0.003 -0.645781,-0.015 -1.124346,0.0136 -0.239282,0.0109 -0.503036,0.0217 -0.787716,0.0353 -0.28468,0.0122 -0.589361,0.0503 -0.912772,0.0775 -0.647554,0.0489 -1.362549,0.16314 -2.126179,0.27598 -1.524601,0.25696 -3.223894,0.68385 -4.887964,1.26573 -1.665688,0.57916 -3.290064,1.32011 -4.708609,2.09504 -0.593292,0.22569 -0.469585,-0.1006 -0.09095,-0.55061 0.185714,-0.23112 0.451935,-0.46088 0.709677,-0.68112 0.260632,-0.21345 0.516755,-0.41058 0.710486,-0.51119 0.08035,-0.053 0.176465,-0.11148 0.266605,-0.16722 -0.915777,0.3929 -1.81456,0.83475 -2.677194,1.31603 -1.329214,0.84019 -2.613299,1.76603 -3.801926,2.80064 -0.245949,0.19985 -0.471088,0.42553 -0.707364,0.63762 -0.230997,0.21752 -0.472283,0.42418 -0.694301,0.65257 l -0.66821,0.67977 c -0.110257,0.1142 -0.224483,0.22432 -0.331195,0.3426 l -0.317437,0.3562 -0.63341,0.71376 -0.600499,0.74366 c -0.408965,0.48808 -0.768409,1.01829 -1.145156,1.5322 0.376323,-0.56965 0.7449,-1.15289 1.156563,-1.70078 0.0938,-0.13323 0.189915,-0.27054 0.287147,-0.40922 0.09758,-0.13867 0.19901,-0.27735 0.308881,-0.40922 0.21616,-0.26783 0.440875,-0.53837 0.67322,-0.813 0.05846,-0.068 0.116925,-0.13595 0.175811,-0.20529 0.06224,-0.0653 0.12467,-0.13187 0.187333,-0.19849 0.126558,-0.13188 0.254235,-0.26375 0.382836,-0.39834 0.507507,-0.54382 1.090201,-1.04549 1.68068,-1.56483 1.211865,-1.00605 2.579847,-1.94005 4.047027,-2.75985 1.515891,-0.94896 3.106007,-1.77012 4.751039,-2.43085 0.04336,-0.0217 0.08116,-0.0408 0.122782,-0.0598 -2.130148,0.75046 -4.234707,1.72389 -6.155286,2.90805 -3.413,2.34247 -6.371214,5.38647 -8.613354,8.9199 0.176196,-0.2991 0.352006,-0.59684 0.527778,-0.89458 0.183133,-0.29365 0.375784,-0.58188 0.564466,-0.87418 0.802014,-1.26572 1.846663,-2.5736 3.130054,-3.78494 1.275954,-1.21814 2.764753,-2.36695 4.391056,-3.3662 3.24694,-2.23508 6.896217,-3.8135 10.618099,-4.704 -0.321291,0.0476 -0.642274,0.12916 -0.96977,0.1985 -0.163401,0.0353 -0.327804,0.0721 -0.493093,0.10876 -0.165598,0.034 -0.33135,0.0734 -0.495714,0.11964 -0.329654,0.0897 -0.661813,0.18082 -0.995436,0.2719 -0.167216,0.0435 -0.33239,0.0952 -0.496909,0.14956 l -0.494211,0.16178 c -0.662737,0.20529 -1.304048,0.46768 -1.936764,0.71511 -0.31501,0.12644 -0.618612,0.27327 -0.92152,0.40787 -0.301406,0.13867 -0.601039,0.26918 -0.882983,0.42281 -0.284834,0.15091 -0.568974,0.30318 -0.852305,0.45273 -0.142475,0.0748 -0.281289,0.15498 -0.41806,0.23791 l -0.411547,0.24608 c -0.272156,0.16586 -0.550053,0.32085 -0.814077,0.49759 -0.263599,0.17538 -0.526544,0.35212 -0.788949,0.52614 -0.130374,0.0897 -0.262906,0.17402 -0.390583,0.26647 l -0.378481,0.28006 c -0.251268,0.18762 -0.501957,0.37523 -0.751953,0.56149 -0.24541,0.19169 -0.482495,0.39426 -0.722471,0.5914 l -0.35771,0.29637 -0.1782,0.14819 -0.171301,0.15499 c -1.844774,1.64096 -3.457589,3.45865 -4.831275,5.41638 -1.379351,1.9523 -2.481537,4.05958 -3.339971,6.23755 -0.856082,2.17933 -1.458508,4.44024 -1.774712,6.73921 l -0.03888,0.84291 c -0.01542,0.28007 -0.01079,0.56149 -0.02081,0.84019 l -0.02736,0.83612 c 0,0.2787 -0.0069,0.55605 -0.01696,0.83475 -0.0042,0.16043 -0.0085,0.32221 -0.01272,0.48535 0,0.16315 0.0039,0.32765 0.0058,0.49351 0.0039,0.33173 0.0069,0.6689 0.01041,1.00878 0.03584,0.67977 0.0511,1.37177 0.12521,2.06106 0.04771,0.69064 0.154037,1.37584 0.243753,2.04745 0.05523,0.33445 0.120316,0.66481 0.180281,0.98974 0.03122,0.16179 0.06201,0.32357 0.09245,0.48264 0.03815,0.1577 0.076,0.31541 0.113263,0.4704 0.02852,-0.43913 0.300442,0.80484 0.360138,0.78852 0.105748,0.30046 0.213693,0.60636 0.323565,0.91633 0.05233,0.15635 0.105093,0.3127 0.158391,0.47176 0.05819,0.15635 0.117039,0.31405 0.176195,0.47312 0.119083,0.31677 0.229224,0.6417 0.352392,0.96663 0.128061,0.32221 0.257472,0.64849 0.388116,0.9775 0.543578,1.30788 1.153171,2.64973 1.898188,3.91954 0.205176,0.36435 0.164248,0.38883 0.347111,0.78445 1.297805,1.54851 2.790304,3.30911 4.55727,4.99765 0.224599,0.20665 0.450856,0.41466 0.678577,0.62403 0.113494,0.10468 0.227297,0.21073 0.341369,0.31677 0.118697,0.1006 0.237779,0.20121 0.357286,0.30181 0.238319,0.20258 0.477871,0.4065 0.718502,0.61043 0.246219,0.19714 0.499375,0.38883 0.749641,0.58461 l 0.377132,0.2923 c 0.125634,0.0979 0.259553,0.18625 0.389118,0.2787 0.261288,0.18354 0.522883,0.36707 0.78471,0.55197 0.265912,0.1781 0.539609,0.34396 0.809182,0.51662 l 0.406114,0.25696 c 0.01195,0.007 0.02428,0.0136 0.03623,0.0217 -2.438182,-1.38944 -4.663442,-3.04128 -6.642791,-4.97861 2.491211,2.54641 5.372849,4.5558 8.471226,6.02681 3.101536,1.46694 6.432104,2.4023 9.883295,2.72179 3.293455,0.29638 6.526445,-0.0109 9.547321,-0.83067 3.016792,-0.83476 5.839198,-2.13583 8.342123,-3.87196 2.058314,-1.38808 3.961666,-2.98554 5.676028,-4.76653 -0.116924,0.1781 -0.231112,0.35348 -0.335781,0.52479 0.134574,-0.13732 0.269187,-0.27463 0.403762,-0.41194 0.133226,-0.13868 0.270536,-0.27327 0.392895,-0.4201 0.252886,-0.28822 0.504385,-0.57644 0.754573,-0.86466 0.475829,-0.59548 0.953006,-1.19095 1.374457,-1.82722 0.859243,-1.25893 1.631467,-2.59399 2.260908,-4.03917 0.123745,-0.25696 0.218895,-0.52478 0.330386,-0.78989 0.60362,-1.50637 1.068581,-3.00185 1.405749,-4.49734 0.330387,-1.49549 0.54381,-2.9869 0.648518,-4.48647 l 0.03276,-0.5642 c 0.01233,-0.18762 0.02582,-0.37523 0.02428,-0.56421 0.0054,-0.37659 0.01079,-0.75318 0.01503,-1.13249 -0.01079,-0.37795 -0.02312,-0.75726 -0.03545,-1.13929" /><path
         id="path66"
         style="opacity:0.938065;fill:#ed1d27;fill-opacity:1;fill-rule:nonzero;stroke:none;stroke-width:0.0135954"
         d="m -74.3228,-264.39142 c 0.437753,-0.5411 0.92734,-1.03325 1.397041,-1.54171 0.500454,-0.47856 0.983489,-0.97343 1.514658,-1.41528 0.511052,-0.46496 1.064804,-0.8769 1.607534,-1.30379 0.565969,-0.39562 1.122419,-0.8062 1.718178,-1.15969 0.580381,-0.37659 1.196527,-0.69608 1.807354,-1.0278 0.313236,-0.14955 0.627128,-0.30046 0.941482,-0.45001 0.155925,-0.0789 0.316744,-0.14683 0.478681,-0.21208 l 0.484538,-0.19986 c 1.531383,-0.7355 3.152213,-1.33098 4.836824,-1.76467 0.644278,-0.19306 1.300926,-0.32629 1.955263,-0.47856 0.659539,-0.11828 1.319155,-0.25423 1.986979,-0.33309 1.593353,-0.19305 3.279197,-0.22568 4.994908,-0.0775 1.715749,0.14819 3.461404,0.47992 5.170332,0.98702 3.426026,1.00878 6.684836,2.74626 9.433788,4.89297 0.138698,-0.008 0.239282,-0.0381 0.297744,-0.11013 0.05846,-0.0693 0.07476,-0.18081 0.03276,-0.33172 -2.942028,-2.51242 -6.490412,-4.30701 -10.222353,-5.30082 -3.738723,-1.00062 -7.650097,-1.22223 -11.477033,-0.77494 -0.05835,0.0136 -0.118697,0.0272 -0.177044,0.0408 -1.605723,0.40514 -3.699684,0.90273 -5.786824,1.73748 -2.088681,0.81436 -4.168229,1.9319 -5.767555,3.17859 -1.58156,1.26981 -3.045386,2.65109 -4.349704,4.15882 -1.303663,1.505 -2.445813,3.14052 -3.351918,4.88752 0.363259,-0.60907 0.77681,-1.18143 1.173674,-1.75923 0.428928,-0.55469 0.839781,-1.12026 1.300811,-1.64232" /><path
         id="path67"
         style="opacity:0.938065;fill:#b72025;fill-opacity:1;fill-rule:nonzero;stroke:none;stroke-width:0.0135954"
         d="m -65.11415,-271.34 c -0.239937,0.13187 -0.47922,0.26375 -0.717539,0.39426 0.170724,-0.0829 0.340291,-0.1645 0.50955,-0.24743 l 0.253657,-0.12236 0.258859,-0.11012 c 0.196891,-0.0965 0.392085,-0.19305 0.586394,-0.28822 0.19373,-0.0979 0.387731,-0.19306 0.587049,-0.27463 -0.251807,0.0829 -0.494751,0.18762 -0.737154,0.28686 -0.247299,0.121 -0.494481,0.24064 -0.740816,0.36164" /><path
         id="path69"
         style="opacity:0.938065;fill:#ed1d27;fill-opacity:1;fill-rule:nonzero;stroke:none;stroke-width:0.0135954"
         d="m -78.219374,-261.14078 c 0.80606,-1.46557 1.682568,-2.77616 2.483579,-3.91682 -0.03468,0.0381 -0.06972,0.0761 -0.105748,0.11421 -0.794923,1.0414 -1.573274,2.12631 -2.238902,3.29279 -0.87566,1.6328 -1.641756,3.40563 -2.244837,5.26684 0.572481,-1.67767 1.305975,-3.29008 2.105908,-4.75702" /><path
         id="path71"
         style="opacity:0.938065;fill:#ed1d27;fill-opacity:1;fill-rule:nonzero;stroke:none;stroke-width:0.0135954"
         d="m -82.685733,-254.79447 c 0.02813,-0.16179 0.0563,-0.32357 0.07738,-0.44457 0.02621,-0.11964 0.0439,-0.19985 0.0439,-0.19985 -0.07245,0.20665 -0.149258,0.52342 -0.23697,0.83883 -0.08374,0.31542 -0.17292,0.62947 -0.223097,0.84291 -0.02081,0.26647 -0.04147,0.53022 -0.06228,0.79669 0.0933,-0.39562 0.17161,-0.79804 0.290422,-1.19095 0,0 0.05534,-0.32221 0.110643,-0.64306" /><path
         id="path73"
         style="opacity:0.938065;fill:#ed1d27;fill-opacity:1;fill-rule:nonzero;stroke:none;stroke-width:0.0135954"
         d="m -78.492223,-231.22422 c -2.074268,-3.11062 -3.494277,-6.53664 -4.265692,-10.04832 -0.385303,-1.75788 -0.613679,-3.53751 -0.677575,-5.3185 -0.06255,-1.78099 0.03314,-3.56334 0.284411,-5.32394 0.0085,-0.17402 0.01118,-0.34939 0.02312,-0.52342 0.01387,-0.17402 0.02736,-0.34804 0.04104,-0.52206 -0.143939,0.58324 -0.231921,1.176 -0.334548,1.76604 -0.05603,0.29366 -0.07927,0.59139 -0.118003,0.88778 -0.03276,0.29637 -0.07341,0.59275 -0.09708,0.88913 -0.01888,0.29638 -0.03777,0.59275 -0.05684,0.88913 l -0.02621,0.44321 -0.0054,0.44321 c 0,0.29502 -0.0039,0.59004 -0.0054,0.8837 0,0.29366 0.02197,0.58732 0.03391,0.87962 0.04582,1.16784 0.202864,2.31528 0.400795,3.43282 0.05072,0.2787 0.118158,0.55469 0.177969,0.82796 0.06444,0.27462 0.118542,0.54925 0.194424,0.81708 0.07708,0.26782 0.153612,0.5343 0.229879,0.79804 0.03904,0.13188 0.07804,0.26375 0.116924,0.39563 0.04012,0.13052 0.08879,0.25831 0.133226,0.38747 0.270035,0.81708 0.817776,1.98899 1.121224,2.77888 1.449143,3.76319 3.705696,6.96082 6.392409,9.59152 -1.26181,-1.28204 -2.427854,-2.6946 -3.476087,-4.24447 -0.02929,-0.0435 -0.05723,-0.0857 -0.08644,-0.13051" /><path
         id="path75"
         style="opacity:0.938065;fill:#2a2829;fill-opacity:1;fill-rule:nonzero;stroke:none;stroke-width:0.0135954"
         d="m -116.18098,-275.51649 c 0.60856,-1.01149 1.28178,-1.72389 1.50121,-1.59202 0.22078,0.1346 -0.0942,1.0618 -0.70274,2.07329 -0.60867,1.01014 -1.28193,1.72254 -1.50271,1.5893 -0.21944,-0.13187 0.0956,-1.05908 0.70424,-2.07057 z m 2.40612,1.43023 c 0.65299,-1.08355 1.51466,-1.76332 1.92536,-1.51452 0.41058,0.24743 0.21535,1.32554 -0.43764,2.40909 -0.65299,1.08491 -1.51477,1.76332 -1.92536,1.51588 -0.41073,-0.24879 -0.2155,-1.32826 0.43764,-2.41045 z m 2.91224,1.54443 c 0.57903,-1.02917 1.40972,-1.65999 1.85549,-1.40848 0.4443,0.25016 0.33663,1.28748 -0.24241,2.31529 -0.58038,1.02917 -1.40983,1.65863 -1.85533,1.40848 -0.44565,-0.25016 -0.33798,-1.28748 0.24225,-2.31529 z m 3.15603,1.81498 c 0.57371,-1.03189 1.40031,-1.66679 1.84735,-1.41799 0.44701,0.24743 0.34342,1.28612 -0.23018,2.31664 -0.5736,1.03325 -1.40032,1.66679 -1.84732,1.41935 -0.44704,-0.24879 -0.3433,-1.28476 0.23015,-2.318 z m 3.17098,1.89655 c 0.4833,-0.90545 1.15656,-1.49005 1.50391,-1.30516 0.34738,0.1849 0.23835,1.06996 -0.24511,1.97541 -0.4833,0.90681 -1.15656,1.49141 -1.50394,1.30515 -0.34734,-0.1849 -0.23693,-1.06859 0.24514,-1.9754 z m 3.0618,1.32283 c 0.5479,-1.04548 1.29931,-1.73205 1.679026,-1.5322 0.379599,0.19849 0.243637,1.20727 -0.304376,2.25411 -0.54789,1.04412 -1.2993,1.73069 -1.67906,1.53219 -0.37956,-0.19985 -0.2436,-1.20862 0.30441,-2.2541 z m 2.517882,1.41119 c 0.522306,-1.06044 1.316689,-1.73476 1.774597,-1.51044 0.459103,0.22704 0.407848,1.26845 -0.113109,2.32752 -0.522498,1.05908 -1.316843,1.73341 -1.775984,1.50909 -0.457754,-0.22569 -0.406614,-1.26845 0.114496,-2.32617 z m 3.013246,1.85033 c 0.512979,-1.06316 1.303393,-1.74428 1.762496,-1.52132 0.46049,0.22296 0.417405,1.26437 -0.09557,2.32752 -0.514289,1.0618 -1.303354,1.74292 -1.763845,1.52132 -0.46049,-0.22296 -0.417366,-1.26437 0.09692,-2.32752 z m 3.316309,1.69126 c 0.439024,-0.91904 1.118911,-1.5118 1.517394,-1.32011 0.398598,0.19034 0.364878,1.09035 -0.07395,2.00939 -0.438986,0.92177 -1.118912,1.51316 -1.51751,1.32283 -0.398483,-0.19033 -0.364916,-1.09035 0.07407,-2.01211 z m 3.187052,1.68718 c 0.543925,-1.04684 1.215796,-1.77691 1.499975,-1.63008 0.285335,0.14819 0.07395,1.11754 -0.470009,2.16438 -0.543964,1.0482 -1.215835,1.77827 -1.499821,1.63008 -0.285528,-0.14819 -0.07411,-1.11618 0.469855,-2.16438 z m 2.512406,1.24126 c 0.531863,-1.05364 1.333029,-1.72117 1.789396,-1.49142 0.456559,0.22977 0.3959,1.27117 -0.135924,2.32481 -0.531862,1.055 -1.333028,1.72253 -1.789434,1.49277 -0.456405,-0.23112 -0.3959,-1.27117 0.135962,-2.32616 z m -35.638955,-15.31244 c 5.5137,3.00457 22.3711,12.15288 38.722225,20.61462 l 3.247672,-6.27697 c -4.037971,-2.02707 -8.057019,-4.09356 -12.041268,-6.23075 -2.028947,-1.08762 -20.123839,-10.72808 -26.484419,-14.67617 -1.20508,-0.74638 -2.79381,-0.24879 -3.35804,1.05228 l -1.10542,2.55049 c -0.47926,1.10394 -0.0362,2.39006 1.01925,2.9665" /><path
         id="path77"
         style="opacity:0.938065;fill:#2a2829;fill-opacity:1;fill-rule:nonzero;stroke:none;stroke-width:0.0135954"
         d="m -3.850405,-226.6861 c -14.933119,-4.06636 -28.835733,-10.29031 -42.79677,-17.07167 4.44023,-2.12223 9.53576,-4.66456 14.85427,-7.37683 l 0.787177,1.52268 c 0.356168,0.69064 1.205892,0.96119 1.896531,0.60363 l 0.653951,-0.33852 -1.110742,-3.53615 1.707579,3.22753 0.747753,1.44383 c 0.339866,0.66073 1.133826,0.93671 1.808163,0.64442 0.02852,-0.0136 0.05846,-0.0258 0.08702,-0.0408 0.690639,-0.35756 0.959827,-1.20727 0.604969,-1.89791 l -2.173889,-4.20096 -3.253376,-6.29057 -1.934606,-3.736 c -0.339867,-0.66073 -1.135213,-0.93672 -1.808163,-0.64442 -0.03006,0.0109 -0.05846,0.0258 -0.08837,0.0421 -0.690639,0.3562 -0.959827,1.20455 -0.603659,1.89519 l 0.747752,1.44383 -1.25075,0.64713 c -0.690677,0.35756 -0.959865,1.20591 -0.605007,1.89655 l 1.171901,2.24052 -0.959827,-1.14473 c -3.576941,1.7606 -7.119853,3.59869 -10.700878,5.36064 -2.899906,1.42751 -5.779387,2.85502 -8.646651,4.27574 -2.867919,-1.42072 -5.74659,-2.84823 -8.646766,-4.27574 -3.580216,-1.76195 -7.124092,-3.60004 -10.700223,-5.36064 l -0.959943,1.14473 1.171362,-2.24052 c 0.355397,-0.69064 0.08621,-1.53899 -0.604584,-1.89655 l -1.250788,-0.64713 0.747213,-1.44383 c 0.356746,-0.69064 0.08756,-1.53899 -0.603235,-1.89519 -0.02967,-0.0163 -0.05927,-0.0313 -0.08891,-0.0421 -0.67322,-0.2923 -1.467604,-0.0163 -1.808164,0.64442 l -1.933527,3.736 -3.25434,6.29057 -2.173079,4.20096 c -0.355513,0.69064 -0.08617,1.54035 0.604468,1.89791 0.02813,0.0149 0.05788,0.0272 0.08756,0.0408 0.67322,0.29229 1.467604,0.0163 1.808318,-0.64442 l 0.747174,-1.44383 1.70731,-3.22753 -1.110857,3.53615 0.654336,0.33852 c 0.690755,0.35756 1.540324,0.087 1.895876,-0.60363 l 0.787716,-1.52268 c 5.318356,2.71227 10.414695,5.2546 14.853846,7.37683 -13.961191,6.78136 -27.863265,13.00531 -42.796656,17.07167 -5.97677,1.62736 -11.98454,3.17451 -18.1957,3.37165 0,0 2.93794,3.84748 10.56152,3.68298 11.70996,-0.25288 37.852426,-11.38746 49.633756,-16.49387 2.968927,-1.26573 5.924289,-2.56409 8.866316,-3.89371 2.942028,1.32962 5.89766,2.62798 8.866895,3.89371 11.780366,5.10641 37.9228339,16.24099 49.63387,16.49387 7.622927,0.1645 10.56087,-3.68298 10.56087,-3.68298 -6.2117052,-0.19714 -12.219506,-1.74429 -18.196014,-3.37165" /><path
         id="path79"
         style="opacity:0.938065;fill:#f7f9fb;fill-opacity:1;fill-rule:nonzero;stroke:none;stroke-width:0.0135954"
         d="m -37.606282,-254.94402 c 0.954393,-0.47991 2.118163,-0.0802 2.574954,0.88642 0.0081,0.0163 0.01619,0.0326 0.02312,0.0489 0.450008,0.93672 0.05846,2.05834 -0.87146,2.52194 -4.599314,2.29353 -9.065365,4.44431 -13.37102,6.45779 -1.392185,-0.68113 -2.78568,-1.3677 -4.181949,-2.05698 6.228045,-3.04808 12.711675,-6.29328 15.826352,-7.85811" /><path
         id="path81"
         style="opacity:0.938065;fill:#f7f9fb;fill-opacity:1;fill-rule:nonzero;stroke:none;stroke-width:0.0135954"
         d="m -107.95293,-221.98755 c -6.29861,1.60697 -11.47433,-0.45816 -11.47433,-0.45816 16.80888,-1.3405 45.8341,-15.46198 52.717175,-18.37275 1.241386,-0.52478 3.042882,-1.35137 5.162124,-2.35063 0.533211,0.25151 1.054322,0.49487 1.56468,0.73415 0.840205,0.39154 1.681759,0.78037 2.524546,1.16512 -26.452198,11.86873 -45.559485,18.0247 -50.494195,19.28227" /><path
         id="path83"
         style="opacity:0.938065;fill:#f7f9fb;fill-opacity:1;fill-rule:nonzero;stroke:none;stroke-width:0.0135954"
         d="m -1.479356,-221.98755 c -4.933786,-1.25757 -24.042033,-7.41354 -50.4945,-19.28227 -0.90545,-0.40514 -1.82038,-0.81844 -2.74217,-1.23854 -1.37596,-0.62675 -2.772229,-1.26708 -4.184762,-1.92374 -0.425536,-0.19713 -0.852305,-0.39562 -1.280424,-0.59683 -4.305925,-2.01348 -8.77213,-4.16426 -13.371406,-6.45779 -0.929112,-0.4636 -1.320928,-1.58522 -0.87119,-2.52194 0.0066,-0.0163 0.01464,-0.0326 0.02274,-0.0489 0.456405,-0.96663 1.6211,-1.36633 2.575763,-0.88642 3.114292,1.56483 9.597382,4.81003 15.826082,7.85811 0.429467,0.20937 0.857586,0.42009 1.283122,0.62675 1.438392,0.70151 2.848226,1.384 4.184646,2.02706 0.92179,0.44321 1.809551,0.86466 2.64702,1.26301 2.119512,0.99926 3.920892,1.82585 5.162162,2.35063 6.883307,2.91077 35.9080298,17.03225 52.7172933,18.37275 0,0 -5.1757659,2.06513 -11.4744514,0.45816" /><path
         id="path85"
         style="opacity:0.938065;fill:#2a2829;fill-opacity:1;fill-rule:nonzero;stroke:none;stroke-width:0.0135954"
         d="m -24.295072,-261.11767 c 0.456791,-0.22975 1.257572,0.43778 1.790513,1.49142 0.531555,1.05499 0.591366,2.09504 0.135924,2.32616 -0.456791,0.22976 -1.257571,-0.43777 -1.790475,-1.49277 -0.531592,-1.05364 -0.591403,-2.09504 -0.135962,-2.32481 z m 2.801981,-1.37992 c 0.284141,-0.14683 0.957129,0.58324 1.500939,1.63008 0.543809,1.0482 0.754535,2.01619 0.469045,2.16438 -0.28414,0.14819 -0.955741,-0.58188 -1.499589,-1.63008 -0.54381,-1.04684 -0.755884,-2.01619 -0.470395,-2.16438 z m 3.170442,-1.37721 c 0.398329,-0.19169 1.0781,0.40107 1.517241,1.32011 0.43914,0.92176 0.471743,1.82178 0.07341,2.01211 -0.398328,0.19033 -1.0781,-0.40106 -1.51724,-1.32283 -0.43914,-0.91904 -0.471743,-1.81905 -0.07341,-2.00939 z m 3.071207,-1.89247 c 0.45814,-0.22296 1.249402,0.45816 1.761957,1.52132 0.513904,1.06315 0.557374,2.10456 0.0965,2.32752 -0.459527,0.2216 -1.249401,-0.45952 -1.763305,-1.52132 -0.512555,-1.06315 -0.556065,-2.10456 -0.09515,-2.32752 z m 3.00049,-1.83945 c 0.45814,-0.22432 1.252099,0.45 1.775522,1.51044 0.520725,1.05772 0.5710171,2.10048 0.114226,2.32617 -0.459526,0.22432 -1.253486,-0.45001 -1.776909,-1.50909 -0.520725,-1.05907 -0.571017,-2.10048 -0.112839,-2.32752 z m 2.614378,-1.43295 c 0.3792908,-0.19985 1.1297794,0.48672 1.6790226,1.5322 0.5478944,1.04548 0.6838564,2.05425 0.3031783,2.2541 -0.3793293,0.1985 -1.1311282,-0.48807 -1.6790226,-1.53219 -0.5478944,-1.04684 -0.6838563,-2.05562 -0.3031783,-2.25411 z m 3.2356871,-1.09579 c 0.3480365,-0.18489 1.0210252,0.39971 1.5049851,1.30516 0.4813008,0.90681 0.5914038,1.7905 0.2447161,1.9754 -0.3480364,0.18626 -1.0209866,-0.39834 -1.5036362,-1.30515 -0.4839985,-0.90545 -0.5927526,-1.79051 -0.246065,-1.97541 z m 2.8278397,-2.00938 c 0.4472717,-0.2488 1.2738728,0.3861 1.8475877,1.41799 0.5737148,1.03324 0.6770737,2.06921 0.2297634,2.318 -0.4459229,0.24744 -1.2738728,-0.3861 -1.8462389,-1.41935 -0.5737148,-1.03052 -0.6784225,-2.06921 -0.2311122,-2.31664 z m 3.14866832,-1.80547 c 0.4445741,-0.25151 1.27660902,0.37931 1.85440888,1.40848 0.5805361,1.02781 0.6879415,2.06513 0.2433674,2.31529 -0.445923,0.25015 -1.27526024,-0.37931 -1.85575779,-1.40848 -0.57918725,-1.02781 -0.68659259,-2.06513 -0.24201849,-2.31529 z m 2.84144358,-1.65047 c 0.4105836,-0.2488 1.272524,0.43097 1.9264364,1.51452 0.6526021,1.08219 0.848375,2.16166 0.436404,2.41045 -0.410545,0.24744 -1.2711366,-0.43097 -1.9250875,-1.51588 -0.6525636,-1.08355 -0.8483365,-2.16166 -0.4377529,-2.40909 z m 2.8305373,-1.50773 c 0.2202446,-0.13187 0.8931947,0.58053 1.5009386,1.59202 0.6090542,1.01149 0.9244876,1.9387 0.704243,2.07057 -0.2202445,0.13324 -0.8932332,-0.57916 -1.5022874,-1.5893 -0.6090927,-1.01149 -0.9231387,-1.93869 -0.7028942,-2.07329 z m 7.886643,2.16982 c 1.055016,-0.57644 1.498202,-1.86256 1.018289,-2.9665 l -1.105269,-2.55049 c -0.564235,-1.30107 -2.152154,-1.79866 -3.358084,-1.05228 -6.3598838,3.94809 -24.455275,13.58855 -26.483722,14.67617 -3.984788,2.13719 -8.003567,4.20368 -12.041383,6.23075 l 3.247942,6.27697 c 16.3510854,-8.46174 33.2079819,-17.61005 38.722227,-20.61462" /></g></g><style
     type="text/css"
     id="style1-0">&#10;	.st0{fill:#FF4655;}&#10;	.st1{fill:#111111;}&#10;</style><style
     type="text/css"
     id="style1-3">&#10;	.st0{fill-rule:evenodd;clip-rule:evenodd;fill:url(#SVGID_1_);}&#10;	.st1{fill-rule:evenodd;clip-rule:evenodd;fill:url(#SVGID_2_);}&#10;	.st2{fill-rule:evenodd;clip-rule:evenodd;fill:url(#SVGID_3_);}&#10;</style><style
     type="text/css"
     id="style1-92">&#10;	.st0{fill:#FF4655;}&#10;	.st1{fill:#111111;}&#10;</style></svg>
