<?xml version="1.0" encoding="UTF-8" standalone="no"?>
<!-- Created with Inkscape (http://www.inkscape.org/) -->

<svg
   width="51.106827mm"
   height="28.124769mm"
   viewBox="0 0 51.106827 28.124769"
   version="1.1"
   id="svg1"
   inkscape:version="1.3 (0e150ed6c4, 2023-07-21)"
   sodipodi:docname="esport yang diikuti.svg"
   xml:space="preserve"
   xmlns:inkscape="http://www.inkscape.org/namespaces/inkscape"
   xmlns:sodipodi="http://sodipodi.sourceforge.net/DTD/sodipodi-0.dtd"
   xmlns="http://www.w3.org/2000/svg"
   xmlns:svg="http://www.w3.org/2000/svg"><sodipodi:namedview
     id="namedview1"
     pagecolor="#ffffff"
     bordercolor="#000000"
     borderopacity="0.25"
     inkscape:showpageshadow="2"
     inkscape:pageopacity="0.0"
     inkscape:pagecheckerboard="0"
     inkscape:deskcolor="#d1d1d1"
     inkscape:document-units="mm"
     inkscape:zoom="0.2447271"
     inkscape:cx="-807.02138"
     inkscape:cy="67.422039"
     inkscape:window-width="1920"
     inkscape:window-height="991"
     inkscape:window-x="-9"
     inkscape:window-y="-9"
     inkscape:window-maximized="1"
     inkscape:current-layer="layer1"
     inkscape:export-bgcolor="#00000000" /><defs
     id="defs1"><style
       id="style1">.cls-1{fill:none;}.cls-2{clip-path:url(#clip-path);}.cls-3{clip-path:url(#clip-path-3);}.cls-4{fill:#110303;}.cls-5{opacity:0.6;}.cls-6{opacity:0.1;}.cls-7{clip-path:url(#clip-path-4);}.cls-8{mask:url(#mask);}.cls-9{clip-path:url(#clip-path-5);}.cls-10{mask:url(#mask-2);}.cls-11{clip-path:url(#clip-path-6);}.cls-12{mask:url(#mask-3);}.cls-13{clip-path:url(#clip-path-7);}.cls-14{mask:url(#mask-4);}.cls-15{clip-path:url(#clip-path-8);}.cls-16{mask:url(#mask-5);}.cls-17{clip-path:url(#clip-path-9);}.cls-18{clip-path:url(#clip-path-11);}.cls-19{clip-path:url(#clip-path-12);}.cls-20{mask:url(#mask-6);}.cls-21{clip-path:url(#clip-path-13);}.cls-22{mask:url(#mask-7);}.cls-23{clip-path:url(#clip-path-14);}.cls-24{mask:url(#mask-8);}.cls-25{clip-path:url(#clip-path-15);}.cls-26{mask:url(#mask-9);}.cls-27{clip-path:url(#clip-path-16);}.cls-28{mask:url(#mask-10);}.cls-29{filter:url(#luminosity-noclip-10);}.cls-30{filter:url(#luminosity-noclip-9);}.cls-31{filter:url(#luminosity-noclip-8);}.cls-32{filter:url(#luminosity-noclip-7);}.cls-33{filter:url(#luminosity-noclip-6);}.cls-34{filter:url(#luminosity-noclip-5);}.cls-35{filter:url(#luminosity-noclip-4);}.cls-36{filter:url(#luminosity-noclip-3);}.cls-37{filter:url(#luminosity-noclip-2);}.cls-38{filter:url(#luminosity-noclip);}</style><style
       type="text/css"
       id="style1-9">&#10;   <![CDATA[
    .fil0 {fill:#332C2B}
   ]]>&#10;  </style><style
       type="text/css"
       id="style1-6">&#10;   <![CDATA[
    .str0 {stroke:white;stroke-width:20;stroke-miterlimit:22.9256}
    .fil2 {fill:none}
    .fil0 {fill:black}
    .fil3 {fill:#D43B3B}
    .fil1 {fill:white}
   ]]>&#10;  </style></defs><g
     inkscape:label="Layer 1"
     inkscape:groupmode="layer"
     id="layer1"
     transform="translate(261.91773,-281.14992)"><path
       id="path16-1"
       style="fill:#b72025;fill-opacity:1;fill-rule:evenodd;stroke:none;stroke-width:0.027309"
       d="m -250.40596,281.14993 v 3.42109 h -0.73126 v 3.29068 h 0.73126 v 3.42989 h -0.73126 v 3.29068 h 0.73126 v 3.31468 h 28.21478 v -3.31468 h 0.73086 v -3.29068 h -0.73086 v -3.42989 h 0.73086 v -3.29068 h -0.73086 v -3.42109 z m 2.08137,2.09298 h 4.14116 l 1.03528,1.10009 v 5.26045 l -1.15369,1.00968 h -1.99698 v 5.34566 h -2.02577 v -5.32605 h -0.28561 v -2.02697 h 0.28561 z m 12.60107,0 h 4.14115 l 1.0357,1.10009 v 4.14276 l -1.0105,1.13529 1.0105,1.04809 v 4.24236 l -1.0481,1.04729 h -4.12875 v -5.32605 h -0.23881 v -2.02697 h 0.23881 z m -6.34013,0.003 h 2.01337 v 10.69931 h 1.1485 v -10.69925 h 2.01378 v 11.64738 l -1.06131,1.0657 h -3.05266 l -1.06168,-1.04289 z m 13.62195,0.005 h 3.10187 l 1.06728,1.08649 v 3.11027 h -2.04017 v -2.15859 h -1.1297 v 8.62713 h 1.1297 v -3.28828 h -0.56244 v -2.01377 h 0.56244 2.04017 0.0264 v 2.01377 h -0.0264 v 4.26677 l -1.12449,1.05969 h -3.00744 l -1.0785,-1.05489 v -10.57249 z m -17.85712,2.03457 v 3.27988 h 1.1293 v -3.27988 z m 12.60107,0 v 3.27988 h 1.1297 v -3.27988 z m 0,5.37446 v 3.30668 h 1.1297 v -3.30668 z" /><g
       id="g148"
       transform="translate(0,337.3145)"><path
         id="path18-5"
         style="fill:#b72025;fill-opacity:1;fill-rule:evenodd;stroke:none;stroke-width:0.0116909"
         d="m -261.75604,-36.654958 h 2.8033 l 0.70109,0.744593 v 2.804062 l -0.6842,0.768678 0.6842,0.709521 v 2.871751 l -0.7095,0.709054 h -2.79489 v -3.605474 h -0.16167 v -1.372044 h 0.16167 z m 1.37143,1.382332 h 0.76458 v 2.220218 h -0.76458 z m 0,3.637973 h 0.76458 v 2.238339 h -0.76458 v -2.238339" /><path
         id="path20-5"
         style="fill:#b72025;fill-opacity:1;fill-rule:evenodd;stroke:none;stroke-width:0.0116909"
         d="m -245.67572,-29.410458 h 1.42219 v 1.363159 h -2.78535 v -8.605789 h 1.36316 v 7.24263" /><path
         id="path22-2"
         style="fill:#b72025;fill-opacity:1;stroke:none;stroke-width:0.0662791;stroke-linecap:butt;stroke-linejoin:miter;stroke-miterlimit:22.9256;stroke-dasharray:none;stroke-opacity:1"
         d="m -245.67572,-29.410458 h 1.42219 v 1.363159 h -2.78535 v -8.605789 h 1.36316 z" /><path
         id="path24-8"
         style="fill:#b72025;fill-opacity:1;fill-rule:evenodd;stroke:none;stroke-width:0.0116909"
         d="m -248.88476,-35.27742 v 7.230121 h -1.36316 v -7.230121 h -1.39741 v 7.230121 h -1.36316 v -7.230121 h -1.05791 v -1.363158 h 6.30958 v 1.363158 h -1.12794" /><path
         id="path26-1"
         style="fill:#b72025;fill-opacity:1;fill-rule:evenodd;stroke:none;stroke-width:0.0116909"
         d="m -242.11853,-35.289929 v 2.275985 h 1.37625 v 1.363159 h -1.37625 v 2.240327 h 1.36222 v 1.363159 h -1.36222 -1.01138 -0.3519 v -3.603486 h -0.22271 v -1.363159 h 0.22271 v -3.639144 h 0.3519 1.01138 1.36222 v 1.363159 h -1.36222" /><path
         id="path28-7"
         style="fill:#b72025;fill-opacity:1;fill-rule:evenodd;stroke:none;stroke-width:0.0116909"
         d="m -239.28455,-36.649697 h 2.09981 l 0.72238,0.73524 v 2.105297 h -1.38117 v -1.461011 h -0.76458 v 5.839839 h 0.76458 v -2.225832 h -0.38065 v -1.363159 h 0.38065 1.38117 0.0179 v 1.363159 h -0.0179 v 2.888238 l -0.76131,0.717236 h -2.0355 l -0.72999,-0.714081 v -7.1567 l 0.70461,-0.728226" /><path
         id="path30-2"
         style="fill:#b72025;fill-opacity:1;fill-rule:evenodd;stroke:none;stroke-width:0.0116909"
         d="m -234.29183,-35.267482 h 0.76459 v 2.220335 h -0.76459 z m -1.41132,-1.382215 h 2.80336 l 0.70098,0.744476 v 2.804179 l -0.68415,0.768676 0.68415,0.709521 v 3.578117 l -1.3683,0.0027 v -3.587237 h -0.7647 v 3.587237 h -1.37134 v -3.605474 h -0.16169 v -1.372043 h 0.16169 v -3.63009" /><path
         id="path32-5"
         style="fill:#b72025;fill-opacity:1;fill-rule:evenodd;stroke:none;stroke-width:0.0116909"
         d="m -231.63519,-33.019323 h 0.18986 v -2.902148 l 0.70461,-0.728226 h 2.09969 l 0.72249,0.73524 v 2.895134 h 0.20565 v 1.363159 h -0.20565 v 2.888238 l -0.76131,0.717236 h -2.0355 l -0.72998,-0.714081 v -2.891393 h -0.18986 z m 1.57091,-2.250848 h 0.76458 v 5.839839 h -0.76458 v -5.839839" /><path
         id="path34-6"
         style="fill:#b72025;fill-opacity:1;fill-rule:evenodd;stroke:none;stroke-width:0.0116909"
         d="m -225.79687,-36.653088 v 7.24263 h 0.77744 v -7.24263 h 1.36316 v 7.884225 l -0.7184,0.721564 h -2.06649 l -0.71887,-0.706131 v -7.899658 h 1.36316" /><path
         id="path36-9"
         style="fill:#b72025;fill-opacity:1;fill-rule:evenodd;stroke:none;stroke-width:0.0116909"
         d="m -221.49053,-36.653088 v 0.03192 l 0.75196,4.043181 v -4.075098 h 1.36316 v 8.605789 h -0.5206 -0.83929 -0.003 v -0.01766 l -0.75196,-4.043065 v 4.060719 h -1.36316 v -8.605779 h 0.51791 0.83941 0.006" /><path
         id="path38-2"
         style="fill:#b72025;fill-opacity:1;fill-rule:evenodd;stroke:none;stroke-width:0.0116909"
         d="m -255.73469,-34.176137 -0.27579,2.521375 h 0.59144 z m -0.34348,3.884534 -0.22984,2.244304 h -1.36316 l 1.23117,-8.605789 h 0.4736 0.46342 0.47348 l 1.23129,8.605789 h -1.36316 l -0.22984,-2.244304 h -0.68696" /><path
         id="path40-4"
         style="fill:#b72025;fill-opacity:1;fill-rule:evenodd;stroke:none;stroke-width:0.0116909"
         d="m -217.22908,-35.270171 h 0.76459 v 5.839839 h -0.76459 z m -1.3856,-1.383267 h 2.81984 l 0.71595,0.739332 v 7.132265 l -0.74354,0.742025 h -2.79225 v -8.613622" /><path
         id="path42-4"
         style="fill:#b72025;fill-opacity:1;fill-rule:evenodd;stroke:none;stroke-width:0.0116909"
         d="m -212.93384,-30.892864 v 1.466154 h 0.75336 v -1.24508 l -2.15113,-2.784188 V -35.9113 l 0.76587,-0.737813 h 2.05117 l 0.70368,0.75079 v 2.095593 h -1.36959 v -1.463817 h -0.75336 v 1.298157 l 0.75336,0.972918 v -0.0046 l 1.36959,1.776197 v 2.442812 l -0.74273,0.736878 h -2.06414 l -0.71385,-0.710923 v -2.137799 h 1.39777" /></g><path
       id="path52-1"
       style="fill:#b72025;fill-opacity:1;fill-rule:evenodd;stroke:none;stroke-width:0.0116909"
       d="m -229.75097,292.07645 c 0.038,-0.003 0.077,0.003 0.10873,0.016 0.0207,0.008 0.0436,0.0204 0.0603,0.0337 l 0.0131,0.0103 c 0.0248,0.0221 0.0421,0.0433 0.0585,0.0738 0.0146,0.0272 0.025,0.0618 0.0276,0.0971 0.004,0.0532 -0.01,0.10673 -0.0366,0.14976 -0.004,0.007 -0.008,0.0123 -0.0129,0.0187 l -0.0138,0.0169 c -0.002,0.003 -0.006,0.005 -0.008,0.008 -0.0184,0.0186 -0.0376,0.0347 -0.0622,0.0466 -0.0302,0.0145 -0.0582,0.0249 -0.097,0.0278 -0.14345,0.0109 -0.25813,-0.0988 -0.2683,-0.22961 -0.004,-0.0534 0.009,-0.10791 0.0366,-0.15105 0.004,-0.007 0.008,-0.0125 0.0128,-0.0187 0.01,-0.0129 0.0257,-0.0308 0.038,-0.0403 0.003,-0.002 0.005,-0.004 0.008,-0.007 0.0357,-0.0293 0.088,-0.0487 0.13503,-0.0523 z m -0.2662,0.26503 c 0.003,0.0581 0.0242,0.1134 0.0576,0.15654 l 0.0162,0.0195 c 0.005,0.006 0.011,0.0124 0.0173,0.0177 0.0159,0.0133 0.0214,0.0189 0.0404,0.0311 0.0497,0.0316 0.10662,0.0476 0.16905,0.0444 0.15187,-0.008 0.27778,-0.13842 0.26924,-0.30092 -0.008,-0.15222 -0.13877,-0.27754 -0.30057,-0.26901 -0.15104,0.008 -0.27882,0.13819 -0.26936,0.30069" /><path
       id="path54-8"
       style="fill:#b72025;fill-opacity:1;fill-rule:evenodd;stroke:none;stroke-width:0.0116909"
       d="m -229.78206,292.7531 v -0.10031 c 0.0179,-6.6e-4 0.0613,-0.002 0.0766,0.003 0.0207,0.006 0.0327,0.0212 0.0331,0.0469 3.4e-4,0.0254 -0.0131,0.041 -0.0324,0.0475 -0.0143,0.005 -0.0604,0.004 -0.0773,0.003 z m -0.0525,0.15795 h 0.0523 l 2.4e-4,-0.11539 0.0583,-2.4e-4 0.0599,0.11551 0.0561,1.2e-4 c 1.1e-4,-0.006 -0.0299,-0.0583 -0.033,-0.0641 -0.006,-0.0107 -0.0113,-0.0212 -0.0172,-0.0318 -0.003,-0.006 -0.0153,-0.0272 -0.0171,-0.0322 0.0106,-0.003 0.0278,-0.016 0.033,-0.0219 0.0205,-0.0229 0.0266,-0.0545 0.0191,-0.0858 -0.002,-0.007 -0.004,-0.014 -0.007,-0.0199 -0.0179,-0.0321 -0.0522,-0.044 -0.0935,-0.045 -0.0181,-3.3e-4 -0.0367,0 -0.0549,0 -0.018,0 -0.0374,-6.7e-4 -0.0552,0 l -3.3e-4,0.30057" /></g><style
     type="text/css"
     id="style1-0">&#10;	.st0{fill:#FF4655;}&#10;	.st1{fill:#111111;}&#10;</style><style
     type="text/css"
     id="style1-3">&#10;	.st0{fill-rule:evenodd;clip-rule:evenodd;fill:url(#SVGID_1_);}&#10;	.st1{fill-rule:evenodd;clip-rule:evenodd;fill:url(#SVGID_2_);}&#10;	.st2{fill-rule:evenodd;clip-rule:evenodd;fill:url(#SVGID_3_);}&#10;</style><style
     type="text/css"
     id="style1-92">&#10;	.st0{fill:#FF4655;}&#10;	.st1{fill:#111111;}&#10;</style></svg>
