<?xml version="1.0" encoding="UTF-8" standalone="no"?>
<svg
   xmlns:dc="http://purl.org/dc/elements/1.1/"
   xmlns:cc="http://creativecommons.org/ns#"
   xmlns:rdf="http://www.w3.org/1999/02/22-rdf-syntax-ns#"
   xmlns:svg="http://www.w3.org/2000/svg"
   xmlns="http://www.w3.org/2000/svg"
   viewBox="0 0 3333.3333 3333.3333"
   height="3333.3333"
   width="3333.3333"
   xml:space="preserve"
   id="svg2"
   version="1.1"><metadata
     id="metadata8"><rdf:RDF><cc:Work
         rdf:about=""><dc:format>image/svg+xml</dc:format><dc:type
           rdf:resource="http://purl.org/dc/dcmitype/StillImage" /></cc:Work></rdf:RDF></metadata><defs
     id="defs6" /><g
     transform="matrix(1.3333333,0,0,-1.3333333,0,3333.3333)"
     id="g10"><g
       transform="scale(0.1)"
       id="g12"><g
         transform="scale(1.53374)"
         id="g14"><path
           id="path16"
           style="fill:#ffffff;fill-opacity:1;fill-rule:nonzero;stroke:none"
           d="M 16300,0 H 0 V 16300 H 16300 V 0" /></g><g
         transform="scale(1.2283)"
         id="g18"><path
           id="path20"
           style="fill:#100f0d;fill-opacity:1;fill-rule:evenodd;stroke:none"
           d="m 5663.7,14689.7 c 1608.56,1610.3 4219.42,1610.3 5828,0 1610.3,-1608.6 1610.3,-4219.4 0,-5827.99 -1608.58,-1610.28 -4219.44,-1610.28 -5828,0 -1610.29,1608.59 -1610.29,4219.39 0,5827.99 v 0" /></g><path
         id="path22"
         style="fill:#100f0d;fill-opacity:1;fill-rule:evenodd;stroke:none"
         d="m 14844.9,11452.4 488.6,-486.5 -157.9,-157.9 751.1,-753.2 -981.5,-981.5 -753.2,751.1 -157.9,-157.9 -486.5,488.6 c 247.5,172.8 484.4,371.2 706.3,591 219.8,221.9 418.2,458.8 591,706.3 v 0" /><g
         transform="scale(1.2046)"
         id="g24"><path
           id="path26"
           style="fill:#100f0d;fill-opacity:1;fill-rule:evenodd;stroke:none"
           d="m 11877.1,7567.65 1309,1308.98 2754.4,-2756.1 c 359.5,-359.62 359.5,-947.61 0,-1307.23 v 0 c -359.7,-359.54 -947.7,-359.54 -1307.3,0 l -2756.1,2754.35" /></g><g
         transform="scale(1.16847)"
         id="g28"><path
           id="path30"
           style="fill:#ffffff;fill-opacity:1;fill-rule:evenodd;stroke:none"
           d="m 6490.53,14904.9 c 1395.09,1395.1 3657.57,1395.1 5052.67,0 1395,-1395.1 1395,-3657.6 0,-5052.64 -1395.1,-1395.07 -3657.58,-1395.07 -5052.67,0 -1395.1,1395.04 -1395.1,3657.54 0,5052.64 v 0" /></g></g></g></svg>