<?xml version="1.0" encoding="UTF-8" standalone="no"?>
<svg
   viewBox="0 0 180 180"
   height="180"
   width="180"
   xml:space="preserve"
   id="svg2"
   version="1.1"
   sodipodi:docname="sosmed'.svg"
   inkscape:version="1.3 (0e150ed6c4, 2023-07-21)"
   xmlns:inkscape="http://www.inkscape.org/namespaces/inkscape"
   xmlns:sodipodi="http://sodipodi.sourceforge.net/DTD/sodipodi-0.dtd"
   xmlns="http://www.w3.org/2000/svg"
   xmlns:svg="http://www.w3.org/2000/svg"
   xmlns:rdf="http://www.w3.org/1999/02/22-rdf-syntax-ns#"
   xmlns:cc="http://creativecommons.org/ns#"
   xmlns:dc="http://purl.org/dc/elements/1.1/"><sodipodi:namedview
     id="namedview1"
     pagecolor="#ffffff"
     bordercolor="#000000"
     borderopacity="0.25"
     inkscape:showpageshadow="2"
     inkscape:pageopacity="0.0"
     inkscape:pagecheckerboard="0"
     inkscape:deskcolor="#d1d1d1"
     inkscape:zoom="0.34338873"
     inkscape:cx="821.22672"
     inkscape:cy="816.85849"
     inkscape:window-width="1920"
     inkscape:window-height="991"
     inkscape:window-x="-9"
     inkscape:window-y="-9"
     inkscape:window-maximized="1"
     inkscape:current-layer="svg2" /><metadata
     id="metadata8"><rdf:RDF><cc:Work
         rdf:about=""><dc:format>image/svg+xml</dc:format><dc:type
           rdf:resource="http://purl.org/dc/dcmitype/StillImage" /></cc:Work></rdf:RDF></metadata><defs
     id="defs6" /><path
     id="path172"
     style="fill:#ffffff;fill-opacity:1;fill-rule:evenodd;stroke:none;stroke-width:0.133333"
     d="M 89.999997,1.25e-5 C 40.294717,1.25e-5 -2.5000001e-6,40.293412 -2.5000001e-6,90.000012 -2.5000001e-6,139.70531 40.294717,180.00001 89.999997,180.00001 139.70528,180.00001 180,139.70531 180,90.000012 180,40.293412 139.70528,1.25e-5 89.999997,1.25e-5 Z M 58.888667,34.445312 h 84.445323 v 62.220701 l -40,39.999997 H 85.554687 l -22.220699,22.2227 v -22.2227 H 36.666018 V 56.666013 Z m 4.445321,8.8887 v 66.665998 h 20 v 15.5566 l 15.554679,-15.5566 h 17.777353 l 17.77734,-17.777398 v -48.8886 z m 24.44336,15.5547 h 8.88867 v 26.6679 h -8.88867 z m 24.443362,0 h 8.89062 v 26.6679 h -8.89062 z" /></svg>
