<?xml version="1.0" encoding="UTF-8" standalone="no"?>
<svg
   viewBox="0 0 180 178.9043"
   height="178.9043"
   width="180"
   xml:space="preserve"
   id="svg2"
   version="1.1"
   sodipodi:docname="sosmed'.svg"
   inkscape:version="1.3 (0e150ed6c4, 2023-07-21)"
   xmlns:inkscape="http://www.inkscape.org/namespaces/inkscape"
   xmlns:sodipodi="http://sodipodi.sourceforge.net/DTD/sodipodi-0.dtd"
   xmlns="http://www.w3.org/2000/svg"
   xmlns:svg="http://www.w3.org/2000/svg"
   xmlns:rdf="http://www.w3.org/1999/02/22-rdf-syntax-ns#"
   xmlns:cc="http://creativecommons.org/ns#"
   xmlns:dc="http://purl.org/dc/elements/1.1/"><sodipodi:namedview
     id="namedview1"
     pagecolor="#ffffff"
     bordercolor="#000000"
     borderopacity="0.25"
     inkscape:showpageshadow="2"
     inkscape:pageopacity="0.0"
     inkscape:pagecheckerboard="0"
     inkscape:deskcolor="#d1d1d1"
     inkscape:zoom="0.34338873"
     inkscape:cx="821.22672"
     inkscape:cy="816.85849"
     inkscape:window-width="1920"
     inkscape:window-height="991"
     inkscape:window-x="-9"
     inkscape:window-y="-9"
     inkscape:window-maximized="1"
     inkscape:current-layer="svg2" /><metadata
     id="metadata8"><rdf:RDF><cc:Work
         rdf:about=""><dc:format>image/svg+xml</dc:format><dc:type
           rdf:resource="http://purl.org/dc/dcmitype/StillImage" /></cc:Work></rdf:RDF></metadata><defs
     id="defs6" /><path
     id="path2"
     style="fill:#f7f6f5;fill-opacity:1;fill-rule:nonzero;stroke:none;stroke-width:0.133333"
     d="M 90.000004,3.4375e-5 C 40.294724,3.4375e-5 4.375e-6,40.293334 4.375e-6,90.000034 4.375e-6,134.92123 32.912204,172.15363 75.937504,178.90433 v -62.8907 H 53.083984 V 90.000034 h 22.85352 v -19.8282 c 0,-1.4097 0.0509,-2.781 0.15429,-4.1113 0.10344,-1.3303 0.2591,-2.6194 0.46289,-3.8691 0.20379,-1.2497 0.45676,-2.4591 0.75782,-3.627 0.30105,-1.1679 0.64968,-2.2939 1.04492,-3.3789 0.39524,-1.085 0.83788,-2.1299 1.32422,-3.1308 0.48633,-1.001 1.01744,-1.9593 1.59179,-2.875 0.57435,-0.9158 1.19033,-1.7879 1.84961,-2.6172 0.65928,-0.8294 1.36044,-1.6156 2.10156,-2.3575 0.74113,-0.7418 1.52387,-1.4386 2.34376,-2.0918 0.81988,-0.6531 1.6767,-1.2628 2.57226,-1.8261 0.89556,-0.5633 1.82873,-1.0805 2.79688,-1.5528 0.96814,-0.4722 1.97211,-0.8991 3.00976,-1.2793 4.150616,-1.5205 8.845046,-2.2988 13.984376,-2.2988 4.92333,0 9.95979,0.4396 13.76562,0.8789 3.80583,0.4393 6.38086,0.877 6.38086,0.877 v 22.1504 h -11.34961 c -8.38499,0 -12.44258,3.9017 -13.94726,8.8554 -0.25079,0.8257 -0.42971,1.68 -0.54688,2.5508 -0.11717,0.8709 -0.17187,1.7588 -0.17187,2.6485 v 16.8828 h 24.96093 l -3.99023,26.013596 h -20.9707 v 62.8907 C 147.08778,172.15363 180,134.92123 180,90.000034 180,40.293334 139.70528,3.4375e-5 90.000004,3.4375e-5 Z" /></svg>
