<?xml version="1.0" encoding="UTF-8" standalone="no"?>
<svg
   viewBox="0 0 180 180"
   height="180"
   width="180"
   xml:space="preserve"
   id="svg2"
   version="1.1"
   sodipodi:docname="sosmed'.svg"
   inkscape:version="1.3 (0e150ed6c4, 2023-07-21)"
   xmlns:inkscape="http://www.inkscape.org/namespaces/inkscape"
   xmlns:sodipodi="http://sodipodi.sourceforge.net/DTD/sodipodi-0.dtd"
   xmlns="http://www.w3.org/2000/svg"
   xmlns:svg="http://www.w3.org/2000/svg"
   xmlns:rdf="http://www.w3.org/1999/02/22-rdf-syntax-ns#"
   xmlns:cc="http://creativecommons.org/ns#"
   xmlns:dc="http://purl.org/dc/elements/1.1/"><sodipodi:namedview
     id="namedview1"
     pagecolor="#ffffff"
     bordercolor="#000000"
     borderopacity="0.25"
     inkscape:showpageshadow="2"
     inkscape:pageopacity="0.0"
     inkscape:pagecheckerboard="0"
     inkscape:deskcolor="#d1d1d1"
     inkscape:zoom="0.34338873"
     inkscape:cx="821.22672"
     inkscape:cy="816.85849"
     inkscape:window-width="1920"
     inkscape:window-height="991"
     inkscape:window-x="-9"
     inkscape:window-y="-9"
     inkscape:window-maximized="1"
     inkscape:current-layer="svg2" /><metadata
     id="metadata8"><rdf:RDF><cc:Work
         rdf:about=""><dc:format>image/svg+xml</dc:format><dc:type
           rdf:resource="http://purl.org/dc/dcmitype/StillImage" /></cc:Work></rdf:RDF></metadata><defs
     id="defs6" /><path
     id="path4"
     style="fill:#f7f6f4;fill-opacity:1;fill-rule:nonzero;stroke:none;stroke-width:0.133333"
     d="M 90,-4.375e-5 C 40.29472,-4.375e-5 1.25e-7,40.293356 1.25e-7,89.999956 1.25e-7,139.70526 40.29472,179.99996 90,179.99996 c 49.70528,0 90,-40.2947 90,-90.000004 C 180,40.293356 139.70528,-4.375e-5 90,-4.375e-5 Z M 90,33.333956 c 15.3893,0 17.31929,0.066 23.36328,0.3418 6.03199,0.2747 10.15187,1.2314 13.75586,2.6328 3.72665,1.448 6.88645,3.3866 10.03711,6.5371 3.14932,3.1506 5.08716,6.3105 6.53516,10.0372 1.39999,3.604 2.3601,7.7219 2.63476,13.7539 0.27604,6.0453 0.33985,7.974 0.33985,23.3632 0,15.389304 -0.0639,17.321304 -0.33985,23.365304 -0.27466,6.0306 -1.23477,10.1499 -2.63476,13.7539 -1.448,3.7267 -3.38584,6.8878 -6.53516,10.0371 -3.15066,3.1507 -6.31046,5.0877 -10.03711,6.5371 -3.60399,1.4 -7.72387,2.3581 -13.75586,2.6328 -6.04399,0.2763 -7.97398,0.3418 -23.36328,0.3418 -15.39064,0 -17.319293,-0.066 -23.363281,-0.3418 -6.030658,-0.2747 -10.151866,-1.2328 -13.75586,-2.6328 -3.726652,-1.4494 -6.886445,-3.3864 -10.037109,-6.5371 -3.150664,-3.1493 -5.08716,-6.3104 -6.535156,-10.0371 -1.399998,-3.604 -2.358153,-7.7233 -2.632813,-13.7539 -0.27604,-6.044 -0.341797,-7.976 -0.341797,-23.365304 0,-15.3905 0.0658,-17.3179 0.341797,-23.3632 0.27466,-6.032 1.232815,-10.1499 2.632813,-13.7539 1.447996,-3.7267 3.384492,-6.8866 6.535156,-10.0372 3.150664,-3.1505 6.310457,-5.0891 10.037109,-6.5371 3.603994,-1.4014 7.725202,-2.3581 13.75586,-2.6328 6.043988,-0.2763 7.972641,-0.3418 23.363281,-0.3418 z m 0,10.211 c -15.13064,0 -16.92245,0.058 -22.898438,0.33 -5.523988,0.2533 -8.525488,1.1752 -10.521484,1.9512 -2.645324,1.028 -4.532959,2.2556 -6.515625,4.2383 -1.983996,1.9826 -3.210283,3.8716 -4.238281,6.5156 -0.775998,1.9974 -1.699787,4.9962 -1.953125,10.5215 -0.27203,5.976 -0.328125,7.7679 -0.328125,22.8984 0,15.130604 0.05613,16.924404 0.328125,22.900404 0.253338,5.524 1.177127,8.5236 1.953125,10.5196 1.027998,2.6453 2.255615,4.5348 4.238281,6.5175 1.982666,1.9826 3.870301,3.2103 6.515625,4.2383 1.995996,0.776 4.997496,1.7005 10.521484,1.9512 5.974658,0.2737 7.766468,0.3301 22.898438,0.3301 15.13197,0 16.92245,-0.057 22.89844,-0.3301 5.52399,-0.2507 8.52416,-1.1752 10.52148,-1.9512 2.64533,-1.028 4.53296,-2.2557 6.51563,-4.2383 1.98266,-1.9827 3.21223,-3.8722 4.24023,-6.5175 0.776,-1.996 1.69783,-4.9956 1.95117,-10.5196 0.27203,-5.976 0.33008,-7.7698 0.33008,-22.900404 0,-15.1305 -0.0581,-16.9224 -0.33008,-22.8984 -0.25334,-5.5253 -1.17517,-8.5241 -1.95117,-10.5215 -1.028,-2.644 -2.25757,-4.533 -4.24023,-6.5156 -1.98267,-1.9827 -3.8703,-3.2103 -6.51563,-4.2383 -1.99732,-0.776 -4.99749,-1.6979 -10.52148,-1.9512 -5.97599,-0.2723 -7.7678,-0.33 -22.89844,-0.33 z m 30.25,9.4062 c 3.75466,0 6.79883,3.0448 6.79883,6.8008 0,3.756 -3.04417,6.7988 -6.79883,6.7988 -3.75599,0 -6.80078,-3.0428 -6.80078,-6.7988 0,-3.756 3.04479,-6.8008 6.80078,-6.8008 z M 90,60.902356 c 16.07064,0 29.09961,13.0271 29.09961,29.0976 0,16.070604 -13.02897,29.099704 -29.09961,29.099704 -16.070638,0 -29.097656,-13.0291 -29.097656,-29.099704 0,-16.0705 13.027018,-29.0976 29.097656,-29.0976 z m 0,10.209 c -10.431979,0 -18.888672,8.4568 -18.888672,18.8886 0,10.432004 8.456693,18.890704 18.888672,18.890704 10.43198,0 18.88867,-8.4587 18.88867,-18.890704 0,-10.4318 -8.45669,-18.8886 -18.88867,-18.8886 z" /></svg>
