<?xml version="1.0" encoding="UTF-8" standalone="no"?>
<svg
   viewBox="0 0 179.99994 180"
   height="180"
   width="179.99994"
   xml:space="preserve"
   id="svg2"
   version="1.1"
   sodipodi:docname="sosmed'.svg"
   inkscape:version="1.3 (0e150ed6c4, 2023-07-21)"
   xmlns:inkscape="http://www.inkscape.org/namespaces/inkscape"
   xmlns:sodipodi="http://sodipodi.sourceforge.net/DTD/sodipodi-0.dtd"
   xmlns="http://www.w3.org/2000/svg"
   xmlns:svg="http://www.w3.org/2000/svg"
   xmlns:rdf="http://www.w3.org/1999/02/22-rdf-syntax-ns#"
   xmlns:cc="http://creativecommons.org/ns#"
   xmlns:dc="http://purl.org/dc/elements/1.1/"><sodipodi:namedview
     id="namedview1"
     pagecolor="#ffffff"
     bordercolor="#000000"
     borderopacity="0.25"
     inkscape:showpageshadow="2"
     inkscape:pageopacity="0.0"
     inkscape:pagecheckerboard="0"
     inkscape:deskcolor="#d1d1d1"
     inkscape:zoom="0.34338873"
     inkscape:cx="821.22672"
     inkscape:cy="816.85849"
     inkscape:window-width="1920"
     inkscape:window-height="991"
     inkscape:window-x="-9"
     inkscape:window-y="-9"
     inkscape:window-maximized="1"
     inkscape:current-layer="svg2" /><metadata
     id="metadata8"><rdf:RDF><cc:Work
         rdf:about=""><dc:format>image/svg+xml</dc:format><dc:type
           rdf:resource="http://purl.org/dc/dcmitype/StillImage" /></cc:Work></rdf:RDF></metadata><defs
     id="defs6" /><path
     id="path9"
     style="fill:#f7f6f4;fill-opacity:1;fill-rule:nonzero;stroke:none;stroke-width:0.133333"
     d="M 89.999961,-3.1249999e-6 C 40.294731,-3.1249999e-6 -2.9160156e-5,40.294697 -2.9160156e-5,89.999997 -2.9160156e-5,139.7052 40.294731,180 89.999961,180 139.70536,180 179.99996,139.7053 179.99996,89.999997 179.99996,40.294697 139.70536,-3.1249999e-6 89.999961,-3.1249999e-6 Z M 93.121061,32.021497 c 0.1535,0 0.367,0 0.668,0 5.9773,-10e-4 11.955699,0 17.931599,0 h 0.4239 c 0.6087,0.01 0.6191,0.01 0.6191,0.6289 -0.01,1.3854 0.5691,4.6385 0.6211,4.8945 2.584,13.1066 17.8571,21.1174 22.5664,21.8281 1.296,0.1961 2.5993,0.3538 3.918,0.3418 0.5463,-0.01 0.5635,0.014 0.5625,0.5371 v 0 c 0,1.2174 0.2444,13.7507 0.2344,18.336 0,1.049 -0.1412,1.1025 -1.2012,1.1035 -3.3587,0.01 -6.6585,-0.4486 -9.9238,-1.1953 -5.6107,-1.2839 -10.7904,-3.5647 -15.5957,-6.7207 -0.2493,-0.164 -0.5159,-0.5159 -0.7812,-0.3946 -0.34,0.1547 -0.1622,0.5924 -0.1622,0.9004 -0.01,12.9094 0.05,25.8173 -0.025,38.726603 -0.052,9.024 -2.9221,17.0973 -8.8301,23.9746 -6.275999,7.3067 -14.248999,11.5476 -23.818429,12.7168 -7.376,0.9001 -14.3749,-0.4335 -21.0176,-3.7148 -1.0746,-0.5306 -2.1025,-1.1491 -3.0625,-1.8731 -0.3027,-0.268 -0.6056,-0.5367 -0.90817,-0.8047 -0.72266,-0.3107 -1.29967,-0.8358 -1.90234,-1.3144 -5.93066,-4.7 -10.11016,-10.6251 -12.41016,-17.8477 -0.79999,-2.5133 -1.29834,-5.0861 -1.54101,-7.7168 -0.17604,-1.904 -0.19956,-3.8078 -0.0742,-5.7051 0.28533,-4.3734 1.31895,-8.5773 3.12695,-12.580003 1.888,-4.1827 4.46229,-7.8922 7.73828,-11.1016 3.81467,-3.7373 8.23487,-6.5371 13.26957,-8.3477 3.156,-1.136 6.4012,-1.823 9.7519,-2.0683 2.4253,-0.1774 4.8374,-0.1226 7.2481,0.164 0.3253,0.039 0.5178,0.1056 0.5078,0.4922 -0.023,1.3387 -0.0232,2.6776 -0.0332,4.0176 0.024,0.023 0.1982,10.1866 0.1972,14.8398 0,0.164 -0.002,0.3289 -0.0117,0.4942 -0.0226,0.4664 -0.2612,0.6214 -0.7011,0.4961 -1.2733,-0.3627 -2.5812,-0.5287 -3.8946,-0.5977 -2.04,-0.1093 -4.051,0.1808 -5.959,0.8848 -6.396,2.36 -10.2772,6.941503 -11.0879,13.689403 -0.7986,6.652 1.8242,11.9708 7.3575,15.8028 0.464,0.3214 0.941,0.6198 1.373,0.9824 0.104,0.095 0.2072,0.1892 0.3125,0.2852 1.2854,0.5094 2.5695,1.0262 3.9375,1.2968 4.3413,0.8587 8.4306,0.1956 12.1973,-2.1269 4.34801,-2.6815 6.91691,-6.6084 7.81831,-11.6231 0.1693,-0.9481 0.1973,-1.9122 0.1973,-2.8789 -0.001,-25.921203 0,-51.843603 0,-77.763603 0,-0.906 -0.095,-1.0478 0.3652,-1.0625 z" /></svg>
